<svg viewBox="0 0 96 96" xmlns="http://www.w3.org/2000/svg" xmlns:xlink="http://www.w3.org/1999/xlink" id="Icons_ClipboardMixed_RTL_M" overflow="hidden"><g id="Icons"><path d="M51.5 16.5C51.5212 14.5972 50.0026 13.034 48.1 13L48 13C46.067 13 44.5 14.567 44.5 16.5 44.5 18.433 46.067 20 48 20 49.933 20 51.5 18.433 51.5 16.5ZM49.5 16.484C49.5088 17.3124 48.8445 17.9911 48.0161 17.9999 47.1877 18.0088 46.509 17.3444 46.5002 16.516 46.4913 15.6876 47.1557 15.0089 47.9841 15.0001 47.9894 15 47.9947 15 48 15L48.065 15C48.8703 15.0153 49.5117 15.6787 49.5 16.484Z"/><path d="M59.249 40.583 55.956 37.291 54.542 38.705 59.249 43.412 67.956 34.705 66.542 33.291 59.249 40.583Z"/><rect x="27.999" y="36.998" width="21" height="2"/><path d="M58.999 52.083 55.956 49.041 54.542 50.455 58.999 54.912 67.206 46.705 65.792 45.291 58.999 52.083Z"/><rect x="27.999" y="48.998" width="21" height="2"/><rect x="27.999" y="60.998" width="21" height="2"/><rect x="27.999" y="72.998" width="21" height="2"/><path d="M59.206 57.291 62.499 60.583 65.792 57.291 67.206 58.705 63.913 61.998 67.206 65.291 65.792 66.705 62.499 63.412 59.206 66.705 57.792 65.291 61.085 61.998 57.792 58.705 59.206 57.291Z"/><path d="M59.206 69.291 62.499 72.583 65.792 69.291 67.206 70.705 63.913 73.998 67.206 77.291 65.792 78.705 62.499 75.412 59.206 78.705 57.792 77.291 61.085 73.998 57.792 70.705 59.206 69.291Z"/><path d="M74 14.979 59 14.979 59 12.979C58.9967 10.2189 56.7601 7.98231 54 7.979L42 7.979C39.2402 7.98286 37.0039 10.2192 37 12.979L37 14.979 22 14.979C19.7909 14.979 18 16.7699 18 18.979L18 84C18 86.2091 19.7909 88 22 88L74 88C76.2091 88 78 86.2091 78 84L78 18.979C77.9972 16.771 76.208 14.9818 74 14.979ZM35 16.979 39 16.979 39 12.979C39 11.3221 40.3431 9.979 42 9.979L54 9.979C55.6569 9.979 57 11.3221 57 12.979L57 16.979 61 16.979 61 25 35 25ZM76 84C76 85.1046 75.1046 86 74 86L22 86C20.8954 86 20 85.1046 20 84L20 18.979C20 17.8744 20.8954 16.979 22 16.979L33 16.979 33 27 63 27 63 16.979 74 16.979C75.1046 16.979 76 17.8744 76 18.979Z"/></g></svg>