<svg xmlns="http://www.w3.org/2000/svg" width="1024" height="1024" viewBox="33.62000274658203 -41 956.8790283203125 1105.9710083007812" class="colorable-icon reset-top-left-margin" data-export-recolorable-svg="true" overflow="visible" xmlns:xlink="http://www.w3.org/1999/xlink" fill="rgb(255, 255, 255)" stroke="none"><g fill="none" stroke="rgb(255, 255, 255)" stroke-width="45" stroke-linecap="round" stroke-linejoin="round"><path d="M 838.516,444.486 C 838.228,482.711 837.474,492.071 835.303,500.495 C 832.265,507.197 828.814,512.777 825.022,517.039 C 815.327,524.115 801.857,528.24 754.712,528.879 C 742.773,527.071 734.322,523.6 725.757,516.725 C 717.995,506.243 714.767,497.076 713.17,486.697 L 713.177,444.395" data-line="nan" stroke-width="45.0" fill="none" stroke="rgb(255, 255, 255)"/><path d="M 846.249,444.492 C 846.749,402.95 847.922,395.003 851.315,382.868 C 858.687,367.098 882.486,331.132 892.139,315.021 C 897.778,302.79 901.891,290.546 904.506,278.467 C 906.013,262.312 905.383,246.16 903.466,234.089 C 900.318,222.099 896.025,210.024 886.054,189.715 C 874.682,173.796 860.199,159.478 852.088,153.253 C 839.97,145.491 831.927,141.242 819.753,136.252 C 799.928,131.04 787.853,129.33 776.709,128.803 C 765.087,129.187 753.291,130.593 741.298,133.084 C 729.513,136.649 713.278,143.952 701.531,151.293 C 693.658,157.261 678.662,171.904 666.997,187.92 C 656.844,207.918 652.573,219.848 649.39,231.997 C 646.8,247.713 646.029,261.03 646.948,275.432 C 649.371,287.313 654.816,303.39 660.619,315.225 C 694.517,367.394 698.894,375.299 702.32,383.575 C 704.656,391.917 705.839,400.053 706.322,444.361" data-line="nan" stroke-width="45.0" fill="none" stroke="rgb(255, 255, 255)"/><path d="M 527.535,555.206 C 513.921,568.145 497.62,580.757 485.562,588.247 C 469.362,596.103 448.893,603.183 428.858,607.658 C 408.827,609.98 392.77,610.126 368.706,607.243 C 352.772,603.996 336.879,598.575 320.645,590.975 C 304.438,581.248 288.565,569.43 273.585,555.188 C 260.392,539.384 249.605,523.129 238.997,502.854 C 232.774,486.895 227.188,466.817 223.8,446.88 C 222.392,426.908 222.531,399.098 224.239,375.021 C 227.657,355.151 231.839,339.665 239.66,319.303 C 247.659,303.297 257.582,287.298 266.993,275.232 C 278.412,263.339 294.352,249.794 306.557,241.161 C 322.372,232.143 338.433,225.043 354.141,219.954 C 370.216,216.455 392.798,213.975 408.791,214.016 C 424.856,215.58 440.889,218.65 456.945,223.382 C 473.05,229.924 489.049,238.295 505.147,248.94 C 517.078,258.742 529.214,270.347 543.057,286.291 C 551.57,298.259 560.77,314.391 567.613,330.508 C 573.91,350.583 577.391,366.761 579.839,386.833 C 579.979,431.098 578.039,451.259 575.075,467.355 C 570.632,483.494 564.557,499.691 556.594,515.789 C 549.078,528.13 538.085,543.205 527.535,555.206" data-line="nan" stroke-width="45.0" fill="none" stroke="rgb(255, 255, 255)"/><path d="M 291.0,647.632 C 278.681,649.384 245.07,658.046 224.474,665.06 C 201.394,674.25 181.241,683.987 163.925,694.179 C 146.544,706.253 130.142,719.81 117.626,732.442 C 108.68,743.753 100.041,757.59 92.324,773.479 C 86.091,791.155 81.802,809.223 79.643,825.114 L 78.948,843.342" data-line="nan" stroke-width="45.0" fill="none" stroke="rgb(255, 255, 255)"/><path d="M 78.62,959.876 C 78.779,973.731 80.673,985.117 83.714,993.647 C 89.085,1002.211 95.899,1008.899 105.865,1014.898 Q 115.834,1018.067 127.79,1019.606" data-line="nan" stroke-width="45.0" fill="none" stroke="rgb(255, 255, 255)"/><path d="M 672.543,1019.818 C 682.4,1018.843 692.693,1016.217 703.223,1010.968 C 709.616,1005.674 716.092,997.717 720.232,989.47 Q 722.84,980.576 723.9,970.562" data-line="nan" stroke-width="45.0" fill="none" stroke="rgb(255, 255, 255)"/><path d="M 723.907,843.804 C 723.214,821.91 719.06,797.739 714.519,782.588 L 706.286,763.803" data-line="nan" stroke-width="45.0" fill="none" stroke="rgb(255, 255, 255)"/><path d="M 706.286,763.803 C 695.95,747.151 677.922,724.759 663.032,710.794 C 644.501,696.873 624.324,684.883 598.185,672.431 C 571.21,662.311 535.958,651.584 522.403,648.434 C 514.981,649.2 508.946,652.53 494.916,667.156 C 483.256,677.302 469.517,686.875 457.351,693.687 C 443.657,699.669 428.268,704.569 411.77,707.577 C 397.861,708.268 383.537,706.927 369.721,703.886 C 353.318,697.956 339.763,691.091 324.95,681.686 C 313.01,672.323 302.812,662.222 291.0,647.632" data-line="nan" stroke-width="45.0" fill="none" stroke="rgb(255, 255, 255)"/><path d="M 775.573,4.0 L 775.663,57.526" data-line="0.0" stroke-width="45.0" fill="none" stroke="rgb(255, 255, 255)"/><path d="M 607.524,78.712 L 639.211,112.92" data-line="1.0" stroke-width="45.0" fill="none" stroke="rgb(255, 255, 255)"/><path d="M 914.466,111.916 L 945.499,78.659" data-line="2.0" stroke-width="45.0" fill="none" stroke="rgb(255, 255, 255)"/><path d="M 838.516,444.486 L 713.177,444.395" data-line="3.0" stroke-width="45.0" fill="none" stroke="rgb(255, 255, 255)"/><path d="M 78.948,843.342 L 78.62,959.876" data-line="10.0" stroke-width="45.0" fill="none" stroke="rgb(255, 255, 255)"/><path d="M 127.79,1019.606 L 672.543,1019.818" data-line="12.0" stroke-width="45.0" fill="none" stroke="rgb(255, 255, 255)"/><path d="M 597.116,901.268 L 597.338,1019.971" data-line="14.0" stroke-width="45.0" fill="none" stroke="rgb(255, 255, 255)"/><path d="M 723.9,970.562 L 723.907,843.804" data-line="14.0" stroke-width="45.0" fill="none" stroke="rgb(255, 255, 255)"/><path d="M 206.075,1019.862 L 206.4,902.375" data-line="15.0" stroke-width="45.0" fill="none" stroke="rgb(255, 255, 255)"/></g></svg>