<svg xmlns="http://www.w3.org/2000/svg" width="1024" height="1024" viewBox="90.05299377441406 -41.40385317802429 843.89404296875 1106.4038696289062" class="colorable-icon reset-top-left-margin" data-export-recolorable-svg="true" overflow="visible" xmlns:xlink="http://www.w3.org/1999/xlink" fill="rgb(255, 255, 255)" stroke="none"><g fill="none" stroke="rgb(255, 255, 255)" stroke-width="45" stroke-linecap="round" stroke-linejoin="round"><path d="M 732.036,129.723 C 732.857,149.623 732.512,209.154 729.875,225.53 C 724.28,238.625 718.282,247.168 710.35,255.032 C 701.188,261.187 694.113,264.617 678.636,268.6 L 652.266,269.286" data-line="nan" stroke-width="45.0" fill="none" stroke="rgb(255, 255, 255)"/><path d="M 787.09,129.526 C 811.656,131.079 823.81,133.817 831.918,136.697 C 844.314,143.088 852.912,149.177 860.867,156.257 C 867.821,164.084 878.603,180.669 882.298,188.885 C 886.058,201.238 888.705,217.639 888.947,258.601" data-line="nan" stroke-width="45.0" fill="none" stroke="rgb(255, 255, 255)"/><path d="M 888.942,914.156 C 888.689,926.406 887.263,938.825 884.433,951.147 C 881.52,959.326 875.271,971.966 869.807,980.326 C 859.357,992.467 851.555,999.478 843.289,1005.462 C 835.064,1010.19 822.74,1015.341 814.471,1017.523 Q 793.993,1019.83 753.049,1019.981" data-line="nan" stroke-width="45.0" fill="none" stroke="rgb(255, 255, 255)"/><path d="M 240.897,1020.0 C 224.556,1019.575 212.363,1017.896 200.14,1014.63 C 191.974,1011.337 179.596,1004.505 171.448,998.566 C 163.618,991.438 156.486,983.369 150.532,974.974 C 143.982,962.804 140.816,954.8 137.546,942.566 Q 135.169,922.243 135.053,881.378" data-line="nan" stroke-width="45.0" fill="none" stroke="rgb(255, 255, 255)"/><path d="M 135.06,229.921 C 135.286,217.629 136.629,205.579 139.232,195.093 C 144.728,181.533 152.031,169.247 161.801,157.307 C 169.475,150.203 181.636,141.709 197.544,134.695 C 217.814,130.477 238.3,129.505 306.615,129.493" data-line="nan" stroke-width="45.0" fill="none" stroke="rgb(255, 255, 255)"/><path d="M 357.266,269.266 C 344.439,268.539 332.171,265.504 322.681,261.302 C 311.657,253.633 303.975,245.406 297.228,234.346 Q 292.518,220.057 290.912,208.35" data-line="nan" stroke-width="45.0" fill="none" stroke="rgb(255, 255, 255)"/><path d="M 641.375,128.13 L 787.09,129.526" data-line="0.0" stroke-width="45.0" fill="none" stroke="rgb(255, 255, 255)"/><path d="M 641.4204097539351,128.12793617611254 A 130.4547016812815,130.4547016812815 0 0,0 380.7755107990919,128.22883371521343" data-line="2.0" stroke-width="45.0" fill="none" stroke="rgb(255, 255, 255)"/><path d="M 306.615,129.493 L 380.533,128.218" data-line="3.0" stroke-width="45.0" fill="none" stroke="rgb(255, 255, 255)"/><path d="M 727.264,451.037 L 447.605,733.599" data-line="8.0" stroke-width="45.0" fill="none" stroke="rgb(255, 255, 255)"/><path d="M 317.592,604.567 L 447.605,733.599" data-line="9.0" stroke-width="45.0" fill="none" stroke="rgb(255, 255, 255)"/><path d="M 888.947,258.601 L 888.942,914.156" data-line="11.0" stroke-width="45.0" fill="none" stroke="rgb(255, 255, 255)"/><path d="M 753.049,1019.981 L 240.897,1020.0" data-line="13.0" stroke-width="45.0" fill="none" stroke="rgb(255, 255, 255)"/><path d="M 135.053,881.378 L 135.06,229.921" data-line="15.0" stroke-width="45.0" fill="none" stroke="rgb(255, 255, 255)"/><path d="M 290.912,208.35 L 290.748,129.538" data-line="15.0" stroke-width="45.0" fill="none" stroke="rgb(255, 255, 255)"/><path d="M 652.266,269.286 L 357.266,269.266" data-line="17.0" stroke-width="45.0" fill="none" stroke="rgb(255, 255, 255)"/></g></svg>