<svg xmlns="http://www.w3.org/2000/svg" width="1024" height="1024" viewBox="-41 -10.957839965820312 1105.9010009765625 1044.726806640625" class="colorable-icon reset-top-left-margin" data-export-recolorable-svg="true" overflow="visible" xmlns:xlink="http://www.w3.org/1999/xlink" fill="rgb(0, 0, 0)" stroke="none"><g fill="none" stroke="rgb(39, 37, 37)" stroke-width="45" stroke-linecap="round" stroke-linejoin="round"><path d="M 903.918,766.007 C 877.32,748.287 869.486,741.093 863.635,733.923 C 859.218,726.769 855.545,718.401 853.112,708.985 C 852.07,697.087 852.866,687.69 855.208,677.516 C 858.682,668.773 863.627,660.715 870.329,653.444 Q 877.418,647.498 903.816,630.43" data-line="nan" stroke-width="45.0" fill="none" stroke="rgb(39, 37, 37)"/><path d="M 903.816,633.477 C 939.731,611.244 951.377,602.08 958.572,594.674 C 964.341,586.86 970.11,575.104 973.137,563.105 C 973.929,551.456 972.62,539.812 969.096,528.13 C 962.61,516.461 956.195,508.662 948.518,501.447 Q 936.63,493.019 903.857,475.805" data-line="nan" stroke-width="45.0" fill="none" stroke="rgb(39, 37, 37)"/><path d="M 903.777,479.92 C 867.109,466.366 855.209,459.045 844.449,449.305 C 836.899,439.299 830.981,426.392 828.109,412.607 C 828.5,399.108 830.322,389.79 832.613,382.856 C 839.225,370.467 848.493,359.691 861.436,349.957 C 873.75,344.362 903.531,333.826 962.387,324.977 C 981.893,319.774 991.465,315.219 998.491,310.233 C 1005.785,303.113 1011.707,294.639 1015.721,286.466 C 1018.205,278.546 1019.823,268.494 1019.901,259.067 C 1019.005,251.441 1016.922,243.554 1013.606,236.153 C 1008.288,227.746 997.246,216.634 990.136,212.147 C 983.187,209.05 967.64,205.835 942.906,205.193" data-line="nan" stroke-width="45.0" fill="none" stroke="rgb(39, 37, 37)"/><path d="M 547.684,215.484 C 545.63,199.85 543.224,191.518 537.841,180.559 C 530.497,171.124 520.958,162.794 512.851,158.127 C 499.856,153.987 489.9,152.999 479.39,153.786 C 468.96,156.449 458.94,160.901 447.915,168.478 C 441.292,175.0 435.154,183.026 419.613,213.36" data-line="nan" stroke-width="45.0" fill="none" stroke="rgb(39, 37, 37)"/><path d="M 611.565,333.252 C 621.78,351.866 626.577,362.257 629.023,369.956 C 631.041,381.53 631.236,393.137 629.582,404.809 C 625.908,416.544 622.203,424.626 617.127,432.718 C 610.543,440.349 602.989,446.889 590.974,454.104 C 582.901,457.323 571.246,459.991 546.611,461.275" data-line="nan" stroke-width="45.0" fill="none" stroke="rgb(39, 37, 37)"/><path d="M 546.611,461.275 C 543.269,479.072 540.083,490.05 536.156,498.057 C 530.785,505.602 524.062,512.346 516.332,517.884 C 508.277,521.901 496.562,525.288 485.034,526.104 C 473.487,524.844 461.817,521.394 454.096,517.743 C 446.476,512.61 439.398,505.969 419.972,479.083" data-line="nan" stroke-width="45.0" fill="none" stroke="rgb(39, 37, 37)"/><path d="M 419.613,213.36 C 402.616,183.516 396.398,175.541 388.202,167.617 C 378.61,161.025 369.083,156.637 357.435,153.522 C 345.739,152.954 335.972,154.299 324.735,158.114 C 312.953,165.532 305.894,172.344 300.223,180.173 Q 294.547,191.723 289.011,215.979" data-line="nan" stroke-width="45.0" fill="none" stroke="rgb(39, 37, 37)"/><path d="M 418.03,476.28 C 400.117,503.312 393.167,511.059 385.249,517.345 C 377.171,521.706 365.302,525.291 353.745,526.439 C 346.071,525.996 334.595,523.554 326.97,520.486 C 315.029,513.059 307.79,506.209 302.051,498.627 C 297.988,490.834 294.481,479.806 290.883,461.951" data-line="nan" stroke-width="45.0" fill="none" stroke="rgb(39, 37, 37)"/><path d="M 290.883,461.951 C 264.149,460.284 252.728,457.062 244.042,453.023 C 235.197,447.291 226.277,439.506 218.684,430.478 C 212.898,420.857 208.805,410.986 205.969,397.932 C 205.574,386.618 206.605,376.783 211.624,360.05 L 227.661,332.989" data-line="nan" stroke-width="45.0" fill="none" stroke="rgb(39, 37, 37)"/><path d="M 289.011,215.979 C 262.739,219.623 252.828,222.586 244.774,226.475 C 235.779,232.268 228.306,238.832 222.068,246.003 C 216.898,254.208 212.802,263.736 210.565,272.482 C 209.726,283.672 210.178,292.126 212.145,302.018 Q 215.558,312.152 227.661,332.989" data-line="nan" stroke-width="45.0" fill="none" stroke="rgb(39, 37, 37)"/><path d="M 638.738,708.382 C 642.744,689.19 647.041,673.753 652.282,658.585 C 658.866,642.973 670.942,619.894 699.253,573.635 C 712.206,550.358 725.104,523.421 737.012,492.572 C 746.048,461.391 751.895,430.558 754.451,403.428 C 754.283,372.539 752.744,353.183 750.101,333.886 C 746.385,314.656 741.499,295.196 735.56,276.104 C 728.31,256.691 719.853,237.453 709.977,218.1 C 698.542,198.708 688.246,183.438 676.446,167.964 C 663.061,152.454 648.281,137.376 636.745,126.888 C 621.273,114.502 605.834,103.816 586.587,92.319 C 567.209,82.488 544.106,72.527 524.713,65.557 C 505.394,59.873 482.294,54.591 459.221,50.918 C 436.09,48.817 413.133,48.278 391.096,48.963 C 368.046,51.124 344.934,54.814 321.752,60.12 C 302.686,65.751 283.399,72.682 260.265,82.904 C 240.952,92.83 222.186,104.196 203.004,117.067 C 183.438,132.45 172.163,142.593 158.213,157.259 C 145.482,172.767 132.147,191.875 123.034,207.262 C 113.519,226.454 105.603,245.916 99.464,264.856 C 94.606,284.092 90.494,307.14 88.41,326.387 L 87.357,349.374" data-line="nan" stroke-width="45.0" fill="none" stroke="rgb(39, 37, 37)"/><path d="M 293.353,870.591 C 293.05,858.839 291.905,850.926 287.3,838.856 C 281.86,830.955 278.462,827.402 270.636,821.588 C 262.496,817.737 254.686,815.636 243.062,814.474 C 169.713,814.031 158.172,813.265 146.604,810.998 C 138.885,808.5 123.468,800.385 115.876,794.651 C 108.512,787.682 102.179,780.122 95.056,768.575 C 91.653,760.866 88.27,749.306 86.22,730.312" data-line="nan" stroke-width="45.0" fill="none" stroke="rgb(39, 37, 37)"/><path d="M 903.87,657.788 L 903.946,982.728" data-line="1.0" stroke-width="45.0" fill="none" stroke="rgb(39, 37, 37)"/><path d="M 903.87,657.788 L 903.454,313.288" data-line="3.0" stroke-width="45.0" fill="none" stroke="rgb(39, 37, 37)"/><path d="M 903.454,313.288 L 903.757,125.434" data-line="7.0" stroke-width="45.0" fill="none" stroke="rgb(39, 37, 37)"/><circle cx="903.1365463499055" cy="78.77247931285537" r="44.7303152611484" data-line="8.0" stroke-width="45.0" fill="none" stroke="rgb(39, 37, 37)"/><path d="M 908.4392008732957,771.1141731313866 A 79.06030272013031,79.06030272013031 0 0,1 956.5695273678602,851.4241853835302" data-line="10.0" stroke-width="45.0" fill="none" stroke="rgb(39, 37, 37)"/><path d="M 634.591,988.769 L 638.738,708.382" data-line="20.0" stroke-width="45.0" fill="none" stroke="rgb(39, 37, 37)"/><path d="M 634.591,988.769 L 293.925,988.691" data-line="21.0" stroke-width="45.0" fill="none" stroke="rgb(39, 37, 37)"/><path d="M 293.925,988.691 L 293.353,870.591" data-line="22.0" stroke-width="45.0" fill="none" stroke="rgb(39, 37, 37)"/><path d="M 86.059,598.468 L 16.844,594.957" data-line="23.0" stroke-width="45.0" fill="none" stroke="rgb(39, 37, 37)"/><path d="M 16.844,594.957 L 4.0,570.721" data-line="24.0" stroke-width="45.0" fill="none" stroke="rgb(39, 37, 37)"/><path d="M 86.22,730.312 L 86.059,598.468" data-line="32.0" stroke-width="45.0" fill="none" stroke="rgb(39, 37, 37)"/><path d="M 507.4658291325485,269.3301754703436 A 62.79180113043913,62.79180113043913 0 0,0 546.7246827415731,215.41717648150882" data-line="34.0" stroke-width="45.0" fill="none" stroke="rgb(39, 37, 37)"/><path d="M 610.0733114482701,330.992930715206 A 69.4969575474997,69.4969575474997 0 0,0 547.9255551111272,217.34127299649046" data-line="35.0" stroke-width="45.0" fill="none" stroke="rgb(39, 37, 37)"/><path d="M 546.838,349.969 L 608.482,334.777" data-line="36.0" stroke-width="45.0" fill="none" stroke="rgb(39, 37, 37)"/><path d="M 505.8839085435354,409.3553089154779 A 72.57499853639673,72.57499853639673 0 0,1 546.0709930760836,461.3775903903715" data-line="38.0" stroke-width="45.0" fill="none" stroke="rgb(39, 37, 37)"/><path d="M 419.613,213.36 L 419.736,473.663" data-line="40.0" stroke-width="45.0" fill="none" stroke="rgb(39, 37, 37)"/><path d="M 331.7831160558344,409.34347153580626 A 66.67381363202824,66.67381363202824 0 0,0 291.31509602600465,462.0091557902039" data-line="43.0" stroke-width="45.0" fill="none" stroke="rgb(39, 37, 37)"/><path d="M 227.93658322451265,332.62049419298603 A 90.6682506637645,90.6682506637645 0 0,0 290.9679601904345,350.2575693567487" data-line="45.0" stroke-width="45.0" fill="none" stroke="rgb(39, 37, 37)"/><path d="M 290.03339466039176,215.88374869269938 A 63.18613492573931,63.18613492573931 0 0,0 328.94463961566646,268.47212532837483" data-line="47.0" stroke-width="45.0" fill="none" stroke="rgb(39, 37, 37)"/><path d="M 942.906,205.193 L 832.323,205.398" data-line="48.0" stroke-width="45.0" fill="none" stroke="rgb(39, 37, 37)"/><path d="M 87.357,349.374 C 99.09781794076467,423.9289953576785 33.03369488584983,492.89676550967596 4.0,570.721" data-line="50.0" stroke-width="45.0" fill="none" stroke="rgb(39, 37, 37)"/></g></svg>