<svg xmlns="http://www.w3.org/2000/svg" width="1024" height="1024" viewBox="-45 -44.989999999292195 1114 1113.4549560546875" class="colorable-icon reset-top-left-margin" data-export-recolorable-svg="true" overflow="visible" xmlns:xlink="http://www.w3.org/1999/xlink" fill="rgb(0, 0, 0)" stroke="none"><g fill="none" stroke="rgb(39, 37, 37)" stroke-width="45" stroke-linecap="round" stroke-linejoin="round"><path d="M 112.25,727.88 C 88.4,728.6 80.06,729.53 66.61,732.94 C 53.47,738.72 43.65,744.83 36.94,750.57 L 3.14,785.88" data-line="nan" stroke-width="45.0" fill="none" stroke="rgb(39, 37, 37)"/><path d="M 775.38,902.15 C 769.48,903.67 766.55,903.61 760.78,901.97 L 604.42,832.45" data-line="nan" stroke-width="45.0" fill="none" stroke="rgb(39, 37, 37)"/><path d="M 933.56,832.63 C 933.52,922.21 932.49,934.05 929.52,943.05 C 923.7,952.08 918.02,957.41 908.84,962.93" data-line="nan" stroke-width="45.0" fill="none" stroke="rgb(39, 37, 37)"/><path d="M 774.37,1022.77 C 768.52,1024.0 765.62,1023.77 756.9,1020.67 C 628.37,961.92 619.31,956.52 613.98,951.41 C 609.92,945.48 607.23,939.44 604.83,927.96 L 604.42,834.08" data-line="nan" stroke-width="45.0" fill="none" stroke="rgb(39, 37, 37)"/><path d="M 776.42,799.71 C 767.48,801.07 758.76,798.72 608.7,735.29 L 514.34,693.83" data-line="nan" stroke-width="45.0" fill="none" stroke="rgb(39, 37, 37)"/><path d="M 947.49,726.71 C 947.44,787.6 946.57,809.74 945.46,815.3 Q 942.58,821.61 933.56,832.63" data-line="nan" stroke-width="45.0" fill="none" stroke="rgb(39, 37, 37)"/><path d="M 602.45,831.57 C 593.67,818.99 590.36,808.69 589.71,726.98" data-line="nan" stroke-width="45.0" fill="none" stroke="rgb(39, 37, 37)"/><path d="M 109.07,921.43 C 95.65,921.24 82.25,919.92 68.89,916.86 C 59.87,913.66 46.29,906.78 37.48,900.62 C 28.92,892.95 21.25,884.19 15.04,875.11 C 10.08,865.96 6.29,857.0 2.52,843.75 C 1.12,834.97 0.46,821.8 3.14,785.88" data-line="nan" stroke-width="45.0" fill="none" stroke="rgb(39, 37, 37)"/><path d="M 95.75,0.53 C 82.68,0.92 68.6,2.95 59.22,5.27 C 49.51,9.0 39.58,14.29 31.57,19.96 C 24.63,26.13 17.63,33.86 11.5,42.84 C 7.91,49.85 2.58,66.63 0.64,84.91 L 0.28,113.86" data-line="nan" stroke-width="45.0" fill="none" stroke="rgb(39, 37, 37)"/><path d="M 112.25,727.88 L 448.08,727.9" data-line="0.0" stroke-width="45.0" fill="none" stroke="rgb(39, 37, 37)"/><path d="M 512.0,921.44 L 109.07,921.43" data-line="1.0" stroke-width="45.0" fill="none" stroke="rgb(39, 37, 37)"/><path d="M 737.03,0.65 L 95.75,0.53" data-line="3.0" stroke-width="45.0" fill="none" stroke="rgb(39, 37, 37)"/><path d="M 737.62,529.22 L 737.03,0.65" data-line="4.0" stroke-width="45.0" fill="none" stroke="rgb(39, 37, 37)"/><path d="M 103.85,728.14 L 103.88,0.01" data-line="5.0" stroke-width="45.0" fill="none" stroke="rgb(39, 37, 37)"/><path d="M 933.56,832.63 L 775.38,902.15" data-line="10.0" stroke-width="45.0" fill="none" stroke="rgb(39, 37, 37)"/><path d="M 908.84,962.93 L 774.37,1022.77" data-line="13.0" stroke-width="45.0" fill="none" stroke="rgb(39, 37, 37)"/><path d="M 1024.0,693.9 L 776.42,799.71" data-line="15.0" stroke-width="45.0" fill="none" stroke="rgb(39, 37, 37)"/><path d="M 770.71,587.01 L 514.34,693.83" data-line="18.0" stroke-width="45.0" fill="none" stroke="rgb(39, 37, 37)"/><path d="M 1024.0,693.9 L 770.71,587.01" data-line="19.0" stroke-width="45.0" fill="none" stroke="rgb(39, 37, 37)"/><path d="M 512.0,817.15 L 512.09,694.79" data-line="21.0" stroke-width="45.0" fill="none" stroke="rgb(39, 37, 37)"/><path d="M 0.28,113.86 L 0.0,789.22" data-line="24.0" stroke-width="45.0" fill="none" stroke="rgb(39, 37, 37)"/></g></svg>