<svg xmlns="http://www.w3.org/2000/svg" width="1024" height="1024" viewBox="86.42628479003906 -40.820969104766846 851.751708984375 1106.4808959960938" class="colorable-icon reset-top-left-margin" data-export-recolorable-svg="true" overflow="visible" xmlns:xlink="http://www.w3.org/1999/xlink" fill="rgb(0, 0, 0)" stroke="none"><g fill="none" stroke="url(&quot;#theme-accent-gradient-linear&quot;) rgb(47, 111, 161)" stroke-width="45" stroke-linecap="round" stroke-linejoin="round"><path d="M 563.144,511.727 C 541.597,506.347 533.519,505.384 480.377,504.684" data-line="nan" stroke-width="45.0" fill="none" stroke="url(&quot;#theme-accent-gradient-linear&quot;) rgb(47, 111, 161)"/><path d="M 412.412,504.514 Q 281.839,504.634 245.768,507.491" data-line="nan" stroke-width="45.0" fill="none" stroke="url(&quot;#theme-accent-gradient-linear&quot;) rgb(47, 111, 161)"/><path d="M 592.9,608.315 C 594.196,573.907 592.923,562.696 590.775,553.553 C 587.194,544.281 582.13,535.363 565.444,514.52" data-line="nan" stroke-width="45.0" fill="none" stroke="url(&quot;#theme-accent-gradient-linear&quot;) rgb(47, 111, 161)"/><path d="M 732.17,599.122 C 711.561,621.934 699.9,632.263 690.569,638.011 C 681.306,642.04 672.338,644.636 663.418,646.165 C 654.505,646.648 645.615,646.014 636.751,644.291 C 627.847,641.358 614.236,633.872 592.614,615.566" data-line="nan" stroke-width="45.0" fill="none" stroke="url(&quot;#theme-accent-gradient-linear&quot;) rgb(47, 111, 161)"/><path d="M 889.893,615.587 C 856.247,638.502 842.71,645.525 831.671,648.889 C 822.317,650.535 813.411,650.98 804.577,650.348 C 795.164,648.553 784.105,645.113 774.981,640.75 C 765.388,634.509 753.247,623.4 733.68,597.451" data-line="nan" stroke-width="45.0" fill="none" stroke="url(&quot;#theme-accent-gradient-linear&quot;) rgb(47, 111, 161)"/><path d="M 737.039,420.191 C 722.428,390.176 712.791,376.407 704.885,368.613 C 695.939,362.048 686.81,357.126 673.453,352.493 C 664.615,350.889 655.996,350.355 644.834,351.091 C 635.968,352.851 619.198,359.602 584.229,378.696" data-line="nan" stroke-width="45.0" fill="none" stroke="url(&quot;#theme-accent-gradient-linear&quot;) rgb(47, 111, 161)"/><path d="M 438.611,1016.184 C 408.289,1010.261 381.942,1002.785 353.694,992.098 C 329.062,980.161 307.305,967.13 284.378,950.407 C 266.384,934.481 241.555,909.25 225.714,889.708 C 211.844,868.851 198.75,844.619 187.792,819.053 C 179.499,794.157 172.65,766.198 167.977,737.309 L 165.691,710.902" data-line="nan" stroke-width="45.0" fill="none" stroke="url(&quot;#theme-accent-gradient-linear&quot;) rgb(47, 111, 161)"/><path d="M 164.848,644.614 C 165.998,620.219 169.557,597.989 174.658,580.005 C 182.998,561.498 193.71,545.674 205.348,533.295 Q 216.93,524.15 237.137,512.362" data-line="nan" stroke-width="45.0" fill="none" stroke="url(&quot;#theme-accent-gradient-linear&quot;) rgb(47, 111, 161)"/><path d="M 887.586,425.168 C 882.078,414.317 876.328,406.363 867.864,397.336 C 860.233,391.24 851.148,385.615 841.24,381.202 C 828.699,377.942 816.842,376.753 807.99,377.23 C 795.678,379.73 784.464,383.932 775.134,388.82 Q 759.94,400.761 738.923,424.127" data-line="nan" stroke-width="45.0" fill="none" stroke="url(&quot;#theme-accent-gradient-linear&quot;) rgb(47, 111, 161)"/><path d="M 293.896,132.016 C 286.252,110.256 280.836,101.08 274.028,92.751 C 265.568,85.029 257.721,79.553 247.035,74.064 C 238.215,70.805 227.981,68.39 215.832,66.967 C 204.445,67.338 193.408,69.062 181.843,72.616 C 172.41,76.978 164.758,81.726 156.596,88.338 C 146.85,99.111 137.467,115.42 132.223,132.325 C 130.673,149.622 131.489,160.436 133.768,171.644 L 159.447,257.229" data-line="nan" stroke-width="45.0" fill="none" stroke="url(&quot;#theme-accent-gradient-linear&quot;) rgb(47, 111, 161)"/><path d="M 612.702,104.634 C 614.553,82.463 613.245,69.059 610.977,59.62 C 607.867,51.087 602.642,41.424 596.708,33.086 C 589.048,25.273 578.049,17.089 569.788,12.641 C 560.225,8.772 549.149,5.808 535.463,4.18 C 524.558,4.138 514.15,5.458 501.794,8.838 C 492.847,12.719 484.009,17.971 471.365,28.68 C 461.19,41.693 454.565,54.894 451.761,63.545 Q 449.321,76.576 438.133,169.292" data-line="nan" stroke-width="45.0" fill="none" stroke="url(&quot;#theme-accent-gradient-linear&quot;) rgb(47, 111, 161)"/><path d="M 356.746,668.553 L 494.241,668.461" data-line="2.0" stroke-width="45.0" fill="none" stroke="url(&quot;#theme-accent-gradient-linear&quot;) rgb(47, 111, 161)"/><path d="M 893.178,613.345 L 887.619,735.062" data-line="5.0" stroke-width="45.0" fill="none" stroke="url(&quot;#theme-accent-gradient-linear&quot;) rgb(47, 111, 161)"/><path d="M 889.893,615.587 L 887.586,425.168" data-line="7.0" stroke-width="45.0" fill="none" stroke="url(&quot;#theme-accent-gradient-linear&quot;) rgb(47, 111, 161)"/><path d="M 736.918,426.368 L 732.565,595.948" data-line="8.0" stroke-width="45.0" fill="none" stroke="url(&quot;#theme-accent-gradient-linear&quot;) rgb(47, 111, 161)"/><path d="M 584.229,378.696 L 565.681,512.36" data-line="10.0" stroke-width="45.0" fill="none" stroke="url(&quot;#theme-accent-gradient-linear&quot;) rgb(47, 111, 161)"/><path d="M 393.844,478.663 L 293.896,132.016" data-line="11.0" stroke-width="45.0" fill="none" stroke="url(&quot;#theme-accent-gradient-linear&quot;) rgb(47, 111, 161)"/><path d="M 580.161,380.917 L 612.702,104.634" data-line="12.0" stroke-width="45.0" fill="none" stroke="url(&quot;#theme-accent-gradient-linear&quot;) rgb(47, 111, 161)"/><path d="M 494.23362087273443,668.7174156300349 A 101.35719612454756,101.35719612454756 0 0,0 588.0890861736258,612.1596342058796" data-line="13.0" stroke-width="45.0" fill="none" stroke="url(&quot;#theme-accent-gradient-linear&quot;) rgb(47, 111, 161)"/><path d="M 480.377,504.684 L 412.412,504.514" data-line="13.0" stroke-width="45.0" fill="none" stroke="url(&quot;#theme-accent-gradient-linear&quot;) rgb(47, 111, 161)"/><path d="M 886.2347902648646,734.8938826980175 A 324.84438786926495,324.84438786926495 0 0,1 640.1389383275019,1011.4656307885764" data-line="14.0" stroke-width="45.0" fill="none" stroke="url(&quot;#theme-accent-gradient-linear&quot;) rgb(47, 111, 161)"/><path d="M 639.968,1010.759 C 564.5250905574862,1024.5760644250688 515.1318932778288,1021.4648764836871 438.611,1016.184" data-line="15.0" stroke-width="45.0" fill="none" stroke="url(&quot;#theme-accent-gradient-linear&quot;) rgb(47, 111, 161)"/><path d="M 159.447,257.229 L 235.944,508.496" data-line="19.0" stroke-width="45.0" fill="none" stroke="url(&quot;#theme-accent-gradient-linear&quot;) rgb(47, 111, 161)"/><path d="M 165.691,710.902 L 164.848,644.614" data-line="20.0" stroke-width="45.0" fill="none" stroke="url(&quot;#theme-accent-gradient-linear&quot;) rgb(47, 111, 161)"/><path d="M 438.133,169.292 L 394.711,479.324" data-line="21.0" stroke-width="45.0" fill="none" stroke="url(&quot;#theme-accent-gradient-linear&quot;) rgb(47, 111, 161)"/></g></svg>