<svg xmlns="http://www.w3.org/2000/svg" width="1024" height="1024" viewBox="-34.866000175476074 -40.94399976730347 1094.0964965820312 1105.9299926757812" class="colorable-icon reset-top-left-margin" data-export-recolorable-svg="true" overflow="visible" xmlns:xlink="http://www.w3.org/1999/xlink" fill="rgb(0, 0, 0)" stroke="none"><g fill="none" stroke="url(&quot;#theme-accent-gradient-linear&quot;) rgb(47, 111, 161)" stroke-width="45" stroke-linecap="round" stroke-linejoin="round"><path d="M 921.317,806.044 C 864.827,787.19 818.244,773.0 756.812,757.051 C 714.446,748.993 664.614,740.92 614.625,735.394 C 569.241,732.385 508.077,730.846 455.85,732.259 C 405.909,736.312 356.094,741.712 306.101,749.918 C 268.343,757.361 179.394,780.004 121.383,797.266 L 103.493,807.157" data-line="nan" stroke-width="45.0" fill="none" stroke="url(&quot;#theme-accent-gradient-linear&quot;) rgb(47, 111, 161)"/><path d="M 597.679,1010.073 C 581.666,1014.106 561.504,1017.508 543.309,1019.217 C 521.251,1019.972 490.71,1019.819 472.548,1018.792 Q 449.741,1015.667 428.023,1010.608" data-line="nan" stroke-width="45.0" fill="none" stroke="url(&quot;#theme-accent-gradient-linear&quot;) rgb(47, 111, 161)"/><path d="M 814.457,524.082 C 812.057,579.727 804.873,643.294 795.328,697.966 L 779.87,762.859" data-line="nan" stroke-width="45.0" fill="none" stroke="url(&quot;#theme-accent-gradient-linear&quot;) rgb(47, 111, 161)"/><path d="M 244.853,763.162 C 234.241,724.39 228.041,697.66 221.991,665.55 C 216.999,631.323 210.362,563.339 208.45,510.127 L 209.123,488.857" data-line="nan" stroke-width="45.0" fill="none" stroke="url(&quot;#theme-accent-gradient-linear&quot;) rgb(47, 111, 161)"/><path d="M 814.185,511.11 C 811.383,434.353 805.945,384.279 796.659,329.847 L 785.13,282.702" data-line="nan" stroke-width="45.0" fill="none" stroke="url(&quot;#theme-accent-gradient-linear&quot;) rgb(47, 111, 161)"/><path d="M 923.184,220.389 C 817.309,251.411 779.924,261.081 756.883,265.774 C 708.694,274.51 665.827,280.824 618.046,286.066 C 572.62,289.433 531.267,291.218 493.858,291.1 C 450.103,289.399 409.252,286.438 366.3,281.82 C 325.126,275.872 286.678,268.903 244.438,259.774" data-line="nan" stroke-width="45.0" fill="none" stroke="url(&quot;#theme-accent-gradient-linear&quot;) rgb(47, 111, 161)"/><path d="M 209.123,488.857 C 212.613,423.844 218.564,374.137 228.656,319.829 L 242.448,265.411" data-line="nan" stroke-width="45.0" fill="none" stroke="url(&quot;#theme-accent-gradient-linear&quot;) rgb(47, 111, 161)"/><path d="M 616.707,20.108 C 614.061,18.603 585.797,11.015 563.133,6.888 C 536.005,4.545 493.934,4.118 458.661,6.94 C 433.993,11.134 408.799,18.221 375.949,31.585" data-line="nan" stroke-width="45.0" fill="none" stroke="url(&quot;#theme-accent-gradient-linear&quot;) rgb(47, 111, 161)"/><path d="M 967.865,724.43 C 956.22,748.867 943.849,771.806 932.256,790.9 C 915.957,813.464 915.126,815.579 903.662,830.605 C 882.906,854.801 869.554,868.679 849.431,887.626 C 828.575,905.554 806.398,922.703 786.363,936.665 C 764.913,950.19 742.385,962.874 718.46,974.784 Q 694.921,984.925 671.838,993.449" data-line="nan" stroke-width="45.0" fill="none" stroke="url(&quot;#theme-accent-gradient-linear&quot;) rgb(47, 111, 161)"/><path d="M 91.547,788.014 C 70.92,752.415 53.965,718.049 41.007,686.72 C 29.149,651.012 20.651,616.495 14.311,578.83 Q 10.786,538.985 10.16,502.035" data-line="nan" stroke-width="45.0" fill="none" stroke="url(&quot;#theme-accent-gradient-linear&quot;) rgb(47, 111, 161)"/><path d="M 778.597,762.864 L 780.009,758.027" data-line="1.0" stroke-width="45.0" fill="none" stroke="url(&quot;#theme-accent-gradient-linear&quot;) rgb(47, 111, 161)"/><path d="M 779.4139719685805,757.8794027351953 A 439.41783850379227,439.41783850379227 0 0,1 636.4842406218434,987.765920705246" data-line="2.0" stroke-width="45.0" fill="none" stroke="url(&quot;#theme-accent-gradient-linear&quot;) rgb(47, 111, 161)"/><path d="M 918.2002565284846,212.38108565174065 A 512.2970343994241,512.2970343994241 0 0,1 967.6888996495927,724.3493315013535" data-line="3.0" stroke-width="45.0" fill="none" stroke="url(&quot;#theme-accent-gradient-linear&quot;) rgb(47, 111, 161)"/><path d="M 380.837423734072,983.1893111479508 A 467.02737133317714,467.02737133317714 0 0,1 248.25666266710152,773.9244318745391" data-line="5.0" stroke-width="45.0" fill="none" stroke="url(&quot;#theme-accent-gradient-linear&quot;) rgb(47, 111, 161)"/><path d="M 346.9974885750215,992.6828581382024 A 522.5099698407078,522.5099698407078 0 0,1 91.27649449993368,788.1902866525298" data-line="6.0" stroke-width="45.0" fill="none" stroke="url(&quot;#theme-accent-gradient-linear&quot;) rgb(47, 111, 161)"/><path d="M 597.6789999999987,1010.0729999999988 A 4.926932381523202,4.926932381523202 0 0,1 602.5469999999997,1008.6300000000015" data-line="9.0" stroke-width="45.0" fill="none" stroke="url(&quot;#theme-accent-gradient-linear&quot;) rgb(47, 111, 161)"/><path d="M 599.535,1008.805 L 601.097,1009.215" data-line="10.0" stroke-width="45.0" fill="none" stroke="url(&quot;#theme-accent-gradient-linear&quot;) rgb(47, 111, 161)"/><path d="M 602.547,1008.63 C 602.4053333547848,1005.8299999783789 608.6866730445239,1008.6940004842636 608.611,1005.639" data-line="11.0" stroke-width="45.0" fill="none" stroke="url(&quot;#theme-accent-gradient-linear&quot;) rgb(47, 111, 161)"/><path d="M 604.073,1007.289 L 604.749,1008.689" data-line="12.0" stroke-width="45.0" fill="none" stroke="url(&quot;#theme-accent-gradient-linear&quot;) rgb(47, 111, 161)"/><path d="M 608.611,1005.639 L 610.147,1006.954" data-line="13.0" stroke-width="45.0" fill="none" stroke="url(&quot;#theme-accent-gradient-linear&quot;) rgb(47, 111, 161)"/><path d="M 610.147,1006.954 L 657.751,986.793" data-line="14.0" stroke-width="45.0" fill="none" stroke="url(&quot;#theme-accent-gradient-linear&quot;) rgb(47, 111, 161)"/><path d="M 509.308,714.037 L 512.252,1019.986" data-line="15.0" stroke-width="45.0" fill="none" stroke="url(&quot;#theme-accent-gradient-linear&quot;) rgb(47, 111, 161)"/><path d="M 383.361,994.522 L 425.974,1010.881" data-line="16.0" stroke-width="45.0" fill="none" stroke="url(&quot;#theme-accent-gradient-linear&quot;) rgb(47, 111, 161)"/><path d="M 425.974,1010.881 L 428.023,1010.608" data-line="17.0" stroke-width="45.0" fill="none" stroke="url(&quot;#theme-accent-gradient-linear&quot;) rgb(47, 111, 161)"/><path d="M 1013.831,511.121 L 10.134,511.11" data-line="19.0" stroke-width="45.0" fill="none" stroke="url(&quot;#theme-accent-gradient-linear&quot;) rgb(47, 111, 161)"/><path d="M 509.308,714.037 L 510.985,711.212" data-line="23.0" stroke-width="45.0" fill="none" stroke="url(&quot;#theme-accent-gradient-linear&quot;) rgb(47, 111, 161)"/><path d="M 510.985,711.212 L 510.929,4.056" data-line="24.0" stroke-width="45.0" fill="none" stroke="url(&quot;#theme-accent-gradient-linear&quot;) rgb(47, 111, 161)"/><path d="M 244.438,259.774 L 98.396,219.093" data-line="30.0" stroke-width="45.0" fill="none" stroke="url(&quot;#theme-accent-gradient-linear&quot;) rgb(47, 111, 161)"/><path d="M 916.319,210.774 L 917.173,213.118" data-line="33.0" stroke-width="45.0" fill="none" stroke="url(&quot;#theme-accent-gradient-linear&quot;) rgb(47, 111, 161)"/><path d="M 740.367,258.363 L 779.908,260.595" data-line="35.0" stroke-width="45.0" fill="none" stroke="url(&quot;#theme-accent-gradient-linear&quot;) rgb(47, 111, 161)"/><path d="M 10.400965240398818,502.0352804102486 A 498.136343253708,498.136343253708 0 0,1 348.59119461747827,30.855311697707066" data-line="37.0" stroke-width="45.0" fill="none" stroke="url(&quot;#theme-accent-gradient-linear&quot;) rgb(47, 111, 161)"/><path d="M 676.3046009743204,32.22399475866405 A 514.5869267012449,514.5869267012449 0 0,1 916.5900289740623,210.5733588841585" data-line="38.0" stroke-width="45.0" fill="none" stroke="url(&quot;#theme-accent-gradient-linear&quot;) rgb(47, 111, 161)"/><path d="M 379.7850609127735,37.813083281076445 A 476.89806401409714,476.89806401409714 0 0,0 244.95323131118994,259.90915109619533" data-line="40.0" stroke-width="45.0" fill="none" stroke="url(&quot;#theme-accent-gradient-linear&quot;) rgb(47, 111, 161)"/><path d="M 613.148,20.098 L 614.061,18.603" data-line="42.0" stroke-width="45.0" fill="none" stroke="url(&quot;#theme-accent-gradient-linear&quot;) rgb(47, 111, 161)"/><path d="M 616.707,20.108 L 617.686,21.917" data-line="43.0" stroke-width="45.0" fill="none" stroke="url(&quot;#theme-accent-gradient-linear&quot;) rgb(47, 111, 161)"/><path d="M 617.686,21.917 C 627.4540561732002,22.90315485767493 637.9860243774567,29.28577295345332 643.18,30.991" data-line="44.0" stroke-width="45.0" fill="none" stroke="url(&quot;#theme-accent-gradient-linear&quot;) rgb(47, 111, 161)"/><path d="M 685.147,988.771 L 657.751,986.793" data-line="53.0" stroke-width="45.0" fill="none" stroke="url(&quot;#theme-accent-gradient-linear&quot;) rgb(47, 111, 161)"/><path d="M 671.838,993.449 L 657.751,986.793" data-line="54.0" stroke-width="45.0" fill="none" stroke="url(&quot;#theme-accent-gradient-linear&quot;) rgb(47, 111, 161)"/><path d="M 347.074,992.477 L 383.361,994.522" data-line="55.0" stroke-width="45.0" fill="none" stroke="url(&quot;#theme-accent-gradient-linear&quot;) rgb(47, 111, 161)"/><path d="M 676.286,32.276 L 643.18,30.991" data-line="58.0" stroke-width="45.0" fill="none" stroke="url(&quot;#theme-accent-gradient-linear&quot;) rgb(47, 111, 161)"/><path d="M 348.467,30.489 L 375.949,31.585" data-line="59.0" stroke-width="45.0" fill="none" stroke="url(&quot;#theme-accent-gradient-linear&quot;) rgb(47, 111, 161)"/><path d="M 784.3350039401796,282.8802938005358 A 471.7865460111818,471.7865460111818 0 0,0 646.4526503858061,41.745259051328446" data-line="62.0" stroke-width="45.0" fill="none" stroke="url(&quot;#theme-accent-gradient-linear&quot;) rgb(47, 111, 161)"/></g></svg>