<svg xmlns="http://www.w3.org/2000/svg" width="1024" height="1024" viewBox="-13.836999893188477 -40.8439998626709 1051.6739501953125 1105.5740966796875" class="colorable-icon reset-top-left-margin" data-export-recolorable-svg="true" overflow="visible" xmlns:xlink="http://www.w3.org/1999/xlink" fill="rgb(0, 0, 0)" stroke="none"><g fill="none" stroke="url(&quot;#theme-accent-gradient-linear&quot;) rgb(149, 114, 55)" stroke-width="45" stroke-linecap="round" stroke-linejoin="round"><path d="M 957.239,616.201 C 946.735,606.77 933.729,598.215 921.422,592.803 C 907.331,588.833 890.171,587.201 815.178,587.417" data-line="nan" stroke-width="45.0" fill="none" stroke="url(&quot;#theme-accent-gradient-linear&quot;) rgb(149, 114, 55)"/><path d="M 992.448,481.056 C 991.518,442.497 987.816,408.555 981.071,372.666 C 971.261,336.467 959.309,303.256 943.86,269.031 Q 927.024,238.243 906.413,206.572" data-line="nan" stroke-width="45.0" fill="none" stroke="url(&quot;#theme-accent-gradient-linear&quot;) rgb(149, 114, 55)"/><path d="M 815.178,587.417 C 800.635,588.114 789.791,590.649 775.234,597.761 C 769.411,602.153 764.806,606.884 758.141,616.953 C 754.307,628.268 752.68,642.073 752.544,662.719" data-line="nan" stroke-width="45.0" fill="none" stroke="url(&quot;#theme-accent-gradient-linear&quot;) rgb(149, 114, 55)"/><path d="M 752.563,954.187 C 753.114,968.44 754.941,979.061 758.823,989.777 C 765.787,999.776 775.535,1008.255 786.597,1014.096 Q 801.244,1018.239 814.47,1019.619" data-line="nan" stroke-width="45.0" fill="none" stroke="url(&quot;#theme-accent-gradient-linear&quot;) rgb(149, 114, 55)"/><path d="M 891.998,1019.529 C 904.515,1018.312 917.638,1015.22 929.172,1010.531 C 938.918,1005.192 948.791,998.237 957.351,990.679 C 966.007,980.883 973.967,969.83 983.557,951.047 C 987.861,937.956 990.332,927.247 992.564,907.027 L 992.658,868.163" data-line="nan" stroke-width="45.0" fill="none" stroke="url(&quot;#theme-accent-gradient-linear&quot;) rgb(149, 114, 55)"/><path d="M 31.303,893.617 C 32.181,919.279 36.047,939.612 39.374,949.763 C 43.878,960.05 53.441,975.887 66.702,991.388 C 81.914,1003.7 97.422,1012.062 107.698,1015.739 C 118.078,1018.146 138.676,1019.936 210.929,1019.711 C 226.402,1017.85 242.368,1012.703 253.176,1005.903 C 258.031,1001.316 262.103,996.219 267.708,985.312 Q 271.156,969.391 271.659,938.349" data-line="nan" stroke-width="45.0" fill="none" stroke="url(&quot;#theme-accent-gradient-linear&quot;) rgb(149, 114, 55)"/><path d="M 271.674,649.309 C 270.822,633.838 268.469,623.334 263.504,612.869 C 255.459,603.242 245.539,595.897 234.815,591.081 C 224.385,588.429 209.215,587.292 127.228,587.922 C 116.651,589.298 105.511,592.426 92.628,597.79 C 78.265,606.808 69.695,614.036 34.609,647.744" data-line="nan" stroke-width="45.0" fill="none" stroke="url(&quot;#theme-accent-gradient-linear&quot;) rgb(149, 114, 55)"/><path d="M 906.413,206.572 C 882.872,175.818 857.839,147.938 831.692,123.038 C 802.732,99.493 769.53,76.79 736.466,57.983 C 702.826,42.234 668.885,29.394 630.578,18.201 C 591.443,10.121 554.191,5.482 519.196,4.156 C 481.193,4.671 444.978,8.145 403.73,15.481 C 367.559,24.954 331.579,37.447 300.96,50.797 C 264.83,69.964 233.899,89.726 202.901,113.235 C 177.386,136.015 152.494,161.744 127.025,192.708 C 105.645,223.509 87.507,254.493 70.079,290.425 C 56.085,326.429 45.409,362.392 37.928,398.371 Q 33.383,434.376 31.408,475.54" data-line="nan" stroke-width="45.0" fill="none" stroke="url(&quot;#theme-accent-gradient-linear&quot;) rgb(149, 114, 55)"/><path d="M 32.343,680.443 L 31.303,893.617" data-line="1.0" stroke-width="45.0" fill="none" stroke="url(&quot;#theme-accent-gradient-linear&quot;) rgb(149, 114, 55)"/><path d="M 957.239,616.201 L 988.586,647.814" data-line="3.0" stroke-width="45.0" fill="none" stroke="url(&quot;#theme-accent-gradient-linear&quot;) rgb(149, 114, 55)"/><path d="M 32.343,680.443 L 34.609,647.744" data-line="4.0" stroke-width="45.0" fill="none" stroke="url(&quot;#theme-accent-gradient-linear&quot;) rgb(149, 114, 55)"/><path d="M 752.544,662.719 L 752.563,954.187" data-line="6.0" stroke-width="45.0" fill="none" stroke="url(&quot;#theme-accent-gradient-linear&quot;) rgb(149, 114, 55)"/><path d="M 992.837,652.101 L 992.448,481.056" data-line="8.0" stroke-width="45.0" fill="none" stroke="url(&quot;#theme-accent-gradient-linear&quot;) rgb(149, 114, 55)"/><path d="M 992.658,868.163 L 988.586,647.814" data-line="8.0" stroke-width="45.0" fill="none" stroke="url(&quot;#theme-accent-gradient-linear&quot;) rgb(149, 114, 55)"/><path d="M 271.659,938.349 L 271.674,649.309" data-line="10.0" stroke-width="45.0" fill="none" stroke="url(&quot;#theme-accent-gradient-linear&quot;) rgb(149, 114, 55)"/><path d="M 814.47,1019.619 L 891.998,1019.529" data-line="12.0" stroke-width="45.0" fill="none" stroke="url(&quot;#theme-accent-gradient-linear&quot;) rgb(149, 114, 55)"/><path d="M 31.408,475.54 L 31.163,651.054" data-line="13.0" stroke-width="45.0" fill="none" stroke="url(&quot;#theme-accent-gradient-linear&quot;) rgb(149, 114, 55)"/></g></svg>