<svg xmlns="http://www.w3.org/2000/svg" width="1026" height="1025" viewBox="-44 -42.478519916534424 1114 1109.95849609375" fill="none" class="colorable-icon reset-top-left-margin" data-export-recolorable-svg="true" overflow="visible" xmlns:xlink="http://www.w3.org/1999/xlink" stroke="none"><path d="M575.018 271.29L578.157 274.346L581.942 278.117L587.405 283.569L593.001 289.2L598.693 294.913L604.386 300.617L610.091 306.311L615.8 311.999L621.517 317.679L627.24 323.356L632.967 329.026L638.698 334.693L644.433 340.357L650.17 346.018L655.909 351.677L661.647 357.336L667.386 362.995L673.124 368.655L678.86 374.317L684.594 379.981L690.315 385.64L695.916 391.19L701.322 396.554L706.536 401.734L711.743 406.921L717.131 412.301L722.699 417.88L728.377 423.583L734.052 429.306L739.718 435.037L745.371 440.782L749.41 444.893L752.822 448.38" stroke="url(&quot;#theme-accent-gradient-linear&quot;) rgb(149, 114, 55)" stroke-linecap="round" stroke-linejoin="round" stroke-width="45.0" fill="none"/><path d="M195.502 510.218L197.015 510.217H199.165L201.846 510.216L204.863 510.215H207.545L210.563 510.214L213.244 510.213H216.261L218.942 510.212L221.961 510.211H224.642L227.659 510.21L230.34 510.209L233.359 510.208H236.04L239.057 510.207L241.738 510.206H244.757L247.438 510.205L250.455 510.204H253.136L256.155 510.203L258.836 510.202L261.853 510.201H264.534L267.553 510.2L270.234 510.199H273.251L275.932 510.198L278.95 510.197H281.632L284.649 510.196L287.33 510.195H290.348L293.03 510.194L296.047 510.193L298.728 510.192H301.746L304.428 510.191L307.446 510.19H310.126L313.144 510.189L315.826 510.188H318.844L321.524 510.187L324.542 510.186L327.223 510.185H330.242L332.923 510.184L335.94 510.183H338.621L341.64 510.182L344.321 510.181H347.338L350.019 510.18L353.038 510.179L355.719 510.178H358.736L361.417 510.177L364.436 510.176H367.117L370.134 510.175L372.815 510.174H375.834L378.515 510.173L381.532 510.172H384.213L387.232 510.171L389.913 510.17L392.93 510.169H395.611L398.629 510.168L401.311 510.167H404.328L407.009 510.166L410.027 510.165H412.709L415.726 510.164L418.407 510.163L421.425 510.162H424.107L427.125 510.161L429.805 510.16H432.823L435.505 510.159L438.523 510.158H441.204L444.221 510.157L446.902 510.156L449.921 510.155H452.602L455.619 510.154L458.3 510.153H461.319L464 510.152L467.017 510.151H469.698L472.717 510.15L475.398 510.149L478.415 510.148H481.096L484.115 510.147L486.796 510.146H489.813L492.494 510.145L495.513 510.144H498.194L501.211 510.143L503.892 510.142L506.911 510.141H509.592L512.609 510.14L515.29 510.139H518.308L520.99 510.138L524.007 510.137H526.688L529.706 510.136L532.388 510.135L535.405 510.134H538.086L541.104 510.133L543.786 510.132H546.804L549.484 510.131L552.502 510.13H555.184L558.202 510.129L560.882 510.128L563.9 510.127H566.581L569.6 510.126L572.281 510.125H575.298L577.979 510.124L580.998 510.123H583.679L586.696 510.122L589.377 510.121H592.396L595.077 510.12L598.094 510.118L600.775 510.117H603.794L606.475 510.116L609.492 510.115H612.173L615.192 510.114L617.873 510.113H620.89L623.571 510.112L626.59 510.111L629.271 510.11H632.288L634.969 510.109L637.987 510.108H640.669L643.686 510.107L646.367 510.106H649.385L652.067 510.105L655.084 510.104L657.765 510.103H660.783L663.465 510.102L666.483 510.101H669.163L672.181 510.1L674.863 510.099H677.881L680.561 510.098L683.579 510.097H686.26L689.279 510.096L691.96 510.095L694.977 510.094H697.658L700.677 510.093L703.358 510.092H706.375L709.056 510.091L712.075 510.09H714.756L717.773 510.089L720.454 510.088L723.473 510.087H726.154L729.171 510.086L731.852 510.085H734.871L737.552 510.084L740.569 510.083H743.25L746.269 510.082L748.95 510.081L751.967 510.08H754.648L757.776 510.079L761.001 510.078H763.729L766.204 510.077" stroke="url(&quot;#theme-accent-gradient-linear&quot;) rgb(149, 114, 55)" stroke-linecap="round" stroke-linejoin="round" stroke-width="45.0" fill="none"/><path d="M579.969 744.499L581.728 742.759L583.965 740.54L587.181 737.351L590.141 734.412L593.212 731.361L595.907 728.683L598.935 725.676L601.624 723.003L604.652 719.994L607.341 717.322L610.366 714.312L613.059 711.632L616.159 708.546L619.264 705.453L622.715 702.015L626.15 698.596L629.206 695.553L632.271 692.502L634.945 689.836L637.968 686.822L640.652 684.144L643.672 681.13L646.356 678.451L649.376 675.435L652.059 672.755L655.078 669.739L657.76 667.058L660.777 664.039L663.457 661.358L666.474 658.339L669.154 655.656L672.168 652.635L674.847 649.951L677.861 646.93L680.526 644.257L683.58 641.194L686.624 638.139L690.044 634.705L693.479 631.252L696.571 628.143L699.653 625.041L702.331 622.346L705.338 619.317L708.01 616.626L711.016 613.596L713.685 610.903L716.69 607.873L719.358 605.178L722.361 602.146L725.028 599.45L728.034 596.411L730.715 593.7L733.636 590.744L736.142 588.207L738.84 585.472L741.278 583L744.116 580.12L746.743 577.453L749.727 574.421L752.387 571.719L755.38 568.676L758.038 565.972L761.028 562.927L763.685 560.221L766.673 557.174L769.328 554.466L772.316 551.417L774.968 548.708L777.954 545.657L779.856 543.711L781.77 541.753" stroke="url(&quot;#theme-accent-gradient-linear&quot;) rgb(149, 114, 55)" stroke-linecap="round" stroke-linejoin="round" stroke-width="45.0" fill="none"/><path d="M752.822 448.379L812.893 509.991" stroke="url(&quot;#theme-accent-gradient-linear&quot;) rgb(149, 114, 55)" stroke-linecap="round" stroke-linejoin="round" stroke-width="45.0" fill="none"/><path d="M766.203 510.078L812.892 509.992" stroke="url(&quot;#theme-accent-gradient-linear&quot;) rgb(149, 114, 55)" stroke-linecap="round" stroke-linejoin="round" stroke-width="45.0" fill="none"/><path d="M781.771 541.752L812.894 509.992" stroke="url(&quot;#theme-accent-gradient-linear&quot;) rgb(149, 114, 55)" stroke-linecap="round" stroke-linejoin="round" stroke-width="45.0" fill="none"/><path d="M130.58 171.143L127.467 174.607L123.871 178.711L119.03 184.343L114.232 190.109L109.65 195.771L105.095 201.551L100.737 207.269L96.4527 213.073L92.2559 218.918L88.2426 224.663L84.3522 230.399L80.6261 236.098L76.9816 241.825L73.4833 247.465L70.125 253.022L66.9371 258.484L63.7916 264.057L60.7528 269.583L57.703 275.267L54.7953 280.856L51.9087 286.619L49.1633 292.288L46.4178 298.121L43.8145 303.806L41.2575 309.58L38.8426 315.278L36.4772 321.047L34.1893 326.802L32.0113 332.436L29.924 338.062L27.9455 343.666L26.0336 349.289L24.2043 354.848L22.4476 360.363L20.7493 365.953L19.0974 371.69L17.514 377.447L16.0022 383.153L14.574 388.785L13.2265 394.418L11.9506 400.114L10.7663 405.775L9.6405 411.393L8.5772 416.992L7.57638 422.593L6.65317 428.281L5.80756 434.008L5.02444 439.743L4.29071 445.507L3.63257 451.177L3.05102 456.891L2.56724 462.561L2.14091 468.281L1.76901 473.957L1.45858 479.55L1.22576 485.16L1.09172 490.786L1.02217 496.486L1 502.184L1.00504 507.884L1.03628 513.582L1.1018 519.217L1.20258 524.846L1.35175 530.459L1.54627 536.195L1.80428 541.918L2.13285 547.645L2.55918 553.306L3.05304 558.992L3.60535 564.701L4.20302 570.405L4.87225 576.102L5.62715 581.783L6.45965 587.412L7.36271 593.087L8.31112 598.725L9.32907 604.442L10.4156 610.09L11.5867 615.726L12.8133 621.313L14.0973 626.929L15.462 632.639L16.9335 638.435L18.5098 644.238L20.1385 649.961L21.7945 655.564L23.4806 661.126L25.2394 666.685L27.1281 672.362L29.1338 678.097L31.2584 683.966L33.4142 689.757L35.6074 695.454L37.8711 701.084L40.2325 706.707L42.6968 712.42L45.2265 718.116L47.8006 723.763L50.5128 729.477L53.2825 735.105L56.1972 740.855L59.1029 746.445L62.1276 752.104L65.2086 757.665L68.4661 763.349L71.8495 769.106L75.371 774.94L78.9893 780.76L82.7043 786.515L86.4959 792.219L90.345 797.863L94.3412 803.569L98.4695 809.282L102.801 815.073L107.106 820.686L111.511 826.267L116.029 831.835L120.908 837.634L125.948 843.472L131.13 849.285L136.284 854.902L141.638 860.528L147.138 866.169L152.815 871.867L158.546 877.508L164.23 882.959L169.896 888.265L175.526 893.38L181.228 898.425L186.896 903.267L192.542 907.965L198.145 912.498L203.815 916.972L209.429 921.258L215.031 925.417L220.575 929.423L226.175 933.372L231.827 937.241L237.649 941.081L243.472 944.823L249.38 948.507L254.998 951.922L260.655 955.238L266.214 958.397L271.926 961.561L277.668 964.661L283.442 967.677L289.253 970.596L294.998 973.374L300.704 976.06L306.359 978.656L312.046 981.202L317.661 983.639L323.258 985.998L328.9 988.296L334.624 990.55L340.465 992.757L346.206 994.846L351.91 996.843L357.503 998.723L363.085 1000.51L368.669 1002.23L374.323 1003.9L380.057 1005.52L385.862 1007.08L391.663 1008.55L397.414 1009.93L403.099 1011.22L408.731 1012.43L414.4 1013.57L420.054 1014.64L425.772 1015.65L431.433 1016.59L437.126 1017.45L442.787 1018.23L448.475 1018.95L454.175 1019.6L459.883 1020.18L465.591 1020.68L471.298 1021.13L476.961 1021.5L482.638 1021.81L488.304 1022.04L494.003 1022.22L499.702 1022.35L505.401 1022.45L511.1 1022.48L516.799 1022.44L522.498 1022.34L528.177 1022.18L533.873 1021.96L539.557 1021.66L545.289 1021.29L550.972 1020.86L556.679 1020.38L562.353 1019.83L568.057 1019.2L573.749 1018.52L579.459 1017.77L585.187 1016.95L590.902 1016.06L596.586 1015.11L602.226 1014.1L607.882 1013.03L613.553 1011.89L619.294 1010.66L625.018 1009.37L630.743 1008.01L636.388 1006.6L642.09 1005.1L647.816 1003.52L653.596 1001.86L659.352 1000.13L665.084 998.329L670.796 996.469L676.486 994.544L682.156 992.555L687.798 990.483L693.405 988.353L699.071 986.122L704.753 983.812L710.502 981.384L716.214 978.895L721.904 976.338L727.565 973.712L733.186 971.013L738.76 968.244L744.388 965.356L750.031 962.368L755.829 959.196L761.679 955.918L767.505 952.578L773.243 949.234L778.848 945.894L784.52 942.456L790.232 938.907L795.998 935.232L801.835 931.373L807.688 927.397L813.616 923.261L819.349 919.148L825.075 914.898L830.701 910.605L836.399 906.136L842.018 901.604L847.696 896.869L853.502 891.867L859.425 886.602L865.363 881.144L871.201 875.583L876.943 869.927L882.595 864.163L888.058 858.417L893.367 852.652L898.363 847.06L903.296 841.355L908.014 835.737L912.69 830.013L917.189 824.341L921.573 818.64L925.976 812.735L930.262 806.822L934.522 800.775L938.519 794.913L942.388 789.082L946.034 783.417L949.558 777.784L952.943 772.204L956.26 766.59L959.519 760.917L962.649 755.313L965.717 749.624L968.642 744.044L971.57 738.3L974.362 732.657L977.139 726.84L979.791 721.109L982.404 715.292L984.878 709.616L987.232 703.996L989.497 698.365L991.715 692.684L993.923 686.844L996.045 681.057L998.062 675.277L999.976 669.576L1001.82 663.859L1003.61 658.122L1005.33 652.368L1006.94 646.633L1008.49 640.935L1009.95 635.27L1011.36 629.608L1012.68 623.914L1013.93 618.213L1015.12 612.499L1016.26 606.763L1017.31 601.043L1018.28 595.334L1019.17 589.657L1020.01 584.011L1020.78 578.307L1021.49 572.603L1022.11 566.855L1022.67 561.132L1023.16 555.422L1023.59 549.69L1023.95 543.986L1024.21 538.27L1024.42 532.579L1024.6 526.88L1024.75 521.181L1024.88 515.482L1024.97 509.783L1025 504.084L1024.96 498.385L1024.85 492.686L1024.67 486.984L1024.42 481.251L1024.09 475.528L1023.7 469.783L1023.24 464.073L1022.71 458.359L1022.1 452.654L1021.43 446.966L1020.69 441.272L1019.88 435.594L1019 429.912L1018.05 424.203L1017.02 418.477L1015.92 412.75L1014.77 407.082L1013.54 401.41L1012.24 395.738L1010.86 390.006L1009.42 384.299L1007.91 378.624L1006.34 372.995L1004.69 367.341L1002.96 361.65L1001.14 355.936L999.218 350.138L997.214 344.326L995.11 338.45L992.983 332.725L990.801 327.059L988.577 321.498L986.241 315.849L983.82 310.185L981.296 304.463L978.709 298.795L976.055 293.151L973.281 287.444L970.458 281.807L967.502 276.077L964.482 270.414L961.285 264.585L957.971 258.742L954.595 252.946L951.187 247.274L947.76 241.727L944.192 236.118L940.502 230.479L936.677 224.802L932.691 219.056L928.574 213.294L924.192 207.348L919.769 201.533L915.224 195.736L910.803 190.245L906.257 184.757L901.669 179.371L896.801 173.819L891.806 168.277L886.523 162.585L881.065 156.897L875.406 151.191L869.763 145.68L864.11 140.34L858.493 135.2L852.79 130.144L847.129 125.272L841.474 120.562L835.865 116.026L830.058 111.474L824.245 107.051L818.321 102.674L812.595 98.5699L806.875 94.5857L801.208 90.7689L795.479 87.0146L789.723 83.352L784.031 79.8274L778.38 76.44L772.864 73.2198L767.266 70.043L761.746 66.9962L756.058 63.9564L750.467 61.0538L744.711 58.1501L739.057 55.3764L733.233 52.6158L727.516 49.9913L721.727 47.4112L716.011 44.9399L710.263 42.5381L704.483 40.2129L698.792 37.9916L693.115 35.8438L687.496 33.7857L681.826 31.8002L676.134 29.8762L670.425 28.0096L664.697 26.1964L658.943 24.4609L653.203 22.8049L647.515 21.2226L641.868 19.7078L636.232 18.2705L630.558 16.8998L624.866 15.5906L619.167 14.3318L613.455 13.1364L607.755 12.0096L602.075 10.9554L596.376 9.95355L590.701 9.01622L584.963 8.13635L579.297 7.33307L573.594 6.58926L567.933 5.90794L562.235 5.29112L556.549 4.73175L550.889 4.251L545.172 3.8166L539.464 3.45074L533.731 3.13024L528.097 2.88734L522.449 2.70895L516.799 2.59304L511.1 2.52652L505.401 2.52148L499.702 2.59405L494.003 2.73919L488.332 2.93774L482.95 3.16451L478.283 3.39632L474.361 3.63821L470.762 3.90429L466.626 4.25301L461.713 4.70655L456.263 5.26492L450.568 5.90794L444.899 6.61144L439.143 7.38548L433.452 8.219L427.718 9.12608L422.047 10.0886L416.335 11.1217L410.684 12.2092L405.028 13.3592L399.385 14.5746L393.728 15.8587L388.051 17.2213L382.425 18.6334L376.799 20.1149L371.135 21.6771L365.411 23.325L359.655 25.0535L353.92 26.8455L348.209 28.7081L342.519 30.6361L336.852 32.6297L331.243 34.6777L325.59 36.8194L319.925 39.0468L314.165 41.3841L308.419 43.798L302.699 46.2824L297.006 48.8393L291.355 51.4719L285.765 54.1619L280.1 56.9799L274.508 59.8262L268.819 62.7944L263.195 65.818L257.527 68.9726L251.876 72.2261L246.294 75.5218L240.678 78.9324L235.03 82.4671L229.326 86.172L223.654 89.9576L217.932 93.8933L212.193 97.947L206.377 102.194L200.611 106.531L194.903 110.948L189.245 115.445L183.686 120.008L178.118 124.732L172.419 129.714L166.683 134.868L160.967 140.166L155.484 145.417L150.121 150.704L146.333 154.484L143.202 157.658" stroke="url(&quot;#theme-accent-gradient-linear&quot;) rgb(149, 114, 55)" stroke-linecap="round" stroke-linejoin="round" stroke-width="45.0" fill="none"/><path d="M130.581 171.143L137.544 163.396" stroke="url(&quot;#theme-accent-gradient-linear&quot;) rgb(149, 114, 55)" stroke-linecap="round" stroke-linejoin="round" stroke-width="45.0" fill="none"/><path d="M143.203 157.659L137.545 163.396" stroke="url(&quot;#theme-accent-gradient-linear&quot;) rgb(149, 114, 55)" stroke-linecap="round" stroke-linejoin="round" stroke-width="45.0" fill="none"/></svg>