<svg xmlns="http://www.w3.org/2000/svg" width="1024" height="1024" viewBox="-44.83677387237549 -45 1113.224365234375 1113.522705078125" class="colorable-icon reset-top-left-margin" data-export-recolorable-svg="true" overflow="visible" xmlns:xlink="http://www.w3.org/1999/xlink" fill="rgb(0, 0, 0)" stroke="none"><g fill="none" stroke="url(&quot;#theme-accent-gradient-linear&quot;) rgb(149, 114, 55)" stroke-width="45" stroke-linecap="round" stroke-linejoin="round"><path d="M 3.66,882.73 C 1.07,870.68 0.07,858.51 0.17,759.76" data-line="nan" stroke-width="45.0" fill="none" stroke="url(&quot;#theme-accent-gradient-linear&quot;) rgb(149, 114, 55)"/><path d="M 0.21,64.37 C 1.5,48.21 4.92,35.71 11.28,23.94 L 23.09,10.47" data-line="nan" stroke-width="45.0" fill="none" stroke="url(&quot;#theme-accent-gradient-linear&quot;) rgb(149, 114, 55)"/><path d="M 744.01,8.12 C 731.33,2.59 719.06,0.33 620.45,0.0" data-line="nan" stroke-width="45.0" fill="none" stroke="url(&quot;#theme-accent-gradient-linear&quot;) rgb(149, 114, 55)"/><path d="M 54.02,0.23 C 45.93,1.28 37.97,3.55 23.09,10.47" data-line="nan" stroke-width="45.0" fill="none" stroke="url(&quot;#theme-accent-gradient-linear&quot;) rgb(149, 114, 55)"/><path d="M 892.26,992.31 C 869.69,1003.43 848.57,1011.44 825.33,1017.85 C 800.77,1022.16 781.26,1023.78 751.37,1023.49 C 726.77,1020.7 701.73,1015.29 678.89,1007.98 C 655.17,997.78 633.84,986.02 612.87,971.62 C 594.84,956.55 578.0,939.6 559.99,917.49 C 547.5,898.61 535.06,874.88 526.24,853.04 C 519.67,830.57 514.45,802.97 512.21,777.05 C 512.54,750.21 515.27,725.73 519.97,703.16 C 527.69,678.32 536.21,658.05 549.19,634.48 C 562.81,614.95 579.3,595.42 597.76,577.69 C 614.15,564.59 636.75,549.79 659.84,537.84 C 682.49,528.73 706.5,521.72 730.08,517.22 C 756.37,514.87 781.85,515.04 805.74,517.48 C 832.91,522.97 857.52,530.58 880.62,540.23 C 902.64,551.99 923.52,565.95 943.04,581.97 C 960.27,599.31 974.93,617.32 990.27,640.89 C 1002.53,665.3 1011.52,688.95 1018.18,713.6 C 1022.3,738.23 1023.95,762.13 1023.22,790.57 C 1019.96,815.83 1014.57,838.75 1006.77,862.11 C 996.84,884.25 984.26,906.21 970.62,925.41 C 953.75,944.98 937.15,960.86 915.1,978.07 L 892.26,992.31" data-line="nan" stroke-width="45.0" fill="none" stroke="url(&quot;#theme-accent-gradient-linear&quot;) rgb(149, 114, 55)"/><path d="M 3.66,882.73 C 4.968333607108774,886.7049999869589 6.816666386532986,890.8900000086438 9.52,895.15" data-line="1.0" stroke-width="45.0" fill="none" stroke="url(&quot;#theme-accent-gradient-linear&quot;) rgb(149, 114, 55)"/><path d="M 9.52,895.15 L 12.47,899.38" data-line="2.0" stroke-width="45.0" fill="none" stroke="url(&quot;#theme-accent-gradient-linear&quot;) rgb(149, 114, 55)"/><path d="M 12.47,899.38 L 15.92,903.49" data-line="3.0" stroke-width="45.0" fill="none" stroke="url(&quot;#theme-accent-gradient-linear&quot;) rgb(149, 114, 55)"/><path d="M 15.92,903.49 L 19.75,907.25" data-line="4.0" stroke-width="45.0" fill="none" stroke="url(&quot;#theme-accent-gradient-linear&quot;) rgb(149, 114, 55)"/><path d="M 19.75,907.25 L 23.77,910.53" data-line="5.0" stroke-width="45.0" fill="none" stroke="url(&quot;#theme-accent-gradient-linear&quot;) rgb(149, 114, 55)"/><path d="M 23.77,910.53 L 27.89,913.26" data-line="6.0" stroke-width="45.0" fill="none" stroke="url(&quot;#theme-accent-gradient-linear&quot;) rgb(149, 114, 55)"/><path d="M 27.89,913.26 L 486.93,921.58" data-line="7.0" stroke-width="45.0" fill="none" stroke="url(&quot;#theme-accent-gradient-linear&quot;) rgb(149, 114, 55)"/><path d="M 771.92,449.78 L 764.45,29.83" data-line="8.0" stroke-width="45.0" fill="none" stroke="url(&quot;#theme-accent-gradient-linear&quot;) rgb(149, 114, 55)"/><path d="M 764.45,29.83 L 762.01,25.59" data-line="9.0" stroke-width="45.0" fill="none" stroke="url(&quot;#theme-accent-gradient-linear&quot;) rgb(149, 114, 55)"/><path d="M 762.01,25.59 L 759.08,21.43" data-line="10.0" stroke-width="45.0" fill="none" stroke="url(&quot;#theme-accent-gradient-linear&quot;) rgb(149, 114, 55)"/><path d="M 759.08,21.43 L 755.66,17.47" data-line="11.0" stroke-width="45.0" fill="none" stroke="url(&quot;#theme-accent-gradient-linear&quot;) rgb(149, 114, 55)"/><path d="M 755.66,17.47 L 751.98,13.93" data-line="12.0" stroke-width="45.0" fill="none" stroke="url(&quot;#theme-accent-gradient-linear&quot;) rgb(149, 114, 55)"/><path d="M 751.98,13.93 L 748.06,10.79" data-line="13.0" stroke-width="45.0" fill="none" stroke="url(&quot;#theme-accent-gradient-linear&quot;) rgb(149, 114, 55)"/><path d="M 748.06,10.79 L 744.01,8.12" data-line="14.0" stroke-width="45.0" fill="none" stroke="url(&quot;#theme-accent-gradient-linear&quot;) rgb(149, 114, 55)"/><path d="M 140.6639370701733,228.42746464988522 A 47.4260274645619,47.4260274645619 0 0,1 223.14933633279128,228.79812124336186" data-line="18.0" stroke-width="45.0" fill="none" stroke="url(&quot;#theme-accent-gradient-linear&quot;) rgb(149, 114, 55)"/><path d="M 139.91525218496741,227.99451579791537 A 49.09582802366574,49.09582802366574 0 0,0 178.61348128394198,301.7091299764101" data-line="19.0" stroke-width="45.0" fill="none" stroke="url(&quot;#theme-accent-gradient-linear&quot;) rgb(149, 114, 55)"/><path d="M 178.59671032498332,301.85303396557464 A 49.385775983577034,49.385775983577034 0 0,0 223.72421767441273,228.47537040140938" data-line="20.0" stroke-width="45.0" fill="none" stroke="url(&quot;#theme-accent-gradient-linear&quot;) rgb(149, 114, 55)"/><path d="M 318.76,252.29 L 634.11,252.48" data-line="23.0" stroke-width="45.0" fill="none" stroke="url(&quot;#theme-accent-gradient-linear&quot;) rgb(149, 114, 55)"/><circle cx="181.5991247324041" cy="454.7228055909672" r="48.42940929135834" data-line="24.0" stroke-width="45.0" fill="none" stroke="url(&quot;#theme-accent-gradient-linear&quot;) rgb(149, 114, 55)"/><path d="M 225.66,475.01 L 227.64,471.19" data-line="25.0" stroke-width="45.0" fill="none" stroke="url(&quot;#theme-accent-gradient-linear&quot;) rgb(149, 114, 55)"/><path d="M 317.58,453.17 L 635.72,453.21" data-line="27.0" stroke-width="45.0" fill="none" stroke="url(&quot;#theme-accent-gradient-linear&quot;) rgb(149, 114, 55)"/><path d="M 158.64275714379175,613.3324700696705 A 48.36368374053557,48.36368374053557 0 0,0 201.22643658814513,700.1131098615496" data-line="28.0" stroke-width="45.0" fill="none" stroke="url(&quot;#theme-accent-gradient-linear&quot;) rgb(149, 114, 55)"/><path d="M 0.17,759.76 L 0.21,64.37" data-line="28.0" stroke-width="45.0" fill="none" stroke="url(&quot;#theme-accent-gradient-linear&quot;) rgb(149, 114, 55)"/><path d="M 158.59832325637487,613.2505735146439 A 47.77138977373723,47.77138977373723 0 0,1 225.99319122469063,637.432146711581" data-line="29.0" stroke-width="45.0" fill="none" stroke="url(&quot;#theme-accent-gradient-linear&quot;) rgb(149, 114, 55)"/><path d="M 226.4310266189071,637.2568534586297 A 48.48389584582028,48.48389584582028 0 0,1 201.1591002002473,699.9586335304227" data-line="30.0" stroke-width="45.0" fill="none" stroke="url(&quot;#theme-accent-gradient-linear&quot;) rgb(149, 114, 55)"/><path d="M 620.45,0.0 L 54.02,0.23" data-line="31.0" stroke-width="45.0" fill="none" stroke="url(&quot;#theme-accent-gradient-linear&quot;) rgb(149, 114, 55)"/><path d="M 317.58,655.56 L 467.87,655.58" data-line="33.0" stroke-width="45.0" fill="none" stroke="url(&quot;#theme-accent-gradient-linear&quot;) rgb(149, 114, 55)"/><path d="M 921.2,664.12 L 723.54,861.88" data-line="34.0" stroke-width="45.0" fill="none" stroke="url(&quot;#theme-accent-gradient-linear&quot;) rgb(149, 114, 55)"/><path d="M 622.98,762.14 L 723.54,861.88" data-line="35.0" stroke-width="45.0" fill="none" stroke="url(&quot;#theme-accent-gradient-linear&quot;) rgb(149, 114, 55)"/></g></svg>