<svg xmlns="http://www.w3.org/2000/svg" width="1024" height="1024" viewBox="-39.522743225097656 26.178001403808594 1104.5227661132812 971.5490112304688" class="colorable-icon reset-top-left-margin" data-export-recolorable-svg="true" overflow="visible" xmlns:xlink="http://www.w3.org/1999/xlink" fill="rgb(255, 255, 255)" stroke="none"><g fill="none" stroke="rgb(255, 255, 255)" stroke-width="45" stroke-linecap="round" stroke-linejoin="round"><path d="M 827.804,366.05 C 835.966,371.455 853.341,378.443 871.89,387.413 C 901.062,404.946 915.219,415.164 930.165,427.394 C 955.018,451.728 967.453,466.397 978.78,481.748 C 988.937,497.358 998.233,514.021 1010.674,542.11 Q 1017.996,571.411 1020.0,576.075" data-line="nan" stroke-width="45.0" fill="none" stroke="rgb(255, 255, 255)"/><path d="M 828.073,937.853 C 783.856,928.522 762.023,922.34 740.055,913.367 C 717.736,901.024 696.855,885.639 676.953,866.766 C 659.307,845.069 645.331,822.812 633.343,797.175 C 624.44,769.802 618.909,740.713 617.105,723.249 C 616.77,710.64 618.382,682.594 623.85,653.464 C 632.47,625.594 644.42,598.835 659.647,573.467 C 677.207,550.884 696.484,531.407 719.303,513.633 C 742.095,500.089 767.646,488.981 794.077,481.325 C 820.851,477.387 835.318,476.844 854.133,477.559 C 875.985,480.601 903.551,487.805 926.481,497.092 C 948.364,508.957 971.039,524.837 1017.541,569.59" data-line="nan" stroke-width="45.0" fill="none" stroke="rgb(255, 255, 255)"/><path d="M 828.073,937.853 C 777.919,948.811 755.07,951.647 738.441,952.727 C 725.852,952.594 701.086,950.648 684.441,948.22 C 666.957,944.443 647.11,938.706 628.162,931.817 C 607.859,922.977 590.592,914.113 572.275,903.248 Q 552.327,889.67 513.874,858.717" data-line="nan" stroke-width="45.0" fill="none" stroke="rgb(255, 255, 255)"/><path d="M 204.562,939.096 C 250.315,926.419 269.701,919.895 290.879,910.318 C 312.16,897.674 333.137,881.497 352.711,861.931 C 368.834,841.223 382.809,818.04 389.957,803.134 C 395.05,790.354 403.124,763.511 407.561,738.535 C 409.801,707.032 407.175,678.296 402.394,654.181 C 394.578,629.23 382.292,601.512 366.806,575.569 C 349.412,552.89 331.22,534.305 309.945,517.202 C 287.133,502.864 260.597,490.584 232.883,482.067 C 206.101,477.799 175.292,477.169 152.202,479.791 C 127.111,485.724 101.997,495.18 78.994,507.246 C 56.684,522.567 40.106,536.893 10.918,566.34" data-line="nan" stroke-width="45.0" fill="none" stroke="rgb(255, 255, 255)"/><path d="M 284.963,71.964 C 246.781,119.347 230.133,144.222 220.895,160.9 C 213.201,177.159 206.622,193.604 201.13,210.235 C 195.871,230.752 192.851,247.384 190.558,267.954 C 189.739,284.456 190.054,305.226 191.744,325.755 L 198.831,367.811" data-line="nan" stroke-width="45.0" fill="none" stroke="rgb(255, 255, 255)"/><path d="M 738.073,77.829 C 752.07,115.112 757.968,136.807 762.533,166.085 C 763.0,192.85 761.838,207.19 759.402,223.152 C 752.351,251.227 747.082,266.054 740.665,280.773 C 734.027,293.545 726.12,306.477 707.761,331.061 C 682.893,356.1 661.329,373.257 635.53,389.107 C 607.629,401.961 591.138,407.788 575.579,412.209 C 546.417,417.945 514.897,420.391 482.643,418.77 C 452.846,413.503 422.496,404.554 391.976,391.401 C 377.491,383.406 364.877,375.322 352.453,366.231 C 335.871,352.583 320.218,336.705 300.739,311.74 C 285.123,285.245 273.8,258.86 268.975,243.635 C 265.645,229.88 261.778,201.705 261.367,172.524 C 262.418,159.152 264.747,143.859 271.289,117.941 L 284.327,81.715" data-line="nan" stroke-width="45.0" fill="none" stroke="rgb(255, 255, 255)"/><path d="M 827.804,366.05 L 832.56,246.822" data-line="0.0" stroke-width="45.0" fill="none" stroke="rgb(255, 255, 255)"/><path d="M 974.899,527.968 L 1017.217,568.292" data-line="3.0" stroke-width="45.0" fill="none" stroke="rgb(255, 255, 255)"/><path d="M 512.9065297967694,857.7465076335457 A 331.7640427529341,331.7640427529341 0 0,1 321.2174699903108,951.8141079340205" data-line="5.0" stroke-width="45.0" fill="none" stroke="rgb(255, 255, 255)"/><path d="M 198.831,367.811 C 154.4510888055313,384.2235706817996 123.27635775802946,401.37439471560924 84.42,436.88" data-line="7.0" stroke-width="45.0" fill="none" stroke="rgb(255, 255, 255)"/><path d="M 284.579,81.447 L 293.023,71.178" data-line="11.0" stroke-width="45.0" fill="none" stroke="rgb(255, 255, 255)"/><path d="M 284.579,81.447 L 284.327,81.715" data-line="19.0" stroke-width="45.0" fill="none" stroke="rgb(255, 255, 255)"/><path d="M 389.4347633962153,288.01092188449775 A 255.12873744674383,255.12873744674383 0 0,1 632.6103108488943,286.8703969948207" data-line="26.0" stroke-width="45.0" fill="none" stroke="rgb(255, 255, 255)"/><circle cx="512.8095788360125" cy="559.5220271029643" r="68.96602340032166" data-line="27.0" stroke-width="45.0" fill="none" stroke="rgb(255, 255, 255)"/><path d="M 457.208,518.287 L 460.977,512.751" data-line="28.0" stroke-width="45.0" fill="none" stroke="rgb(255, 255, 255)"/><path d="M 228.62683100780623,579.3095598359303 A 275.68496566397977,275.68496566397977 0 0,0 319.31860000469953,759.2900937608617" data-line="30.0" stroke-width="45.0" fill="none" stroke="rgb(255, 255, 255)"/><path d="M 707.3694053576687,757.9984101633659 A 272.3385801909106,272.3385801909106 0 0,0 797.6092680621618,576.6971301792083" data-line="31.0" stroke-width="45.0" fill="none" stroke="rgb(255, 255, 255)"/><path d="M 832.3550816830852,246.8522937697302 A 275.11531430524786,275.11531430524786 0 0,0 734.6981314726195,74.39393661770941" data-line="32.0" stroke-width="45.0" fill="none" stroke="rgb(255, 255, 255)"/><path d="M 321.132,951.153 L 204.562,939.096" data-line="33.0" stroke-width="45.0" fill="none" stroke="rgb(255, 255, 255)"/><path d="M 84.45583835388064,436.9180272448019 A 264.9591992996079,264.9591992996079 0 0,0 5.4772565102325075,582.4300791002613" data-line="34.0" stroke-width="45.0" fill="none" stroke="rgb(255, 255, 255)"/></g></svg>