<svg xmlns="http://www.w3.org/2000/svg" width="1024" height="1024" viewBox="13.641998291015625 -41 996.6650390625 1106" class="colorable-icon reset-top-left-margin" data-export-recolorable-svg="true" overflow="visible" xmlns:xlink="http://www.w3.org/1999/xlink" fill="rgb(255, 255, 255)" stroke="none"><g fill="none" stroke="rgb(255, 255, 255)" stroke-width="45" stroke-linecap="round" stroke-linejoin="round"><path d="M 92.565,1020.0 C 93.044,961.625 95.011,945.95 98.801,930.195 C 105.548,912.047 113.814,896.201 126.038,878.703 C 138.126,865.561 151.174,854.516 165.861,844.843 C 184.311,835.796 200.02,830.529 215.814,827.166 Q 231.427,825.613 294.46,825.498" data-line="nan" stroke-width="45.0" fill="none" stroke="rgb(255, 255, 255)"/><path d="M 118.142,309.572 C 106.514,311.415 95.704,314.893 84.559,321.252 C 77.164,327.429 69.55,336.423 63.38,347.407 Q 59.941,357.913 58.696,370.527" data-line="nan" stroke-width="45.0" fill="none" stroke="rgb(255, 255, 255)"/><path d="M 58.642,512.329 C 60.13,523.042 63.647,533.491 69.192,543.592 C 77.988,553.915 87.741,561.447 96.915,566.517 Q 107.104,570.266 118.209,572.346" data-line="nan" stroke-width="45.0" fill="none" stroke="rgb(255, 255, 255)"/><path d="M 906.21,309.364 C 917.732,310.515 928.216,313.501 939.088,319.275 C 947.272,326.04 954.17,334.201 960.593,346.091 Q 963.776,355.536 965.293,366.102" data-line="nan" stroke-width="45.0" fill="none" stroke="rgb(255, 255, 255)"/><path d="M 965.307,510.616 C 964.107,521.167 960.863,531.842 954.869,543.364 C 948.187,551.754 939.276,559.52 926.767,566.828 Q 918.144,569.943 906.157,572.285" data-line="nan" stroke-width="45.0" fill="none" stroke="rgb(255, 255, 255)"/><path d="M 748.667,730.114 C 761.944,729.759 772.454,728.26 786.136,724.641 C 798.662,719.648 809.522,713.785 821.548,705.312 C 831.12,696.931 842.312,684.431 848.923,674.826 C 854.798,664.156 859.573,652.618 863.761,638.047 Q 866.504,617.415 866.658,575.393" data-line="nan" stroke-width="45.0" fill="none" stroke="rgb(255, 255, 255)"/><path d="M 866.645,275.986 C 866.173,263.009 864.541,251.71 860.913,237.902 C 855.151,223.08 848.249,210.496 840.747,199.804 C 831.719,189.525 823.4,181.936 810.833,172.739 C 801.524,167.449 787.266,161.341 775.057,157.797 Q 755.651,154.967 716.43,154.869" data-line="nan" stroke-width="45.0" fill="none" stroke="rgb(255, 255, 255)"/><path d="M 282.563,154.873 C 266.961,155.153 251.205,157.203 237.783,160.771 C 225.433,165.801 209.849,174.63 199.808,182.252 C 190.08,191.624 181.637,201.864 174.978,212.012 C 167.41,227.352 163.741,237.713 160.056,253.219 Q 158.137,273.875 158.032,326.403" data-line="nan" stroke-width="45.0" fill="none" stroke="rgb(255, 255, 255)"/><path d="M 158.046,599.546 C 158.847,620.426 161.125,635.833 165.419,651.389 C 169.627,661.706 178.589,677.591 186.38,687.941 C 200.636,702.412 211.132,710.491 221.712,717.012 C 232.073,721.944 242.539,725.672 258.187,729.054 Q 273.809,730.059 355.696,730.172" data-line="nan" stroke-width="45.0" fill="none" stroke="rgb(255, 255, 255)"/><path d="M 785.436,825.646 C 806.409,826.531 819.615,828.534 835.526,832.958 C 851.269,839.538 867.187,848.716 880.403,858.629 C 893.998,871.758 904.509,884.765 913.258,898.47 C 919.733,911.412 925.392,926.53 929.048,941.602 Q 931.142,961.485 931.166,1020.0" data-line="nan" stroke-width="45.0" fill="none" stroke="rgb(255, 255, 255)"/><path d="M 355.696,730.172 L 748.667,730.114" data-line="0.0" stroke-width="45.0" fill="none" stroke="rgb(255, 255, 255)"/><path d="M 667.81,825.559 L 667.799,730.262" data-line="1.0" stroke-width="45.0" fill="none" stroke="rgb(255, 255, 255)"/><path d="M 353.647,825.549 L 353.613,730.168" data-line="3.0" stroke-width="45.0" fill="none" stroke="rgb(255, 255, 255)"/><path d="M 512.268,154.85 L 512.397,4.0" data-line="4.0" stroke-width="45.0" fill="none" stroke="rgb(255, 255, 255)"/><circle cx="345.7196839951168" cy="384.1340896838986" r="74.06753011659079" data-line="11.0" stroke-width="45.0" fill="none" stroke="rgb(255, 255, 255)"/><circle cx="678.5658836723708" cy="384.1574436795112" r="74.17955075450261" data-line="13.0" stroke-width="45.0" fill="none" stroke="rgb(255, 255, 255)"/><path d="M 58.696,370.527 L 58.642,512.329" data-line="15.0" stroke-width="45.0" fill="none" stroke="rgb(255, 255, 255)"/><path d="M 334.856,604.339 L 386.102,604.266" data-line="16.0" stroke-width="45.0" fill="none" stroke="rgb(255, 255, 255)"/><path d="M 487.186,604.264 L 538.431,604.322" data-line="17.0" stroke-width="45.0" fill="none" stroke="rgb(255, 255, 255)"/><path d="M 965.293,366.102 L 965.307,510.616" data-line="18.0" stroke-width="45.0" fill="none" stroke="rgb(255, 255, 255)"/><path d="M 636.552,604.511 L 685.508,604.221" data-line="18.0" stroke-width="45.0" fill="none" stroke="rgb(255, 255, 255)"/><path d="M 866.658,575.393 L 866.645,275.986" data-line="20.0" stroke-width="45.0" fill="none" stroke="rgb(255, 255, 255)"/><path d="M 716.43,154.869 L 282.563,154.873" data-line="22.0" stroke-width="45.0" fill="none" stroke="rgb(255, 255, 255)"/><path d="M 158.032,326.403 L 158.046,599.546" data-line="24.0" stroke-width="45.0" fill="none" stroke="rgb(255, 255, 255)"/><path d="M 294.46,825.498 L 785.436,825.646" data-line="26.0" stroke-width="45.0" fill="none" stroke="rgb(255, 255, 255)"/></g></svg>