<svg xmlns="http://www.w3.org/2000/svg" width="1024" height="1024" viewBox="62.805564880371094 -41.52662992477417 897.75146484375 1106.439697265625" class="colorable-icon reset-top-left-margin" data-export-recolorable-svg="true" overflow="visible" xmlns:xlink="http://www.w3.org/1999/xlink" fill="rgb(255, 255, 255)" stroke="none"><g fill="none" stroke="rgb(255, 255, 255)" stroke-width="45" stroke-linecap="round" stroke-linejoin="round"><path d="M 756.876,238.544 C 747.612,238.198 738.744,236.7 723.469,231.484 C 712.612,225.14 706.585,220.51 695.038,208.337 C 686.678,193.847 682.025,179.905 680.392,167.124 L 679.905,138.65" data-line="nan" stroke-width="45.0" fill="none" stroke="rgb(255, 255, 255)"/><path d="M 915.557,950.854 C 914.667,969.564 911.191,983.997 906.005,993.82 C 902.295,998.525 893.322,1006.874 883.594,1013.039 C 869.034,1018.09 859.696,1019.179 831.794,1019.604" data-line="nan" stroke-width="45.0" fill="none" stroke="rgb(255, 255, 255)"/><path d="M 174.626,1019.913 C 155.944,1018.856 142.053,1015.03 132.689,1009.646 C 128.12,1005.967 119.906,997.084 114.03,987.712 C 109.468,973.837 108.455,964.704 108.014,936.875" data-line="nan" stroke-width="45.0" fill="none" stroke="rgb(255, 255, 255)"/><path d="M 913.805,237.68 L 682.234,9.271" data-line="0.0" stroke-width="45.0" fill="none" stroke="rgb(255, 255, 255)"/><path d="M 913.805,237.68 L 756.876,238.544" data-line="1.0" stroke-width="45.0" fill="none" stroke="rgb(255, 255, 255)"/><path d="M 913.805,237.68 L 915.557,950.854" data-line="2.0" stroke-width="45.0" fill="none" stroke="rgb(255, 255, 255)"/><path d="M 266.323,386.684 L 757.403,385.485" data-line="6.0" stroke-width="45.0" fill="none" stroke="rgb(255, 255, 255)"/><path d="M 261.392,536.153 L 757.403,535.742" data-line="7.0" stroke-width="45.0" fill="none" stroke="rgb(255, 255, 255)"/><path d="M 261.87,685.457 L 757.403,685.561" data-line="8.0" stroke-width="45.0" fill="none" stroke="rgb(255, 255, 255)"/><path d="M 260.316,833.712 L 574.08,833.963" data-line="9.0" stroke-width="45.0" fill="none" stroke="rgb(255, 255, 255)"/><path d="M 679.905,138.65 L 682.234,9.271" data-line="11.0" stroke-width="45.0" fill="none" stroke="rgb(255, 255, 255)"/><path d="M 831.794,1019.604 L 174.626,1019.913" data-line="13.0" stroke-width="45.0" fill="none" stroke="rgb(255, 255, 255)"/><path d="M 108.014,936.875 L 108.018,69.973" data-line="15.0" stroke-width="45.0" fill="none" stroke="rgb(255, 255, 255)"/><path d="M 108.12656266895796,69.96175083788653 A 60.27590131800288,60.27590131800288 0 0,1 181.80452398887888,5.056336113733849" data-line="16.0" stroke-width="45.0" fill="none" stroke="rgb(255, 255, 255)"/><path d="M 182.048,4.015 L 682.234,9.271" data-line="17.0" stroke-width="45.0" fill="none" stroke="rgb(255, 255, 255)"/></g></svg>