<svg xmlns="http://www.w3.org/2000/svg" width="1024" height="1024" viewBox="60.52799987792969 -40.66417932510376 903.4619750976562 1104.4942016601562" class="colorable-icon reset-top-left-margin" data-export-recolorable-svg="true" overflow="visible" xmlns:xlink="http://www.w3.org/1999/xlink" fill="rgb(255, 255, 255)" stroke="none"><g fill="none" stroke="rgb(255, 255, 255)" stroke-width="45" stroke-linecap="round" stroke-linejoin="round"><path d="M 800.518,450.041 C 792.005,475.148 783.301,490.545 777.581,497.553 C 769.377,505.182 761.155,510.976 751.774,515.803 C 736.257,520.975 718.474,523.665 690.179,525.668 L 623.612,525.904" data-line="nan" stroke-width="45.0" fill="none" stroke="rgb(255, 255, 255)"/><path d="M 727.622,274.554 C 732.784,295.727 736.457,319.336 737.046,337.263 C 736.706,371.273 734.804,393.686 731.455,415.666 Q 727.67,432.53 720.555,458.156" data-line="nan" stroke-width="45.0" fill="none" stroke="rgb(255, 255, 255)"/><path d="M 299.475,449.025 C 292.861,420.445 289.66,401.777 287.446,379.707 C 286.496,353.381 286.385,331.338 287.287,317.055 Q 290.854,295.998 295.855,274.557" data-line="nan" stroke-width="45.0" fill="none" stroke="rgb(255, 255, 255)"/><path d="M 212.532,274.911 C 201.091,275.926 191.224,278.929 183.593,282.895 C 176.387,288.889 171.378,294.742 166.307,304.69 Q 163.525,314.527 162.76,324.622" data-line="nan" stroke-width="45.0" fill="none" stroke="rgb(255, 255, 255)"/><path d="M 162.909,405.215 C 163.637,411.442 166.098,420.483 169.244,427.14 L 173.656,433.434" data-line="nan" stroke-width="45.0" fill="none" stroke="rgb(255, 255, 255)"/><path d="M 173.656,433.434 C 180.619,439.969 185.261,443.182 193.735,446.883 Q 201.318,448.66 299.475,449.025" data-line="nan" stroke-width="45.0" fill="none" stroke="rgb(255, 255, 255)"/><path d="M 690.179,525.668 C 666.63,556.777 655.968,568.895 645.772,579.013 C 633.762,589.162 619.496,599.451 596.022,612.684 C 581.203,619.032 566.675,623.936 550.703,627.952 C 536.377,630.358 522.331,631.656 506.218,631.879 C 491.91,630.893 475.863,628.395 462.383,625.171 C 446.867,620.12 433.525,614.636 418.563,607.052 C 405.501,599.085 393.584,590.644 381.697,580.875 C 369.663,569.489 349.49,546.501 332.731,521.693 Q 315.572,488.846 299.475,449.025" data-line="nan" stroke-width="45.0" fill="none" stroke="rgb(255, 255, 255)"/><path d="M 665.823,660.724 C 644.728,688.823 620.987,717.192 601.994,737.349 C 581.497,756.108 561.177,771.322 544.558,780.905 C 528.212,787.07 520.055,788.84 511.912,789.43 C 503.682,788.712 495.38,786.888 479.277,780.498 C 459.174,768.291 439.063,752.829 422.85,738.16 C 404.415,718.644 383.821,694.443 358.551,661.812" data-line="nan" stroke-width="45.0" fill="none" stroke="rgb(255, 255, 255)"/><path d="M 112.254,855.598 C 113.714,839.489 115.68,827.634 118.464,816.301 C 122.689,803.641 127.824,791.808 134.426,779.719 C 142.69,767.619 149.282,759.581 156.623,751.832 C 168.637,741.298 188.887,728.223 208.969,718.176 L 253.15,700.722" data-line="nan" stroke-width="45.0" fill="none" stroke="rgb(255, 255, 255)"/><path d="M 911.803,852.789 C 908.095,824.464 904.99,812.375 900.839,800.549 C 895.308,788.454 888.192,776.085 879.557,764.085 C 872.7,756.14 856.852,741.33 848.751,735.159 C 836.555,727.391 816.672,717.686 776.21,701.823" data-line="nan" stroke-width="45.0" fill="none" stroke="rgb(255, 255, 255)"/><path d="M 602.429,507.73 L 621.682,525.911" data-line="0.0" stroke-width="45.0" fill="none" stroke="rgb(255, 255, 255)"/><path d="M 602.429,507.73 L 600.065,506.292" data-line="1.0" stroke-width="45.0" fill="none" stroke="rgb(255, 255, 255)"/><path d="M 600.0649999995767,506.2920000008982 A 42.21099518349369,42.21099518349369 0 0,0 594.4429999996845,504.11800000102886" data-line="2.0" stroke-width="45.0" fill="none" stroke="rgb(255, 255, 255)"/><path d="M 594.443,504.118 L 541.609,503.065" data-line="3.0" stroke-width="45.0" fill="none" stroke="rgb(255, 255, 255)"/><path d="M 541.609,503.065 L 538.01,503.914" data-line="4.0" stroke-width="45.0" fill="none" stroke="rgb(255, 255, 255)"/><path d="M 538.01,503.914 L 534.332,505.396" data-line="5.0" stroke-width="45.0" fill="none" stroke="rgb(255, 255, 255)"/><path d="M 534.332,505.396 L 530.541,507.676" data-line="6.0" stroke-width="45.0" fill="none" stroke="rgb(255, 255, 255)"/><path d="M 530.541,507.676 L 527.117,510.688" data-line="7.0" stroke-width="45.0" fill="none" stroke="rgb(255, 255, 255)"/><path d="M 527.117,510.688 L 524.0,514.292" data-line="8.0" stroke-width="45.0" fill="none" stroke="rgb(255, 255, 255)"/><path d="M 524.0,514.292 L 521.604,518.25" data-line="9.0" stroke-width="45.0" fill="none" stroke="rgb(255, 255, 255)"/><path d="M 521.604,518.25 L 519.903,522.345" data-line="10.0" stroke-width="45.0" fill="none" stroke="rgb(255, 255, 255)"/><path d="M 519.903,522.345 L 519.0,526.396" data-line="11.0" stroke-width="45.0" fill="none" stroke="rgb(255, 255, 255)"/><path d="M 519.0,526.396 L 518.746,530.431" data-line="12.0" stroke-width="45.0" fill="none" stroke="rgb(255, 255, 255)"/><path d="M 518.746,530.431 L 519.231,534.5" data-line="13.0" stroke-width="45.0" fill="none" stroke="rgb(255, 255, 255)"/><path d="M 519.231,534.5 L 520.392,538.671" data-line="14.0" stroke-width="45.0" fill="none" stroke="rgb(255, 255, 255)"/><path d="M 520.392,538.671 L 522.445,542.919" data-line="15.0" stroke-width="45.0" fill="none" stroke="rgb(255, 255, 255)"/><path d="M 522.445,542.919 L 525.283,546.971" data-line="16.0" stroke-width="45.0" fill="none" stroke="rgb(255, 255, 255)"/><path d="M 525.283,546.971 L 528.917,550.637" data-line="17.0" stroke-width="45.0" fill="none" stroke="rgb(255, 255, 255)"/><path d="M 528.917,550.637 L 532.945,553.504" data-line="18.0" stroke-width="45.0" fill="none" stroke="rgb(255, 255, 255)"/><path d="M 532.945,553.504 L 537.193,555.569" data-line="19.0" stroke-width="45.0" fill="none" stroke="rgb(255, 255, 255)"/><path d="M 537.193,555.569 L 541.371,556.778" data-line="20.0" stroke-width="45.0" fill="none" stroke="rgb(255, 255, 255)"/><path d="M 541.371,556.778 L 545.482,557.43" data-line="21.0" stroke-width="45.0" fill="none" stroke="rgb(255, 255, 255)"/><path d="M 545.482,557.43 L 589.952,557.318" data-line="22.0" stroke-width="45.0" fill="none" stroke="rgb(255, 255, 255)"/><path d="M 589.952,557.318 L 594.239,556.378" data-line="23.0" stroke-width="45.0" fill="none" stroke="rgb(255, 255, 255)"/><path d="M 594.239,556.378 L 598.523,554.658" data-line="24.0" stroke-width="45.0" fill="none" stroke="rgb(255, 255, 255)"/><path d="M 598.523,554.658 L 602.831,552.022" data-line="25.0" stroke-width="45.0" fill="none" stroke="rgb(255, 255, 255)"/><path d="M 602.8309999999185,552.0219999998993 A 55.33854108743671,55.33854108743671 0 0,0 609.1699999998998,546.0099999999098" data-line="26.0" stroke-width="45.0" fill="none" stroke="rgb(255, 255, 255)"/><path d="M 609.17,546.01 L 622.817,527.011" data-line="27.0" stroke-width="45.0" fill="none" stroke="rgb(255, 255, 255)"/><path d="M 831.917,446.66 L 722.992,449.378" data-line="28.0" stroke-width="45.0" fill="none" stroke="rgb(255, 255, 255)"/><path d="M 690.179,525.668 L 720.555,458.156" data-line="30.0" stroke-width="45.0" fill="none" stroke="rgb(255, 255, 255)"/><path d="M 831.917,446.66 L 836.067,444.776" data-line="31.0" stroke-width="45.0" fill="none" stroke="rgb(255, 255, 255)"/><path d="M 836.067,444.776 L 840.177,442.361" data-line="32.0" stroke-width="45.0" fill="none" stroke="rgb(255, 255, 255)"/><path d="M 840.177,442.361 L 844.093,439.362" data-line="33.0" stroke-width="45.0" fill="none" stroke="rgb(255, 255, 255)"/><path d="M 844.093,439.362 L 847.794,435.879" data-line="34.0" stroke-width="45.0" fill="none" stroke="rgb(255, 255, 255)"/><path d="M 847.794,435.879 L 851.145,431.926" data-line="35.0" stroke-width="45.0" fill="none" stroke="rgb(255, 255, 255)"/><path d="M 851.145,431.926 L 853.981,427.787" data-line="36.0" stroke-width="45.0" fill="none" stroke="rgb(255, 255, 255)"/><path d="M 853.981,427.787 L 856.271,423.531" data-line="37.0" stroke-width="45.0" fill="none" stroke="rgb(255, 255, 255)"/><path d="M 856.271,423.531 L 858.0,419.355" data-line="38.0" stroke-width="45.0" fill="none" stroke="rgb(255, 255, 255)"/><path d="M 858.0,419.355 L 858.245,306.056" data-line="39.0" stroke-width="45.0" fill="none" stroke="rgb(255, 255, 255)"/><path d="M 858.245,306.056 L 856.586,301.994" data-line="40.0" stroke-width="45.0" fill="none" stroke="rgb(255, 255, 255)"/><path d="M 856.586,301.994 L 854.377,297.8" data-line="41.0" stroke-width="45.0" fill="none" stroke="rgb(255, 255, 255)"/><path d="M 854.377,297.8 L 851.547,293.612" data-line="42.0" stroke-width="45.0" fill="none" stroke="rgb(255, 255, 255)"/><path d="M 851.547,293.612 L 848.122,289.549" data-line="43.0" stroke-width="45.0" fill="none" stroke="rgb(255, 255, 255)"/><path d="M 848.122,289.549 L 844.154,285.871" data-line="44.0" stroke-width="45.0" fill="none" stroke="rgb(255, 255, 255)"/><path d="M 844.154,285.871 L 839.986,282.779" data-line="45.0" stroke-width="45.0" fill="none" stroke="rgb(255, 255, 255)"/><path d="M 839.986,282.779 L 835.665,280.279" data-line="46.0" stroke-width="45.0" fill="none" stroke="rgb(255, 255, 255)"/><path d="M 835.665,280.279 L 831.532,278.4" data-line="47.0" stroke-width="45.0" fill="none" stroke="rgb(255, 255, 255)"/><path d="M 831.532,278.4 L 827.406,277.005" data-line="48.0" stroke-width="45.0" fill="none" stroke="rgb(255, 255, 255)"/><path d="M 827.406,277.005 L 802.449,274.217" data-line="49.0" stroke-width="45.0" fill="none" stroke="rgb(255, 255, 255)"/><path d="M 802.449,274.217 L 727.622,274.554" data-line="51.0" stroke-width="45.0" fill="none" stroke="rgb(255, 255, 255)"/><path d="M 295.855,274.557 L 212.532,274.911" data-line="52.0" stroke-width="45.0" fill="none" stroke="rgb(255, 255, 255)"/><path d="M 726.3218911795864,274.9102448013766 A 222.45867386938824,222.45867386938824 0 0,0 297.21652901482616,274.9299402762992" data-line="56.0" stroke-width="45.0" fill="none" stroke="rgb(255, 255, 255)"/><path d="M 802.3061211784745,274.22753771138184 A 291.3189849808901,291.3189849808901 0 0,0 221.21880273780067,274.6042074547889" data-line="59.0" stroke-width="45.0" fill="none" stroke="rgb(255, 255, 255)"/><path d="M 105.528,988.177 L 112.254,855.598" data-line="72.0" stroke-width="45.0" fill="none" stroke="rgb(255, 255, 255)"/><path d="M 105.528,988.177 L 106.525,992.066" data-line="73.0" stroke-width="45.0" fill="none" stroke="rgb(255, 255, 255)"/><path d="M 106.525,992.066 L 108.046,996.08" data-line="74.0" stroke-width="45.0" fill="none" stroke="rgb(255, 255, 255)"/><path d="M 108.046,996.08 L 110.146,1000.198" data-line="75.0" stroke-width="45.0" fill="none" stroke="rgb(255, 255, 255)"/><path d="M 110.146,1000.198 L 112.852,1004.34" data-line="76.0" stroke-width="45.0" fill="none" stroke="rgb(255, 255, 255)"/><path d="M 112.852,1004.34 L 116.032,1008.112" data-line="77.0" stroke-width="45.0" fill="none" stroke="rgb(255, 255, 255)"/><path d="M 116.032,1008.112 L 119.632,1011.433" data-line="78.0" stroke-width="45.0" fill="none" stroke="rgb(255, 255, 255)"/><path d="M 119.632,1011.433 L 123.52,1014.122" data-line="79.0" stroke-width="45.0" fill="none" stroke="rgb(255, 255, 255)"/><path d="M 123.52,1014.122 L 127.612,1016.245" data-line="80.0" stroke-width="45.0" fill="none" stroke="rgb(255, 255, 255)"/><path d="M 127.612,1016.245 L 131.71,1017.791" data-line="81.0" stroke-width="45.0" fill="none" stroke="rgb(255, 255, 255)"/><path d="M 131.71,1017.791 L 135.812,1018.83" data-line="82.0" stroke-width="45.0" fill="none" stroke="rgb(255, 255, 255)"/><path d="M 162.76,324.622 L 162.909,405.215" data-line="82.0" stroke-width="45.0" fill="none" stroke="rgb(255, 255, 255)"/><path d="M 135.812,1018.83 L 889.442,1018.428" data-line="83.0" stroke-width="45.0" fill="none" stroke="rgb(255, 255, 255)"/><path d="M 889.442,1018.428 L 893.565,1017.312" data-line="84.0" stroke-width="45.0" fill="none" stroke="rgb(255, 255, 255)"/><path d="M 893.565,1017.312 L 897.805,1015.601" data-line="85.0" stroke-width="45.0" fill="none" stroke="rgb(255, 255, 255)"/><path d="M 897.805,1015.601 L 901.996,1013.187" data-line="86.0" stroke-width="45.0" fill="none" stroke="rgb(255, 255, 255)"/><path d="M 901.996,1013.187 L 906.014,1010.112" data-line="87.0" stroke-width="45.0" fill="none" stroke="rgb(255, 255, 255)"/><path d="M 906.014,1010.112 L 909.682,1006.448" data-line="88.0" stroke-width="45.0" fill="none" stroke="rgb(255, 255, 255)"/><path d="M 909.682,1006.448 L 912.766,1002.436" data-line="89.0" stroke-width="45.0" fill="none" stroke="rgb(255, 255, 255)"/><path d="M 912.766,1002.436 L 915.23,998.253" data-line="90.0" stroke-width="45.0" fill="none" stroke="rgb(255, 255, 255)"/><path d="M 915.23,998.253 L 917.022,994.035" data-line="91.0" stroke-width="45.0" fill="none" stroke="rgb(255, 255, 255)"/><path d="M 917.022,994.035 L 918.251,989.9" data-line="92.0" stroke-width="45.0" fill="none" stroke="rgb(255, 255, 255)"/><path d="M 918.251,989.9 L 918.99,985.804" data-line="93.0" stroke-width="45.0" fill="none" stroke="rgb(255, 255, 255)"/><path d="M 918.99,985.804 L 911.803,852.789" data-line="94.0" stroke-width="45.0" fill="none" stroke="rgb(255, 255, 255)"/><path d="M 253.15,700.722 L 358.551,661.812" data-line="97.0" stroke-width="45.0" fill="none" stroke="rgb(255, 255, 255)"/><path d="M 776.21,701.823 L 665.823,660.724" data-line="99.0" stroke-width="45.0" fill="none" stroke="rgb(255, 255, 255)"/></g></svg>