<svg xmlns="http://www.w3.org/2000/svg" width="1024" height="1024" viewBox="150.7729949951172 -41 721.6195678710938 1106" class="colorable-icon reset-top-left-margin" data-export-recolorable-svg="true" overflow="visible" xmlns:xlink="http://www.w3.org/1999/xlink" fill="rgb(255, 255, 255)" stroke="none"><g fill="none" stroke="rgb(255, 255, 255)" stroke-width="45" stroke-linecap="round" stroke-linejoin="round"><path d="M 195.773,1020.0 C 213.63,961.504 228.755,917.966 252.06,856.546 C 284.926,775.211 334.255,672.309 358.442,626.073 Q 396.388,558.388 434.621,494.712" data-line="nan" stroke-width="45.0" fill="none" stroke="rgb(255, 255, 255)"/><path d="M 481.157,423.372 C 504.396,388.166 535.548,346.397 571.633,300.541 Q 617.0,247.399 661.789,200.313" data-line="nan" stroke-width="45.0" fill="none" stroke="rgb(255, 255, 255)"/><path d="M 825.365,4.0 C 827.33,35.731 828.197,70.826 826.45,127.889 C 824.445,149.816 820.793,176.185 810.958,224.483 C 802.975,255.127 796.336,277.005 787.208,303.42 C 775.078,334.327 763.571,360.621 750.964,386.801 L 720.618,442.204" data-line="nan" stroke-width="45.0" fill="none" stroke="rgb(255, 255, 255)"/><path d="M 720.618,442.204 C 700.378,474.107 679.884,503.707 657.12,533.918 C 634.315,561.661 611.081,587.232 585.058,613.477 Q 560.873,635.829 534.588,658.046" data-line="nan" stroke-width="45.0" fill="none" stroke="rgb(255, 255, 255)"/><path d="M 420.534,517.401 L 355.714,336.255" data-line="0.0" stroke-width="45.0" fill="none" stroke="rgb(255, 255, 255)"/><path d="M 338.99841859524025,366.2792805046603 A 555.6613724646478,555.6613724646478 0 0,0 287.51151097501474,770.5504329693003" data-line="2.0" stroke-width="45.0" fill="none" stroke="rgb(255, 255, 255)"/><path d="M 504.396,388.166 L 465.825,198.127" data-line="3.0" stroke-width="45.0" fill="none" stroke="rgb(255, 255, 255)"/><path d="M 825.365,4.0 L 679.987,56.449" data-line="4.0" stroke-width="45.0" fill="none" stroke="rgb(255, 255, 255)"/><path d="M 582.524,446.917 L 731.518,422.737" data-line="6.0" stroke-width="45.0" fill="none" stroke="rgb(255, 255, 255)"/><path d="M 680.0511551131949,56.594094944294966 A 763.9322302067874,763.9322302067874 0 0,0 441.4652401500822,222.52752195250844" data-line="8.0" stroke-width="45.0" fill="none" stroke="rgb(255, 255, 255)"/><path d="M 441.624,222.682 L 355.714,336.255" data-line="9.0" stroke-width="45.0" fill="none" stroke="rgb(255, 255, 255)"/><path d="M 434.621,494.712 L 481.157,423.372" data-line="9.0" stroke-width="45.0" fill="none" stroke="rgb(255, 255, 255)"/><path d="M 534.2907844953878,657.6938986342302 A 542.4323146864348,542.4323146864348 0 0,1 285.11179259161975,776.1943033226028" data-line="10.0" stroke-width="45.0" fill="none" stroke="rgb(255, 255, 255)"/></g></svg>