<svg xmlns="http://www.w3.org/2000/svg" width="1024" height="1024" viewBox="82.40399932861328 -41.371559143066406 859.1920166015625 1106.37158203125" class="colorable-icon reset-top-left-margin" data-export-recolorable-svg="true" overflow="visible" xmlns:xlink="http://www.w3.org/1999/xlink" fill="rgb(0, 0, 0)" stroke="none"><g fill="none" stroke="rgb(111, 161, 47)" stroke-width="45" stroke-linecap="round" stroke-linejoin="round"><path d="M 511.537,873.206 C 472.989,806.315 459.419,786.76 446.867,771.909 C 432.356,757.479 417.607,745.375 402.772,735.216 C 388.17,726.992 373.229,720.192 353.635,713.408 C 334.309,708.345 319.609,706.174 304.978,705.07 L 246.375,704.968" data-line="nan" stroke-width="45.0" fill="none" stroke="rgb(111, 161, 47)"/><path d="M 621.014,290.639 C 643.41,295.768 665.104,304.938 675.48,311.023 C 686.763,319.034 702.375,333.522 715.0,349.617 C 721.575,360.36 726.702,371.149 734.903,396.045 L 737.88,417.908" data-line="nan" stroke-width="45.0" fill="none" stroke="rgb(111, 161, 47)"/><path d="M 738.672,500.915 L 739.494,513.928" data-line="nan" stroke-width="45.0" fill="none" stroke="rgb(111, 161, 47)"/><path d="M 728.494,704.876 C 713.798,705.338 694.343,707.726 679.583,710.712 C 662.961,715.556 648.288,721.115 631.275,729.276 C 616.64,737.928 602.572,747.92 590.566,757.897 C 578.156,769.908 567.927,781.334 558.129,793.866 Q 544.682,814.473 511.537,873.206" data-line="nan" stroke-width="45.0" fill="none" stroke="rgb(111, 161, 47)"/><circle cx="511.1082841375638" cy="118.61028457039745" r="114.9818433377832" data-line="0.0" stroke-width="45.0" fill="none" stroke="rgb(111, 161, 47)"/><path d="M 284.584,513.536 L 286.138,409.474" data-line="2.0" stroke-width="45.0" fill="none" stroke="rgb(111, 161, 47)"/><path d="M 511.508,904.005 L 511.794,547.562" data-line="3.0" stroke-width="45.0" fill="none" stroke="rgb(111, 161, 47)"/><path d="M 129.233,704.989 L 219.87,613.612" data-line="5.0" stroke-width="45.0" fill="none" stroke="rgb(111, 161, 47)"/><path d="M 217.079,797.713 L 127.404,706.844" data-line="6.0" stroke-width="45.0" fill="none" stroke="rgb(111, 161, 47)"/><path d="M 511.508,904.005 L 511.73,1020.0" data-line="7.0" stroke-width="45.0" fill="none" stroke="rgb(111, 161, 47)"/><path d="M 896.596,705.191 L 728.494,704.876" data-line="8.0" stroke-width="45.0" fill="none" stroke="rgb(111, 161, 47)"/><path d="M 806.985,795.764 L 896.596,705.191" data-line="9.0" stroke-width="45.0" fill="none" stroke="rgb(111, 161, 47)"/><path d="M 804.458,614.257 L 896.596,705.191" data-line="10.0" stroke-width="45.0" fill="none" stroke="rgb(111, 161, 47)"/><path d="M 286.00675890786505,409.4592475009348 A 135.37633977009563,135.37633977009563 0 0,1 423.7742394738556,289.24374162064197" data-line="11.0" stroke-width="45.0" fill="none" stroke="rgb(111, 161, 47)"/><path d="M 423.78,289.003 L 621.014,290.639" data-line="12.0" stroke-width="45.0" fill="none" stroke="rgb(111, 161, 47)"/><path d="M 246.375,704.968 L 129.233,704.989" data-line="14.0" stroke-width="45.0" fill="none" stroke="rgb(111, 161, 47)"/><path d="M 737.88,417.908 L 738.672,500.915" data-line="14.0" stroke-width="45.0" fill="none" stroke="rgb(111, 161, 47)"/></g></svg>