<svg xmlns="http://www.w3.org/2000/svg" width="1024" height="1024" viewBox="-40.27167320251465 -30.761337280273438 1105.8397216796875 1082.8013305664062" class="colorable-icon reset-top-left-margin" data-export-recolorable-svg="true" overflow="visible" xmlns:xlink="http://www.w3.org/1999/xlink" fill="rgb(255, 255, 255)" stroke="none"><g fill="none" stroke="rgb(255, 255, 255)" stroke-width="45" stroke-linecap="round" stroke-linejoin="round"><path d="M 482.073,528.175 C 514.269,529.304 532.66,531.699 546.545,534.46 Q 574.066,542.382 608.273,556.486" data-line="nan" stroke-width="45.0" fill="none" stroke="rgb(255, 255, 255)"/><circle cx="407.67011159982565" cy="234.77992852479184" r="220.54125455998107" data-line="0.0" stroke-width="45.0" fill="none" stroke="rgb(255, 255, 255)"/><path d="M 6.122,965.456 L 5.019,809.317" data-line="2.0" stroke-width="45.0" fill="none" stroke="rgb(255, 255, 255)"/><path d="M 6.122,965.456 L 7.568,969.986" data-line="3.0" stroke-width="45.0" fill="none" stroke="rgb(255, 255, 255)"/><path d="M 7.568,969.986 L 9.551,974.696" data-line="4.0" stroke-width="45.0" fill="none" stroke="rgb(255, 255, 255)"/><path d="M 9.551,974.696 L 12.027,979.338" data-line="5.0" stroke-width="45.0" fill="none" stroke="rgb(255, 255, 255)"/><path d="M 12.027,979.338 L 15.151,984.118" data-line="6.0" stroke-width="45.0" fill="none" stroke="rgb(255, 255, 255)"/><path d="M 15.151,984.118 L 18.739,988.604" data-line="7.0" stroke-width="45.0" fill="none" stroke="rgb(255, 255, 255)"/><path d="M 18.739,988.604 L 22.826,992.869" data-line="8.0" stroke-width="45.0" fill="none" stroke="rgb(255, 255, 255)"/><path d="M 22.826,992.869 L 27.153,996.569" data-line="9.0" stroke-width="45.0" fill="none" stroke="rgb(255, 255, 255)"/><path d="M 27.153,996.569 L 31.734,999.758" data-line="10.0" stroke-width="45.0" fill="none" stroke="rgb(255, 255, 255)"/><path d="M 31.734,999.758 L 36.378,1002.358" data-line="11.0" stroke-width="45.0" fill="none" stroke="rgb(255, 255, 255)"/><path d="M 36.378,1002.358 L 764.815,1007.04" data-line="12.0" stroke-width="45.0" fill="none" stroke="rgb(255, 255, 255)"/><path d="M 764.815,1007.04 L 769.504,1005.721" data-line="13.0" stroke-width="45.0" fill="none" stroke="rgb(255, 255, 255)"/><path d="M 769.504,1005.721 L 774.339,1003.827" data-line="14.0" stroke-width="45.0" fill="none" stroke="rgb(255, 255, 255)"/><path d="M 774.339,1003.827 L 779.279,1001.344" data-line="15.0" stroke-width="45.0" fill="none" stroke="rgb(255, 255, 255)"/><path d="M 779.279,1001.344 L 784.302,998.195" data-line="16.0" stroke-width="45.0" fill="none" stroke="rgb(255, 255, 255)"/><path d="M 784.302,998.195 L 789.119,994.462" data-line="17.0" stroke-width="45.0" fill="none" stroke="rgb(255, 255, 255)"/><path d="M 789.119,994.462 L 793.67,990.151" data-line="18.0" stroke-width="45.0" fill="none" stroke="rgb(255, 255, 255)"/><path d="M 793.67,990.151 L 797.688,985.456" data-line="19.0" stroke-width="45.0" fill="none" stroke="rgb(255, 255, 255)"/><path d="M 797.688,985.456 L 801.074,980.649" data-line="20.0" stroke-width="45.0" fill="none" stroke="rgb(255, 255, 255)"/><path d="M 801.074,980.649 L 803.784,975.756" data-line="21.0" stroke-width="45.0" fill="none" stroke="rgb(255, 255, 255)"/><path d="M 803.784,975.756 L 805.863,970.954" data-line="22.0" stroke-width="45.0" fill="none" stroke="rgb(255, 255, 255)"/><path d="M 805.863,970.954 L 810.042,845.499" data-line="23.0" stroke-width="45.0" fill="none" stroke="rgb(255, 255, 255)"/><path d="M 810.0353179714392,844.6959618829308 A 212.98920091759007,212.98920091759007 0 0,1 608.9111885406355,556.7260605365778" data-line="24.0" stroke-width="45.0" fill="none" stroke="rgb(255, 255, 255)"/><path d="M 810.0334827896863,844.6676773900926 A 212.71378314515997,212.71378314515997 0 1,0 608.8933924409052,556.7206244104532" data-line="25.0" stroke-width="45.0" fill="none" stroke="rgb(255, 255, 255)"/><path d="M 320.71,527.966 L 482.073,528.175" data-line="28.0" stroke-width="45.0" fill="none" stroke="rgb(255, 255, 255)"/><path d="M 804.474,512.383 L 805.001,628.722" data-line="29.0" stroke-width="45.0" fill="none" stroke="rgb(255, 255, 255)"/><path d="M 805.001,628.722 L 887.371,680.193" data-line="30.0" stroke-width="45.0" fill="none" stroke="rgb(255, 255, 255)"/><path d="M 4.728327016445689,809.288385292824 A 310.83622957335626,310.83622957335626 0 0,1 320.6885068545795,528.975077044303" data-line="31.0" stroke-width="45.0" fill="none" stroke="rgb(255, 255, 255)"/></g></svg>