<svg xmlns="http://www.w3.org/2000/svg" width="1024" height="1024" viewBox="-41.210870027542114 -11.450000762939453 1106.948974609375 1046.9199829101562" class="colorable-icon reset-top-left-margin" data-export-recolorable-svg="true" overflow="visible" xmlns:xlink="http://www.w3.org/1999/xlink" fill="rgb(0, 0, 0)" stroke="none"><g fill="none" stroke="rgb(111, 161, 47)" stroke-width="45" stroke-linecap="round" stroke-linejoin="round"><path d="M 103.945,520.941 C 134.721,518.101 194.421,518.115 207.919,519.831 C 214.276,521.631 222.974,525.365 231.854,531.234 C 239.728,538.711 245.121,545.521 250.118,554.482 C 253.336,563.888 255.345,574.405 255.742,603.147" data-line="nan" stroke-width="45.0" fill="none" stroke="rgb(111, 161, 47)"/><path d="M 1019.996,847.507 C 1018.67,874.038 1016.067,887.526 1013.485,896.468 C 1008.28,909.693 1003.78,918.593 995.413,931.917 C 988.63,940.676 971.523,958.005 962.622,965.106 C 949.078,973.96 940.092,978.59 926.785,983.942 C 913.653,987.676 904.81,989.293 887.16,990.469 C 838.674,990.499 825.475,989.824 816.703,988.332 C 807.859,985.569 794.433,978.025 782.513,966.429 C 776.541,957.387 772.676,948.543 770.558,939.816 Q 769.037,926.735 768.826,887.203" data-line="nan" stroke-width="45.0" fill="none" stroke="rgb(111, 161, 47)"/><path d="M 768.832,587.325 C 769.349,574.232 770.74,565.638 773.428,557.133 C 777.879,548.195 784.166,539.542 792.096,531.891 C 801.088,525.956 809.88,522.0 819.773,519.15 C 826.657,518.321 890.429,518.076 907.832,519.573 L 930.088,524.03" data-line="nan" stroke-width="45.0" fill="none" stroke="rgb(111, 161, 47)"/><path d="M 255.697,925.127 C 254.744,938.427 251.636,949.836 245.95,961.193 C 238.782,970.305 228.442,979.15 219.117,984.518 Q 206.678,988.779 195.931,990.277" data-line="nan" stroke-width="45.0" fill="none" stroke="rgb(111, 161, 47)"/><path d="M 129.851,990.294 C 116.557,988.77 101.015,984.99 87.184,979.794 C 75.029,973.74 61.348,964.945 50.558,956.201 C 41.785,947.615 31.456,935.331 23.989,924.183 C 17.695,912.523 13.08,901.622 8.496,886.655 C 6.383,875.522 4.555,858.082 4.155,827.226" data-line="nan" stroke-width="45.0" fill="none" stroke="rgb(111, 161, 47)"/><path d="M 932.882,418.179 C 929.289,382.712 921.521,343.041 911.161,307.778 C 896.954,272.199 878.586,237.113 858.309,206.134 C 833.842,175.545 817.018,157.567 803.531,144.599 C 772.512,118.753 741.67,97.636 710.772,80.323 C 675.245,64.498 640.09,52.455 600.395,42.721 C 560.757,36.711 538.734,34.618 516.672,33.55 C 499.286,33.73 475.223,35.22 435.071,39.918 C 396.115,47.994 361.025,58.554 327.562,71.925 C 307.95,81.473 291.938,90.33 261.506,109.92 C 231.048,134.058 215.449,148.44 201.221,162.902 C 176.962,191.469 153.436,224.811 135.379,256.265 C 127.369,272.822 119.124,292.363 107.278,327.338 Q 98.234,365.038 92.932,402.318" data-line="nan" stroke-width="45.0" fill="none" stroke="rgb(111, 161, 47)"/><path d="M 934.0965349556869,527.273473368139 A 139.52532767973875,139.52532767973875 0 0,1 1018.777660884706,679.6952598611924" data-line="0.0" stroke-width="45.0" fill="none" stroke="rgb(111, 161, 47)"/><path d="M 934.412,524.941 L 932.882,418.179" data-line="2.0" stroke-width="45.0" fill="none" stroke="rgb(111, 161, 47)"/><path d="M 1019.992,679.901 L 1019.996,847.507" data-line="3.0" stroke-width="45.0" fill="none" stroke="rgb(111, 161, 47)"/><path d="M 768.826,887.203 L 768.832,587.325" data-line="5.0" stroke-width="45.0" fill="none" stroke="rgb(111, 161, 47)"/><path d="M 255.742,603.147 L 255.697,925.127" data-line="7.0" stroke-width="45.0" fill="none" stroke="rgb(111, 161, 47)"/><path d="M 4.155,827.226 L 4.091,668.442" data-line="9.0" stroke-width="45.0" fill="none" stroke="rgb(111, 161, 47)"/><path d="M 4.388308773911149,668.4141757156616 A 137.7213599731351,137.7213599731351 0 0,1 90.29931092945583,527.7353427154904" data-line="10.0" stroke-width="45.0" fill="none" stroke="rgb(111, 161, 47)"/><path d="M 92.932,402.318 L 90.204,522.324" data-line="12.0" stroke-width="45.0" fill="none" stroke="rgb(111, 161, 47)"/><path d="M 195.931,990.277 L 129.851,990.294" data-line="12.0" stroke-width="45.0" fill="none" stroke="rgb(111, 161, 47)"/></g></svg>