<svg xmlns="http://www.w3.org/2000/svg" width="1024" height="1024" viewBox="-42.36325120925903 29.30158233642578 1107.9290161132812 972.5484008789062" class="colorable-icon reset-top-left-margin" data-export-recolorable-svg="true" overflow="visible" xmlns:xlink="http://www.w3.org/1999/xlink" fill="rgb(255, 255, 255)" stroke="none"><g fill="none" stroke="rgb(255, 255, 255)" stroke-width="45" stroke-linecap="round" stroke-linejoin="round"><path d="M 808.011,956.85 C 814.102,945.476 816.743,936.433 817.373,926.426 C 817.32,863.301 817.155,853.517 815.15,843.411 L 807.699,829.598" data-line="nan" stroke-width="45.0" fill="none" stroke="rgb(255, 255, 255)"/><path d="M 226.246,956.655 C 221.401,955.955 216.591,954.223 213.16,952.483 L 204.64,945.879" data-line="nan" stroke-width="45.0" fill="none" stroke="rgb(255, 255, 255)"/><path d="M 589.994,630.798 C 567.9,660.185 558.633,669.263 548.566,676.368 C 538.694,681.251 523.882,685.546 509.437,686.677 C 495.067,685.03 480.443,680.158 470.821,675.011 C 456.697,663.589 448.723,654.106 440.424,639.298 C 435.982,624.967 434.44,610.829 435.595,596.572 C 439.363,582.661 446.714,568.253 457.952,554.213 C 466.923,546.338 476.209,540.194 485.601,535.628 C 515.286,526.215 524.828,521.202 617.256,456.987" data-line="nan" stroke-width="45.0" fill="none" stroke="rgb(255, 255, 255)"/><path d="M 2.6367487464295323,583.2609597983014 A 508.9644440648792,508.9644440648792 0 1,1 1020.5631034477311,584.8817766277288" data-line="0.0" stroke-width="45.0" fill="none" stroke="rgb(255, 255, 255)"/><path d="M 777.279,363.077 L 589.994,630.798" data-line="1.0" stroke-width="45.0" fill="none" stroke="rgb(255, 255, 255)"/><path d="M 802.022,326.623 L 763.798,366.289" data-line="2.0" stroke-width="45.0" fill="none" stroke="rgb(255, 255, 255)"/><path d="M 807.699,829.598 L 208.29,832.202" data-line="5.0" stroke-width="45.0" fill="none" stroke="rgb(255, 255, 255)"/><path d="M 808.011,956.85 L 226.246,956.655" data-line="7.0" stroke-width="45.0" fill="none" stroke="rgb(255, 255, 255)"/><path d="M 208.29,832.202 L 204.64,945.879" data-line="8.0" stroke-width="45.0" fill="none" stroke="rgb(255, 255, 255)"/><path d="M 617.256,456.987 L 778.893,343.479" data-line="10.0" stroke-width="45.0" fill="none" stroke="rgb(255, 255, 255)"/></g></svg>