<svg xmlns="http://www.w3.org/2000/svg" width="1024" height="1024" viewBox="-26.840999603271484 22.03600311279297 1091.8289794921875 1006.3349609375" class="colorable-icon reset-top-left-margin" data-export-recolorable-svg="true" overflow="visible" xmlns:xlink="http://www.w3.org/1999/xlink" fill="rgb(0, 0, 0)" stroke="none"><g fill="none" stroke="url(&quot;#theme-accent-gradient-linear&quot;) rgb(10, 128, 187)" stroke-width="45" stroke-linecap="round" stroke-linejoin="round"><path d="M 158.168,209.363 C 112.755,228.546 104.033,234.135 94.339,243.42 C 85.077,257.794 79.697,271.831 77.231,288.914 L 76.79,311.095" data-line="nan" stroke-width="45.0" fill="none" stroke="url(&quot;#theme-accent-gradient-linear&quot;) rgb(10, 128, 187)"/><path d="M 1011.89,806.141 C 1018.894,773.621 1019.782,763.984 1019.988,626.81" data-line="nan" stroke-width="45.0" fill="none" stroke="url(&quot;#theme-accent-gradient-linear&quot;) rgb(10, 128, 187)"/><path d="M 1019.881,263.394 Q 1018.45,248.614 1010.946,219.225" data-line="nan" stroke-width="45.0" fill="none" stroke="url(&quot;#theme-accent-gradient-linear&quot;) rgb(10, 128, 187)"/><path d="M 76.828,724.784 C 77.983,742.744 82.726,761.813 89.888,775.368 C 97.806,785.291 103.33,790.409 116.968,799.231 C 132.779,804.952 146.507,806.798 177.483,806.939" data-line="nan" stroke-width="45.0" fill="none" stroke="url(&quot;#theme-accent-gradient-linear&quot;) rgb(10, 128, 187)"/><path d="M 736.958,298.442 C 735.623,277.229 733.302,266.387 729.265,255.523 C 726.289,250.123 718.246,239.78 708.159,230.926 C 697.341,224.63 681.159,219.51 665.267,217.745 L 633.676,217.632" data-line="nan" stroke-width="45.0" fill="none" stroke="url(&quot;#theme-accent-gradient-linear&quot;) rgb(10, 128, 187)"/><path d="M 18.159,67.036 L 936.775,983.371" data-line="0.0" stroke-width="45.0" fill="none" stroke="url(&quot;#theme-accent-gradient-linear&quot;) rgb(10, 128, 187)"/><path d="M 1010.946,219.225 L 736.942,423.495" data-line="3.0" stroke-width="45.0" fill="none" stroke="url(&quot;#theme-accent-gradient-linear&quot;) rgb(10, 128, 187)"/><path d="M 1011.89,806.141 L 737.993,602.318" data-line="5.0" stroke-width="45.0" fill="none" stroke="url(&quot;#theme-accent-gradient-linear&quot;) rgb(10, 128, 187)"/><path d="M 737.053,658.348 L 736.958,298.442" data-line="6.0" stroke-width="45.0" fill="none" stroke="url(&quot;#theme-accent-gradient-linear&quot;) rgb(10, 128, 187)"/><path d="M 76.79,311.095 L 76.828,724.784" data-line="7.0" stroke-width="45.0" fill="none" stroke="url(&quot;#theme-accent-gradient-linear&quot;) rgb(10, 128, 187)"/><path d="M 177.483,806.939 L 633.988,806.734" data-line="9.0" stroke-width="45.0" fill="none" stroke="url(&quot;#theme-accent-gradient-linear&quot;) rgb(10, 128, 187)"/><path d="M 1019.988,626.81 L 1019.881,263.394" data-line="9.0" stroke-width="45.0" fill="none" stroke="url(&quot;#theme-accent-gradient-linear&quot;) rgb(10, 128, 187)"/><path d="M 633.676,217.632 L 289.607,217.596" data-line="11.0" stroke-width="45.0" fill="none" stroke="url(&quot;#theme-accent-gradient-linear&quot;) rgb(10, 128, 187)"/></g></svg>