<svg xmlns="http://www.w3.org/2000/svg" width="1024" height="1024" viewBox="193.87840270996094 -40.41267251968384 647.7406005859375 1105.3836669921875" class="colorable-icon reset-top-left-margin" data-export-recolorable-svg="true" overflow="visible" xmlns:xlink="http://www.w3.org/1999/xlink" fill="rgb(0, 0, 0)" stroke="none"><g fill="none" stroke="url(&quot;#theme-accent-gradient-linear&quot;) rgb(10, 128, 187)" stroke-width="45" stroke-linecap="round" stroke-linejoin="round"><path d="M 702.144,154.596 C 698.025,137.887 691.405,119.148 683.068,101.739 C 674.382,87.48 663.345,72.518 650.402,58.284 C 637.916,46.945 621.843,35.013 606.171,25.615 C 589.88,17.914 571.994,11.616 556.389,7.666 C 537.95,4.906 518.862,4.0 497.616,4.955 C 481.164,7.265 464.533,11.257 448.121,16.875 C 431.432,24.452 414.69,34.166 398.327,46.104 C 386.076,57.017 374.65,69.145 361.697,86.068 C 353.938,98.479 345.673,114.808 339.226,131.372 C 334.531,147.967 331.469,164.441 330.207,176.827 L 329.701,225.426" data-line="nan" stroke-width="45.0" fill="none" stroke="url(&quot;#theme-accent-gradient-linear&quot;) rgb(10, 128, 187)"/><path d="M 253.836,535.502 C 262.978,558.802 273.361,579.712 287.295,602.789 C 300.617,621.206 315.353,638.286 332.32,654.736 C 351.067,669.999 369.642,682.694 391.159,694.843 C 413.883,705.13 436.512,712.969 461.797,719.515 C 482.562,723.132 503.677,724.802 527.963,725.148 C 556.025,723.172 578.017,718.987 600.131,712.627 C 623.202,703.903 648.126,692.156 669.663,679.267 C 687.932,666.056 707.596,649.174 724.211,632.329 C 739.638,613.455 752.507,594.481 764.899,573.05 C 775.594,550.31 783.366,529.294 789.816,505.945 Q 793.99,483.173 796.215,459.964" data-line="nan" stroke-width="45.0" fill="none" stroke="url(&quot;#theme-accent-gradient-linear&quot;) rgb(10, 128, 187)"/><path d="M 796.539,397.162 L 796.619,359.075" data-line="nan" stroke-width="45.0" fill="none" stroke="url(&quot;#theme-accent-gradient-linear&quot;) rgb(10, 128, 187)"/><path d="M 705.739,216.29 L 329.731,216.275" data-line="0.0" stroke-width="45.0" fill="none" stroke="url(&quot;#theme-accent-gradient-linear&quot;) rgb(10, 128, 187)"/><path d="M 329.701,225.426 L 336.757,504.912" data-line="1.0" stroke-width="45.0" fill="none" stroke="url(&quot;#theme-accent-gradient-linear&quot;) rgb(10, 128, 187)"/><path d="M 239.198,357.681 C 240.25957198413124,414.0136012214572 233.2897404880259,483.29579287821684 253.836,535.502" data-line="3.0" stroke-width="45.0" fill="none" stroke="url(&quot;#theme-accent-gradient-linear&quot;) rgb(10, 128, 187)"/><path d="M 518.228,1019.971 L 518.047,725.04" data-line="4.0" stroke-width="45.0" fill="none" stroke="url(&quot;#theme-accent-gradient-linear&quot;) rgb(10, 128, 187)"/><path d="M 352.845,1019.841 L 685.001,1019.952" data-line="5.0" stroke-width="45.0" fill="none" stroke="url(&quot;#theme-accent-gradient-linear&quot;) rgb(10, 128, 187)"/><path d="M 336.8295021890599,504.89084988733805 A 188.25818242305337,188.25818242305337 0 0,0 705.8126044510095,452.6021665964905" data-line="6.0" stroke-width="45.0" fill="none" stroke="url(&quot;#theme-accent-gradient-linear&quot;) rgb(10, 128, 187)"/><path d="M 705.74,452.602 L 702.144,154.596" data-line="7.0" stroke-width="45.0" fill="none" stroke="url(&quot;#theme-accent-gradient-linear&quot;) rgb(10, 128, 187)"/><path d="M 796.215,459.964 L 796.539,397.162" data-line="9.0" stroke-width="45.0" fill="none" stroke="url(&quot;#theme-accent-gradient-linear&quot;) rgb(10, 128, 187)"/></g></svg>