<svg xmlns="http://www.w3.org/2000/svg" width="1024" height="1024" viewBox="164.26300048828125 -26.81100082397461 710.6840209960938 1091.7489624023438" class="colorable-icon reset-top-left-margin" data-export-recolorable-svg="true" overflow="visible" xmlns:xlink="http://www.w3.org/1999/xlink" fill="rgb(0, 0, 0)" stroke="none"><g fill="none" stroke="url(&quot;#theme-accent-gradient-linear&quot;) rgb(10, 128, 187)" stroke-width="45" stroke-linecap="round" stroke-linejoin="round"><path d="M 394.782,869.612 C 396.105,911.544 398.213,926.87 401.466,939.056 C 404.724,947.559 415.036,966.26 422.772,976.313 C 432.188,986.237 441.629,994.254 453.329,1002.139 C 464.969,1008.298 475.72,1012.676 488.424,1016.355 C 499.576,1018.504 512.045,1019.821 521.742,1019.938 C 533.054,1018.874 547.74,1016.141 560.992,1012.048 C 572.567,1007.11 585.243,999.855 594.798,992.907 C 604.801,983.941 613.476,974.27 619.069,966.586 C 626.406,954.28 631.682,942.45 635.029,932.007 Q 637.658,919.199 638.715,905.744" data-line="nan" stroke-width="45.0" fill="none" stroke="url(&quot;#theme-accent-gradient-linear&quot;) rgb(10, 128, 187)"/><path d="M 640.819,803.636 C 643.317,784.257 647.683,765.066 654.184,745.681 C 663.087,726.386 671.591,712.01 682.078,697.182 C 718.596,654.134 732.824,634.52 744.668,614.551 C 752.23,600.097 761.739,575.863 766.966,556.509 C 770.493,537.031 773.232,512.712 773.683,493.284 C 772.614,473.898 769.964,454.444 765.969,435.009 C 760.252,415.508 750.436,391.49 737.67,367.17 C 725.474,347.849 710.401,328.463 696.65,313.86 C 676.88,296.55 657.277,282.652 633.39,269.044 C 613.904,259.862 589.7,251.727 565.581,246.49 C 536.545,242.432 517.401,241.294 499.102,242.087 C 472.234,245.83 446.34,251.673 428.033,257.59 C 412.232,263.965 397.29,271.291 378.671,282.365 C 361.745,294.455 344.962,308.413 333.216,319.884 C 320.772,334.197 310.185,348.46 300.109,364.276 C 289.844,382.923 281.005,401.729 273.914,421.273 C 268.498,440.251 264.91,458.827 262.609,478.406 C 261.813,495.335 262.083,512.058 265.907,543.473 C 272.777,572.407 282.98,599.331 293.781,620.48 C 306.93,640.644 321.886,659.727 350.803,692.798 C 363.146,709.628 374.742,729.768 383.214,750.489 C 389.658,774.01 393.418,798.407 394.861,824.935 L 394.782,869.612" data-line="nan" stroke-width="45.0" fill="none" stroke="url(&quot;#theme-accent-gradient-linear&quot;) rgb(10, 128, 187)"/><path d="M 517.939,152.205 L 518.867,18.189" data-line="0.0" stroke-width="45.0" fill="none" stroke="url(&quot;#theme-accent-gradient-linear&quot;) rgb(10, 128, 187)"/><path d="M 209.263,141.347 L 295.474,229.473" data-line="1.0" stroke-width="45.0" fill="none" stroke="url(&quot;#theme-accent-gradient-linear&quot;) rgb(10, 128, 187)"/><path d="M 738.469,231.933 L 829.947,139.08" data-line="2.0" stroke-width="45.0" fill="none" stroke="url(&quot;#theme-accent-gradient-linear&quot;) rgb(10, 128, 187)"/><path d="M 639.894,862.652 L 394.757,862.748" data-line="4.0" stroke-width="45.0" fill="none" stroke="url(&quot;#theme-accent-gradient-linear&quot;) rgb(10, 128, 187)"/><path d="M 638.715,905.744 L 640.819,803.636" data-line="5.0" stroke-width="45.0" fill="none" stroke="url(&quot;#theme-accent-gradient-linear&quot;) rgb(10, 128, 187)"/></g></svg>