<svg xmlns="http://www.w3.org/2000/svg" width="1024" height="1024" viewBox="-44.45637893676758 -44.81999999284744 1113.2197875976562 1113.7200317382812" class="colorable-icon reset-top-left-margin" data-export-recolorable-svg="true" overflow="visible" xmlns:xlink="http://www.w3.org/1999/xlink" fill="rgb(0, 0, 0)" stroke="none"><g fill="none" stroke="rgb(111, 161, 47)" stroke-width="45" stroke-linecap="round" stroke-linejoin="round"><path d="M 747.22,145.57 C 743.08,119.0 739.94,107.32 735.49,94.89 C 724.57,73.97 716.72,62.98 708.37,53.3 C 700.16,45.32 687.31,34.97 666.0,21.61 C 654.96,16.1 640.01,10.08 616.85,3.85 C 593.51,0.52 579.24,0.39 569.92,1.18 C 559.88,3.18 548.06,6.67 528.76,15.07 C 516.46,22.48 507.21,29.24 491.93,43.18 Q 479.36,58.92 460.74,88.35" data-line="nan" stroke-width="45.0" fill="none" stroke="rgb(111, 161, 47)"/><path d="M 622.08,316.56 C 669.98,263.57 687.22,242.8 703.67,221.33 C 724.39,190.24 733.17,174.17 747.22,145.57" data-line="nan" stroke-width="45.0" fill="none" stroke="rgb(111, 161, 47)"/><path d="M 869.61,431.7 C 878.51,411.41 885.31,390.81 888.71,373.02 C 890.62,348.92 890.06,328.06 886.89,305.08 C 881.92,285.36 873.81,262.34 864.96,244.42 C 852.95,225.84 838.63,208.16 821.73,191.06 C 805.41,177.69 787.72,165.68 774.7,158.33 L 747.22,145.57" data-line="nan" stroke-width="45.0" fill="none" stroke="rgb(111, 161, 47)"/><path d="M 459.95,807.18 C 482.01,843.63 489.7,854.26 498.96,864.86 C 509.13,874.67 519.52,882.91 530.1,889.82 C 545.47,897.56 560.97,902.89 576.49,906.2 C 592.11,907.95 607.69,908.35 623.39,907.19 C 633.84,905.25 649.6,900.91 666.08,894.7" data-line="nan" stroke-width="45.0" fill="none" stroke="rgb(111, 161, 47)"/><path d="M 460.74,88.35 C 439.48,55.98 427.15,40.25 411.9,25.48 C 395.57,14.25 385.17,9.17 374.81,5.44 C 363.19,2.47 352.9,0.82 333.46,0.18 C 305.87,3.61 292.07,6.85 278.67,11.07 C 266.89,15.69 253.04,22.41 231.24,36.2 C 220.72,44.76 212.58,52.59 198.82,69.61 C 192.63,79.37 186.4,91.53 178.97,111.79 L 170.72,146.4" data-line="nan" stroke-width="45.0" fill="none" stroke="rgb(111, 161, 47)"/><path d="M 459.95,807.18 C 440.56,841.67 431.21,854.94 414.29,873.2 C 397.81,886.18 385.07,893.72 375.32,898.24 C 353.64,905.11 332.63,908.09 306.63,907.86 C 285.09,903.64 270.3,898.94 255.83,893.01 C 233.57,881.28 221.34,872.85 210.32,863.91 C 199.07,852.93 191.79,844.49 179.45,826.29 C 174.67,817.01 168.79,802.78 161.82,779.91" data-line="nan" stroke-width="45.0" fill="none" stroke="rgb(111, 161, 47)"/><path d="M 161.82,779.91 C 140.49,769.16 117.57,758.92 101.99,750.32 C 81.16,736.08 65.66,723.0 47.19,703.38 C 31.75,682.26 20.01,661.57 9.43,635.63 C 3.13,609.77 0.3,583.83 0.56,552.86 C 4.06,527.15 10.62,503.13 20.04,480.69 Q 37.12,452.8 49.24,438.31" data-line="nan" stroke-width="45.0" fill="none" stroke="rgb(111, 161, 47)"/><path d="M 761.94,924.84 C 762.53,967.69 765.3,981.54 770.55,992.84 C 776.47,1001.19 784.41,1009.23 792.74,1015.26 C 803.9,1020.36 817.86,1023.41 865.58,1023.9 C 876.84,1022.7 885.32,1020.66 893.8,1017.26 C 902.4,1012.06 910.82,1004.66 917.61,996.2 C 922.31,987.67 925.4,979.06 927.35,967.77 C 927.85,916.95 928.93,909.15 933.97,886.16 C 941.19,865.57 950.01,846.88 960.67,828.73 C 972.48,811.87 991.34,787.9 999.77,775.2 C 1008.48,758.73 1014.13,744.76 1019.26,727.16 C 1022.15,711.82 1023.85,695.05 1023.76,679.39 C 1022.01,662.56 1018.24,644.64 1012.64,627.16 C 1006.22,612.32 997.92,597.2 987.95,582.65 C 977.27,569.86 964.62,557.4 950.81,546.3 C 935.39,536.25 921.18,528.81 905.38,522.31 C 888.68,517.29 869.19,513.56 852.29,512.13 C 833.94,512.19 817.89,513.71 801.17,516.93 C 784.41,521.9 767.73,528.73 750.59,537.91 C 736.91,547.11 722.81,558.73 712.12,569.45 C 700.69,583.42 691.37,597.45 683.77,611.54 C 676.72,628.22 672.27,642.2 669.08,656.11 C 667.4,667.2 666.14,683.97 666.37,695.14 C 668.18,711.92 672.9,734.19 679.86,753.93 C 689.53,773.38 698.66,787.57 725.79,824.0 C 736.18,840.84 745.05,857.94 752.01,874.65 C 757.29,891.48 761.98,916.96 761.94,924.84" data-line="nan" stroke-width="45.0" fill="none" stroke="rgb(111, 161, 47)"/><path d="M 883.56,450.92 L 869.61,431.7" data-line="3.0" stroke-width="45.0" fill="none" stroke="rgb(111, 161, 47)"/><path d="M 460.74,88.35 L 459.95,807.18" data-line="5.0" stroke-width="45.0" fill="none" stroke="rgb(111, 161, 47)"/><path d="M 163.27374728777892,780.7144105026011 A 389.3821334642665,389.3821334642665 0 0,1 302.3695493665174,636.1101134469629" data-line="8.0" stroke-width="45.0" fill="none" stroke="rgb(111, 161, 47)"/><path d="M 49.24,438.31 L 228.84,453.98" data-line="10.0" stroke-width="45.0" fill="none" stroke="rgb(111, 161, 47)"/><path d="M 170.91246212155428,146.9531456416003 A 210.3913894635893,210.3913894635893 0 0,0 50.79047353593725,437.55715304597015" data-line="11.0" stroke-width="45.0" fill="none" stroke="rgb(111, 161, 47)"/><path d="M 289.5557299457584,276.7461912988829 A 229.85065147525137,229.85065147525137 0 0,1 170.66527086409266,146.41971100366356" data-line="12.0" stroke-width="45.0" fill="none" stroke="rgb(111, 161, 47)"/><path d="M 927.85,916.95 L 761.98,916.96" data-line="25.0" stroke-width="45.0" fill="none" stroke="rgb(111, 161, 47)"/></g></svg>