<svg xmlns="http://www.w3.org/2000/svg" width="1024" height="1024" viewBox="-41 2.410999298095703 1105.9840087890625 1019.1782836914062" class="colorable-icon reset-top-left-margin" data-export-recolorable-svg="true" overflow="visible" xmlns:xlink="http://www.w3.org/1999/xlink" fill="rgb(0, 0, 0)" stroke="none"><g fill="none" stroke="url(&quot;#theme-accent-gradient-linear&quot;) rgb(10, 128, 187)" stroke-width="45" stroke-linecap="round" stroke-linejoin="round"><path d="M 354.303,92.796 C 355.622,81.688 358.131,74.293 365.435,62.888 C 372.456,56.346 379.946,51.797 392.559,47.847 L 419.017,47.411" data-line="nan" stroke-width="45.0" fill="none" stroke="url(&quot;#theme-accent-gradient-linear&quot;) rgb(10, 128, 187)"/><path d="M 979.138,47.56 C 988.493,49.364 996.056,52.56 1003.0,57.159 C 1009.164,62.958 1013.21,68.368 1017.177,76.389 Q 1019.285,84.021 1019.984,91.771" data-line="nan" stroke-width="45.0" fill="none" stroke="url(&quot;#theme-accent-gradient-linear&quot;) rgb(10, 128, 187)"/><path d="M 1019.8,468.862 C 1017.672,478.739 1014.197,486.618 1010.15,492.831 C 1003.019,500.097 996.638,504.308 988.456,507.969 Q 980.737,509.637 971.643,510.162" data-line="nan" stroke-width="45.0" fill="none" stroke="url(&quot;#theme-accent-gradient-linear&quot;) rgb(10, 128, 187)"/><path d="M 4.579,598.33 C 4.952,586.965 6.479,575.879 9.464,563.8 C 13.101,553.613 18.062,542.973 23.805,533.175 C 30.964,523.283 38.956,514.179 56.429,498.975 C 67.657,491.61 78.22,486.035 89.462,481.435 C 100.499,478.043 113.571,475.427 123.098,474.5" data-line="nan" stroke-width="45.0" fill="none" stroke="url(&quot;#theme-accent-gradient-linear&quot;) rgb(10, 128, 187)"/><path d="M 266.455,474.667 C 278.671,475.986 292.766,479.082 306.385,483.87 C 319.206,489.963 332.588,498.352 343.311,506.916 C 351.92,515.237 361.26,526.298 367.796,535.923 C 373.96,547.337 379.113,560.204 382.316,571.848 Q 384.593,589.015 384.685,632.269" data-line="nan" stroke-width="45.0" fill="none" stroke="url(&quot;#theme-accent-gradient-linear&quot;) rgb(10, 128, 187)"/><circle cx="687.5647083599141" cy="717.5231634650168" r="100.23264886761952" data-line="0.0" stroke-width="45.0" fill="none" stroke="url(&quot;#theme-accent-gradient-linear&quot;) rgb(10, 128, 187)"/><path d="M 682.604,617.322 L 688.422,602.755" data-line="2.0" stroke-width="45.0" fill="none" stroke="url(&quot;#theme-accent-gradient-linear&quot;) rgb(10, 128, 187)"/><path d="M 688.422,602.755 L 689.061,510.444" data-line="3.0" stroke-width="45.0" fill="none" stroke="url(&quot;#theme-accent-gradient-linear&quot;) rgb(10, 128, 187)"/><path d="M 803.442,146.401 L 901.356,146.437" data-line="7.0" stroke-width="45.0" fill="none" stroke="url(&quot;#theme-accent-gradient-linear&quot;) rgb(10, 128, 187)"/><path d="M 901.356,146.437 L 720.022,327.282" data-line="8.0" stroke-width="45.0" fill="none" stroke="url(&quot;#theme-accent-gradient-linear&quot;) rgb(10, 128, 187)"/><path d="M 720.022,327.282 L 647.29,255.166" data-line="9.0" stroke-width="45.0" fill="none" stroke="url(&quot;#theme-accent-gradient-linear&quot;) rgb(10, 128, 187)"/><path d="M 493.158,409.839 L 647.29,255.166" data-line="10.0" stroke-width="45.0" fill="none" stroke="url(&quot;#theme-accent-gradient-linear&quot;) rgb(10, 128, 187)"/><path d="M 902.581,241.042 L 902.811,146.44" data-line="11.0" stroke-width="45.0" fill="none" stroke="url(&quot;#theme-accent-gradient-linear&quot;) rgb(10, 128, 187)"/><path d="M 354.164,459.755 L 354.303,92.796" data-line="15.0" stroke-width="45.0" fill="none" stroke="url(&quot;#theme-accent-gradient-linear&quot;) rgb(10, 128, 187)"/><circle cx="194.3340585635932" cy="311.89465821803987" r="113.23348110801572" data-line="16.0" stroke-width="45.0" fill="none" stroke="url(&quot;#theme-accent-gradient-linear&quot;) rgb(10, 128, 187)"/><path d="M 419.017,47.411 L 979.138,47.56" data-line="17.0" stroke-width="45.0" fill="none" stroke="url(&quot;#theme-accent-gradient-linear&quot;) rgb(10, 128, 187)"/><path d="M 4.0,755.362 L 4.579,598.33" data-line="18.0" stroke-width="45.0" fill="none" stroke="url(&quot;#theme-accent-gradient-linear&quot;) rgb(10, 128, 187)"/><path d="M 98.659,755.362 L 98.776,641.547" data-line="19.0" stroke-width="45.0" fill="none" stroke="url(&quot;#theme-accent-gradient-linear&quot;) rgb(10, 128, 187)"/><path d="M 1019.984,91.771 L 1019.8,468.862" data-line="19.0" stroke-width="45.0" fill="none" stroke="url(&quot;#theme-accent-gradient-linear&quot;) rgb(10, 128, 187)"/><path d="M 501.37992168927275,976.5892999993649 A 111.62428997511626,111.62428997511626 0 0,1 608.5447862121977,865.6322021128145" data-line="20.0" stroke-width="45.0" fill="none" stroke="url(&quot;#theme-accent-gradient-linear&quot;) rgb(10, 128, 187)"/><path d="M 971.643,510.162 L 414.82,510.777" data-line="21.0" stroke-width="45.0" fill="none" stroke="url(&quot;#theme-accent-gradient-linear&quot;) rgb(10, 128, 187)"/><path d="M 384.685,632.269 L 384.803,755.362" data-line="22.0" stroke-width="45.0" fill="none" stroke="url(&quot;#theme-accent-gradient-linear&quot;) rgb(10, 128, 187)"/><path d="M 608.568,866.213 L 796.993,870.11" data-line="23.0" stroke-width="45.0" fill="none" stroke="url(&quot;#theme-accent-gradient-linear&quot;) rgb(10, 128, 187)"/><path d="M 123.098,474.5 L 266.455,474.667" data-line="23.0" stroke-width="45.0" fill="none" stroke="url(&quot;#theme-accent-gradient-linear&quot;) rgb(10, 128, 187)"/><path d="M 796.9544320147521,870.2388378351194 A 111.00344782529552,111.00344782529552 0 0,1 876.0916577548342,973.883597938388" data-line="24.0" stroke-width="45.0" fill="none" stroke="url(&quot;#theme-accent-gradient-linear&quot;) rgb(10, 128, 187)"/></g></svg>