<svg xmlns="http://www.w3.org/2000/svg" width="1024" height="1024" viewBox="-1.9754180908203125 -41.72452998161316 1026.5586547851562 1107.1329345703125" class="colorable-icon reset-top-left-margin" data-export-recolorable-svg="true" overflow="visible" xmlns:xlink="http://www.w3.org/1999/xlink" fill="rgb(0, 0, 0)" stroke="none"><g fill="none" stroke="url(&quot;#theme-accent-gradient-linear&quot;) rgb(10, 128, 187)" stroke-width="45" stroke-linecap="round" stroke-linejoin="round"><path d="M 875.997,632.025 C 855.38,622.073 837.058,615.353 814.518,609.718 C 791.974,606.5 769.435,605.807 746.993,607.121 C 725.164,610.895 704.797,616.58 683.247,625.166 C 664.68,634.997 648.361,645.951 631.112,660.406 C 618.132,673.974 603.797,692.562 591.619,712.002 C 582.627,730.125 575.183,751.353 570.38,772.561 C 567.861,795.105 567.699,819.655 569.463,839.908 C 572.968,858.567 578.318,877.202 584.812,893.7 C 593.885,911.705 605.775,930.309 617.984,945.934 C 631.24,959.843 644.565,971.504 660.682,983.701 L 711.152,1014.507" data-line="nan" stroke-width="45.0" fill="none" stroke="url(&quot;#theme-accent-gradient-linear&quot;) rgb(10, 128, 187)"/><path d="M 710.835,1014.477 C 749.547,1018.699 774.261,1019.21 792.784,1018.252 C 810.781,1015.362 829.05,1010.982 846.49,1005.293 C 862.023,998.666 877.097,990.173 899.568,975.35 C 909.247,967.72 921.728,955.865 933.666,942.275 C 944.316,927.633 955.406,909.511 963.405,893.266 C 970.174,874.804 975.028,856.603 978.591,835.923 C 980.004,818.904 980.013,800.708 977.933,779.683 C 975.139,764.01 970.004,745.494 962.786,727.206 C 954.936,711.715 944.744,695.391 934.865,682.273 C 922.716,668.633 909.04,655.727 895.472,644.957 L 875.997,632.025" data-line="nan" stroke-width="45.0" fill="none" stroke="url(&quot;#theme-accent-gradient-linear&quot;) rgb(10, 128, 187)"/><path d="M 179.088,289.585 L 525.75,289.588" data-line="0.0" stroke-width="45.0" fill="none" stroke="url(&quot;#theme-accent-gradient-linear&quot;) rgb(10, 128, 187)"/><path d="M 876.122,232.504 L 641.046,4.035" data-line="3.0" stroke-width="45.0" fill="none" stroke="url(&quot;#theme-accent-gradient-linear&quot;) rgb(10, 128, 187)"/><path d="M 643.02,185.608 L 638.169,4.027" data-line="4.0" stroke-width="45.0" fill="none" stroke="url(&quot;#theme-accent-gradient-linear&quot;) rgb(10, 128, 187)"/><path d="M 642.800159480171,185.70101350476895 A 80.54447303410626,80.54447303410626 0 0,0 733.0947053930781,233.23215514688974" data-line="5.0" stroke-width="45.0" fill="none" stroke="url(&quot;#theme-accent-gradient-linear&quot;) rgb(10, 128, 187)"/><path d="M 720.36,1020.0 L 105.793,1019.829" data-line="6.0" stroke-width="45.0" fill="none" stroke="url(&quot;#theme-accent-gradient-linear&quot;) rgb(10, 128, 187)"/><path d="M 875.997,632.025 L 876.122,234.185" data-line="7.0" stroke-width="45.0" fill="none" stroke="url(&quot;#theme-accent-gradient-linear&quot;) rgb(10, 128, 187)"/><path d="M 179.55,429.092 L 736.516,428.995" data-line="14.0" stroke-width="45.0" fill="none" stroke="url(&quot;#theme-accent-gradient-linear&quot;) rgb(10, 128, 187)"/><path d="M 178.045,566.722 L 595.002,566.618" data-line="15.0" stroke-width="45.0" fill="none" stroke="url(&quot;#theme-accent-gradient-linear&quot;) rgb(10, 128, 187)"/><path d="M 183.865,703.935 L 467.232,703.835" data-line="16.0" stroke-width="45.0" fill="none" stroke="url(&quot;#theme-accent-gradient-linear&quot;) rgb(10, 128, 187)"/><path d="M 875.032,743.076 L 741.521,879.755" data-line="17.0" stroke-width="45.0" fill="none" stroke="url(&quot;#theme-accent-gradient-linear&quot;) rgb(10, 128, 187)"/><path d="M 676.273,814.928 L 741.521,879.755" data-line="18.0" stroke-width="45.0" fill="none" stroke="url(&quot;#theme-accent-gradient-linear&quot;) rgb(10, 128, 187)"/><path d="M 733.304,234.257 L 876.122,234.185" data-line="19.0" stroke-width="45.0" fill="none" stroke="url(&quot;#theme-accent-gradient-linear&quot;) rgb(10, 128, 187)"/><path d="M 105.78768899133838,1020.4083646363282 A 63.343739076632176,63.343739076632176 0 0,1 45.57087716617925,939.2881260746972" data-line="20.0" stroke-width="45.0" fill="none" stroke="url(&quot;#theme-accent-gradient-linear&quot;) rgb(10, 128, 187)"/><path d="M 43.782,938.765 L 43.789,69.487" data-line="21.0" stroke-width="45.0" fill="none" stroke="url(&quot;#theme-accent-gradient-linear&quot;) rgb(10, 128, 187)"/><path d="M 43.683732208575385,69.49271038475001 A 62.814772139441374,62.814772139441374 0 0,1 123.44647317652377,5.6309402648974825" data-line="22.0" stroke-width="45.0" fill="none" stroke="url(&quot;#theme-accent-gradient-linear&quot;) rgb(10, 128, 187)"/><path d="M 123.896,4.036 L 638.169,4.027" data-line="23.0" stroke-width="45.0" fill="none" stroke="url(&quot;#theme-accent-gradient-linear&quot;) rgb(10, 128, 187)"/></g></svg>