<svg xmlns="http://www.w3.org/2000/svg" width="1024" height="1024" viewBox="-40.382412910461426 -39.839216232299805 1103.0584106445312 1101.90673828125" class="colorable-icon reset-top-left-margin" data-export-recolorable-svg="true" overflow="visible" xmlns:xlink="http://www.w3.org/1999/xlink" fill="rgb(0, 0, 0)" stroke="none"><g fill="none" stroke="url(&quot;#theme-accent-gradient-linear&quot;) rgb(10, 128, 187)" stroke-width="45" stroke-linecap="round" stroke-linejoin="round"><path d="M 72.544,257.565 C 60.332,279.874 50.865,299.314 42.2,319.547 C 34.06,341.233 25.572,368.042 19.451,390.641 C 13.912,416.505 9.778,441.986 4.632,492.975 C 4.372,525.437 7.684,565.97 10.177,586.908 Q 14.177,610.904 19.894,636.751" data-line="nan" stroke-width="45.0" fill="none" stroke="url(&quot;#theme-accent-gradient-linear&quot;) rgb(10, 128, 187)"/><circle cx="512.5044552301323" cy="512.7345636741886" r="329.4501632520536" data-line="2.0" stroke-width="45.0" fill="none" stroke="url(&quot;#theme-accent-gradient-linear&quot;) rgb(10, 128, 187)"/><circle cx="512.821560927108" cy="512.6515175932606" r="165.72073432944032" data-line="4.0" stroke-width="45.0" fill="none" stroke="url(&quot;#theme-accent-gradient-linear&quot;) rgb(10, 128, 187)"/><path d="M 661.49,585.093 L 664.705,578.661" data-line="5.0" stroke-width="45.0" fill="none" stroke="url(&quot;#theme-accent-gradient-linear&quot;) rgb(10, 128, 187)"/><path d="M 19.895742138505568,636.750565676618 A 494.99440576366686,494.99440576366686 0 0,0 141.7670796040341,858.4096340415176" data-line="6.0" stroke-width="45.0" fill="none" stroke="url(&quot;#theme-accent-gradient-linear&quot;) rgb(10, 128, 187)"/><path d="M 141.731,858.444 C 185.58287407473563,905.9304643075192 240.07185149868025,944.5888598377373 294.751,969.967" data-line="7.0" stroke-width="45.0" fill="none" stroke="url(&quot;#theme-accent-gradient-linear&quot;) rgb(10, 128, 187)"/><path d="M 294.752487267893,969.9638389404483 A 507.30204961178345,507.30204961178345 0 0,0 416.54137061051586,1009.4136237413213" data-line="8.0" stroke-width="45.0" fill="none" stroke="url(&quot;#theme-accent-gradient-linear&quot;) rgb(10, 128, 187)"/><path d="M 416.543,1009.405 L 551.915,1016.624" data-line="9.0" stroke-width="45.0" fill="none" stroke="url(&quot;#theme-accent-gradient-linear&quot;) rgb(10, 128, 187)"/><path d="M 551.9461494672396,1017.0675265874095 A 502.3491794424172,502.3491794424172 0 0,0 1017.0026168086486,561.8242526444584" data-line="10.0" stroke-width="45.0" fill="none" stroke="url(&quot;#theme-accent-gradient-linear&quot;) rgb(10, 128, 187)"/><path d="M 1017.676,561.886 L 1012.518,423.396" data-line="11.0" stroke-width="45.0" fill="none" stroke="url(&quot;#theme-accent-gradient-linear&quot;) rgb(10, 128, 187)"/><path d="M 1012.5029797975657,423.39859773542264 A 502.91035096310657,502.91035096310657 0 0,0 611.6855474246865,15.197550951489916" data-line="12.0" stroke-width="45.0" fill="none" stroke="url(&quot;#theme-accent-gradient-linear&quot;) rgb(10, 128, 187)"/><path d="M 611.715,15.044 C 544.5828888207114,3.860933787437474 498.11282883574904,0.13319703566930888 412.738,14.73" data-line="13.0" stroke-width="45.0" fill="none" stroke="url(&quot;#theme-accent-gradient-linear&quot;) rgb(10, 128, 187)"/><path d="M 412.70572154448166,14.566714006504355 A 505.9133381917664,505.9133381917664 0 0,0 72.80117377285615,257.7136401622019" data-line="14.0" stroke-width="45.0" fill="none" stroke="url(&quot;#theme-accent-gradient-linear&quot;) rgb(10, 128, 187)"/></g></svg>