<svg xmlns="http://www.w3.org/2000/svg" width="1024" height="1024" viewBox="-17.704999923706055 -40.70232152938843 1059.0084228515625 1105.6943359375" class="colorable-icon reset-top-left-margin" data-export-recolorable-svg="true" overflow="visible" xmlns:xlink="http://www.w3.org/1999/xlink" fill="rgb(0, 0, 0)" stroke="none"><g fill="none" stroke="url(&quot;#theme-accent-gradient-linear&quot;) rgb(10, 128, 187)" stroke-width="45" stroke-linecap="round" stroke-linejoin="round"><path d="M 905.301,499.083 C 904.435,506.305 905.042,513.029 906.863,519.997 C 909.274,525.048 912.36,529.287 917.571,534.114 C 925.4,538.809 932.417,541.169 939.766,541.708 C 946.353,540.67 956.817,536.299 961.032,533.094 C 966.604,526.762 969.614,521.214 971.697,514.977 C 972.58,509.238 972.445,502.907 971.142,496.114 C 969.168,491.175 962.584,482.383 953.211,475.977 C 944.865,473.106 935.575,472.859 926.654,474.888 L 909.059,481.73" data-line="nan" stroke-width="45.0" fill="none" stroke="url(&quot;#theme-accent-gradient-linear&quot;) rgb(10, 128, 187)"/><path d="M 931.589,291.683 C 939.585,282.578 947.432,277.315 953.254,274.992 C 964.391,274.026 973.137,275.977 978.997,278.387 C 983.615,281.433 989.735,287.38 992.639,291.666 C 995.817,300.244 996.699,307.138 996.152,315.678 C 994.086,322.963 991.808,327.689 984.31,336.194 C 975.499,341.581 964.329,344.483 955.103,344.0 C 943.867,339.558 937.008,334.52 917.69,311.486" data-line="nan" stroke-width="45.0" fill="none" stroke="url(&quot;#theme-accent-gradient-linear&quot;) rgb(10, 128, 187)"/><path d="M 931.909,149.71 C 947.704,152.448 957.0,150.925 967.956,146.06 C 974.295,140.345 977.435,135.988 979.898,130.697 C 982.147,122.222 981.814,111.393 978.895,103.2 C 975.986,98.371 970.371,92.234 965.385,88.779 C 958.663,85.816 952.948,84.368 948.139,84.115 C 940.527,85.009 933.444,87.563 928.954,90.155 C 924.794,93.672 920.264,99.123 915.828,108.124 C 914.556,115.229 914.491,120.882 916.268,128.683 L 924.617,148.238" data-line="nan" stroke-width="45.0" fill="none" stroke="url(&quot;#theme-accent-gradient-linear&quot;) rgb(10, 128, 187)"/><path d="M 603.973,561.565 C 575.8,582.384 553.731,593.79 538.204,599.45 C 524.383,603.176 511.121,605.573 494.627,607.253 C 477.521,607.549 461.452,606.694 447.24,604.786 C 431.158,601.442 415.759,597.04 400.617,591.448 C 385.569,584.58 369.267,575.582 355.343,566.319 C 342.457,556.449 328.872,544.425 316.613,531.897 C 307.455,521.29 294.309,504.034 284.368,489.019 C 276.06,474.475 269.556,461.427 262.388,444.468 C 257.064,429.415 251.861,411.092 245.543,378.444 L 241.792,338.227" data-line="nan" stroke-width="45.0" fill="none" stroke="url(&quot;#theme-accent-gradient-linear&quot;) rgb(10, 128, 187)"/><path d="M 807.818,421.846 C 806.998,447.585 804.053,460.708 800.782,469.469 C 796.429,478.076 787.448,491.188 775.378,503.235 C 761.97,512.192 750.394,517.576 713.396,532.031" data-line="nan" stroke-width="45.0" fill="none" stroke="url(&quot;#theme-accent-gradient-linear&quot;) rgb(10, 128, 187)"/><path d="M 799.867,238.701 C 818.646,262.926 824.811,273.527 829.302,284.077 C 831.43,291.091 832.933,300.696 833.761,319.986 C 832.507,331.258 828.722,344.573 824.708,353.201 C 819.157,361.827 808.888,373.17 806.221,375.506 Q 781.706,387.674 769.84,390.866" data-line="nan" stroke-width="45.0" fill="none" stroke="url(&quot;#theme-accent-gradient-linear&quot;) rgb(10, 128, 187)"/><path d="M 913.036,163.844 C 884.811,195.172 875.833,203.277 868.697,208.284 C 860.208,212.503 851.322,215.445 824.848,218.971" data-line="nan" stroke-width="45.0" fill="none" stroke="url(&quot;#theme-accent-gradient-linear&quot;) rgb(10, 128, 187)"/><path d="M 611.287,27.647 C 616.09,22.077 624.147,15.062 632.703,10.095 C 641.171,6.957 649.548,5.203 662.241,4.638 C 674.942,6.216 683.402,8.596 696.605,14.357 C 705.3,19.599 713.77,26.085 722.108,34.091 C 729.116,42.518 734.421,50.862 738.531,59.548 L 742.871,74.413" data-line="nan" stroke-width="45.0" fill="none" stroke="url(&quot;#theme-accent-gradient-linear&quot;) rgb(10, 128, 187)"/><path d="M 686.503,432.278 C 698.333,437.548 706.867,444.665 713.955,454.44 C 718.241,464.228 721.325,477.492 721.798,488.304 Q 720.505,501.035 716.003,520.77" data-line="nan" stroke-width="45.0" fill="none" stroke="url(&quot;#theme-accent-gradient-linear&quot;) rgb(10, 128, 187)"/><path d="M 831.646,720.24 C 844.341,725.828 857.229,732.794 877.827,747.49 C 888.21,756.937 897.449,767.043 904.219,775.938 C 912.035,788.42 920.763,807.068 924.674,819.165 C 927.479,831.663 929.469,850.629 929.666,891.193" data-line="nan" stroke-width="45.0" fill="none" stroke="url(&quot;#theme-accent-gradient-linear&quot;) rgb(10, 128, 187)"/><path d="M 929.451,978.271 C 926.911,989.988 923.301,998.426 918.833,1004.71 C 911.162,1011.896 902.511,1016.552 894.819,1018.897 Q 886.742,1019.894 869.717,1019.992" data-line="nan" stroke-width="45.0" fill="none" stroke="url(&quot;#theme-accent-gradient-linear&quot;) rgb(10, 128, 187)"/><path d="M 69.391,1019.825 C 58.439,1017.726 50.105,1014.172 43.549,1009.563 C 37.758,1003.602 32.829,995.741 29.546,987.204 Q 27.725,977.72 27.328,965.266" data-line="nan" stroke-width="45.0" fill="none" stroke="url(&quot;#theme-accent-gradient-linear&quot;) rgb(10, 128, 187)"/><path d="M 27.295,860.561 C 27.92,846.933 29.803,833.193 33.071,819.449 C 36.78,808.43 42.398,795.814 48.827,784.48 C 55.821,774.257 64.468,763.83 83.008,746.4 C 103.216,732.394 117.185,725.047 171.285,701.577" data-line="nan" stroke-width="45.0" fill="none" stroke="url(&quot;#theme-accent-gradient-linear&quot;) rgb(10, 128, 187)"/><path d="M 462.022,4.307 C 485.184,4.13 508.798,6.487 525.565,10.239 C 540.46,16.159 549.758,22.719 556.49,30.967 Q 561.889,42.83 563.813,56.498" data-line="nan" stroke-width="45.0" fill="none" stroke="url(&quot;#theme-accent-gradient-linear&quot;) rgb(10, 128, 187)"/><path d="M 564.337,495.993 C 565.265,504.526 567.223,512.846 570.078,520.422 C 574.681,529.314 581.623,538.666 600.496,558.049" data-line="nan" stroke-width="45.0" fill="none" stroke="url(&quot;#theme-accent-gradient-linear&quot;) rgb(10, 128, 187)"/><path d="M 635.481,639.29 L 831.646,720.24" data-line="0.0" stroke-width="45.0" fill="none" stroke="url(&quot;#theme-accent-gradient-linear&quot;) rgb(10, 128, 187)"/><path d="M 479.173,885.759 L 318.999,639.535" data-line="1.0" stroke-width="45.0" fill="none" stroke="url(&quot;#theme-accent-gradient-linear&quot;) rgb(10, 128, 187)"/><path d="M 635.481,639.29 L 479.173,885.759" data-line="2.0" stroke-width="45.0" fill="none" stroke="url(&quot;#theme-accent-gradient-linear&quot;) rgb(10, 128, 187)"/><path d="M 715.4936572270021,520.490303065465 A 86.1024179110914,86.1024179110914 0 0,1 607.071988286257,558.5945322749791" data-line="13.0" stroke-width="45.0" fill="none" stroke="url(&quot;#theme-accent-gradient-linear&quot;) rgb(10, 128, 187)"/><path d="M 907.8792681369631,481.3376933709013 A 84.95143944202232,84.95143944202232 0 0,0 808.0828525560676,423.0338027058664" data-line="15.0" stroke-width="45.0" fill="none" stroke="url(&quot;#theme-accent-gradient-linear&quot;) rgb(10, 128, 187)"/><path d="M 807.818,421.846 L 790.886,383.118" data-line="16.0" stroke-width="45.0" fill="none" stroke="url(&quot;#theme-accent-gradient-linear&quot;) rgb(10, 128, 187)"/><path d="M 917.413,311.146 L 833.347,310.555" data-line="18.0" stroke-width="45.0" fill="none" stroke="url(&quot;#theme-accent-gradient-linear&quot;) rgb(10, 128, 187)"/><path d="M 913.036,163.844 L 905.941,168.354" data-line="20.0" stroke-width="45.0" fill="none" stroke="url(&quot;#theme-accent-gradient-linear&quot;) rgb(10, 128, 187)"/><path d="M 905.9410000003089,168.35400000032575 A 105.45952390281708,105.45952390281708 0 0,1 926.6840000002097,153.03100000037176" data-line="21.0" stroke-width="45.0" fill="none" stroke="url(&quot;#theme-accent-gradient-linear&quot;) rgb(10, 128, 187)"/><path d="M 824.0765894701822,218.78149951304576 A 119.57724178586336,119.57724178586336 0 0,0 746.4231275759574,77.0353317268328" data-line="22.0" stroke-width="45.0" fill="none" stroke="url(&quot;#theme-accent-gradient-linear&quot;) rgb(10, 128, 187)"/><path d="M 744.6581170972311,84.42652346978004 A 69.15836718913592,69.15836718913592 0 0,1 669.5999479942188,157.19954237592722" data-line="24.0" stroke-width="45.0" fill="none" stroke="url(&quot;#theme-accent-gradient-linear&quot;) rgb(10, 128, 187)"/><path d="M 669.205,128.179 L 669.497,158.38" data-line="25.0" stroke-width="45.0" fill="none" stroke="url(&quot;#theme-accent-gradient-linear&quot;) rgb(10, 128, 187)"/><path d="M 751.7720839951827,220.40244244272972 A 152.101287596988,152.101287596988 0 0,1 799.7708908142419,238.86242249892496" data-line="26.0" stroke-width="45.0" fill="none" stroke="url(&quot;#theme-accent-gradient-linear&quot;) rgb(10, 128, 187)"/><path d="M 929.666,891.193 L 929.451,978.271" data-line="29.0" stroke-width="45.0" fill="none" stroke="url(&quot;#theme-accent-gradient-linear&quot;) rgb(10, 128, 187)"/><path d="M 905.301,499.083 L 908.564,481.922" data-line="29.0" stroke-width="45.0" fill="none" stroke="url(&quot;#theme-accent-gradient-linear&quot;) rgb(10, 128, 187)"/><path d="M 931.589,291.683 L 917.929,311.145" data-line="30.0" stroke-width="45.0" fill="none" stroke="url(&quot;#theme-accent-gradient-linear&quot;) rgb(10, 128, 187)"/><path d="M 869.717,1019.992 L 69.391,1019.825" data-line="31.0" stroke-width="45.0" fill="none" stroke="url(&quot;#theme-accent-gradient-linear&quot;) rgb(10, 128, 187)"/><path d="M 27.328,965.266 L 27.295,860.561" data-line="33.0" stroke-width="45.0" fill="none" stroke="url(&quot;#theme-accent-gradient-linear&quot;) rgb(10, 128, 187)"/><path d="M 563.813,56.498 L 564.337,495.993" data-line="36.0" stroke-width="45.0" fill="none" stroke="url(&quot;#theme-accent-gradient-linear&quot;) rgb(10, 128, 187)"/><path d="M 632.956365228427,257.15868406665396 A 46.56588452453074,46.56588452453074 0 0,0 680.7853367285596,312.0437542389203" data-line="48.0" stroke-width="45.0" fill="none" stroke="url(&quot;#theme-accent-gradient-linear&quot;) rgb(10, 128, 187)"/><path d="M 171.285,701.577 L 318.999,639.535" data-line="52.0" stroke-width="45.0" fill="none" stroke="url(&quot;#theme-accent-gradient-linear&quot;) rgb(10, 128, 187)"/><path d="M 241.792,338.227 L 242.264,215.083" data-line="53.0" stroke-width="45.0" fill="none" stroke="url(&quot;#theme-accent-gradient-linear&quot;) rgb(10, 128, 187)"/><path d="M 242.46787635736868,215.09391101865526 A 222.16313067309005,222.16313067309005 0 0,1 462.0272306404052,4.815241405336451" data-line="54.0" stroke-width="45.0" fill="none" stroke="url(&quot;#theme-accent-gradient-linear&quot;) rgb(10, 128, 187)"/></g></svg>