<svg xmlns="http://www.w3.org/2000/svg" width="1024" height="1024" viewBox="-44.37000000476837 -44.689999997615814 1113.3699951171875 1113.6900024414062" class="colorable-icon reset-top-left-margin" data-export-recolorable-svg="true" overflow="visible" xmlns:xlink="http://www.w3.org/1999/xlink" fill="rgb(0, 0, 0)" stroke="none"><g fill="none" stroke="url(&quot;#theme-accent-gradient-linear&quot;) rgb(149, 114, 55)" stroke-width="45" stroke-linecap="round" stroke-linejoin="round"><path d="M 921.24,0.73 C 876.13,0.06 832.54,1.63 791.93,5.25 C 749.01,11.48 706.86,20.27 670.43,30.23 Q 635.17,42.28 598.84,57.55" data-line="nan" stroke-width="45.0" fill="none" stroke="url(&quot;#theme-accent-gradient-linear&quot;) rgb(149, 114, 55)"/><path d="M 462.03,178.49 C 437.03,140.25 419.63,120.18 409.46,110.51 C 394.43,98.05 378.98,87.02 358.82,74.58 C 323.17,56.81 302.89,48.34 277.75,39.1 Q 226.89,23.91 176.24,12.96" data-line="nan" stroke-width="45.0" fill="none" stroke="url(&quot;#theme-accent-gradient-linear&quot;) rgb(149, 114, 55)"/><path d="M 1024.0,767.2 C 970.13,748.48 949.65,739.57 929.23,729.04 C 912.08,718.65 891.86,704.23 874.57,689.85 C 859.14,675.07 843.54,657.97 830.07,640.76 C 818.3,623.38 806.72,603.44 797.57,584.97 Q 789.91,566.82 771.59,512.0" data-line="nan" stroke-width="45.0" fill="none" stroke="url(&quot;#theme-accent-gradient-linear&quot;) rgb(149, 114, 55)"/><path d="M 1024.0,767.2 C 971.69,785.18 951.87,793.76 933.84,803.0 C 914.39,814.78 895.1,828.49 877.9,842.76 C 862.21,857.71 846.72,874.53 833.1,891.61 C 819.92,910.69 808.38,930.13 797.92,950.94 Q 789.51,970.82 771.43,1024.0" data-line="nan" stroke-width="45.0" fill="none" stroke="url(&quot;#theme-accent-gradient-linear&quot;) rgb(149, 114, 55)"/><path d="M 771.43,1024.0 C 754.57,972.28 746.03,951.58 736.48,932.05 C 724.92,911.94 712.9,893.95 698.5,875.38 C 683.98,859.22 667.59,843.46 651.86,830.38 C 634.71,818.01 615.24,806.0 594.75,795.28 Q 575.66,786.8 523.47,768.18" data-line="nan" stroke-width="45.0" fill="none" stroke="url(&quot;#theme-accent-gradient-linear&quot;) rgb(149, 114, 55)"/><path d="M 771.59,512.0 C 752.79,568.13 744.84,587.23 735.63,606.15 C 724.95,624.9 712.22,643.93 697.4,662.89 C 683.26,678.4 667.87,693.07 649.12,708.49 C 633.37,719.72 614.13,731.56 595.24,741.45 Q 576.4,749.8 523.47,768.18" data-line="nan" stroke-width="45.0" fill="none" stroke="url(&quot;#theme-accent-gradient-linear&quot;) rgb(149, 114, 55)"/><path d="M 921.5,512.0 L 921.24,0.73" data-line="1.0" stroke-width="45.0" fill="none" stroke="url(&quot;#theme-accent-gradient-linear&quot;) rgb(149, 114, 55)"/><path d="M 462.92,747.48 L 462.12,182.94" data-line="2.0" stroke-width="45.0" fill="none" stroke="url(&quot;#theme-accent-gradient-linear&quot;) rgb(149, 114, 55)"/><path d="M 461.2531400483801,785.4996564338896 A 463.7005413355912,463.7005413355912 0 0,0 203.53560074669895,642.6612368932217" data-line="4.0" stroke-width="45.0" fill="none" stroke="url(&quot;#theme-accent-gradient-linear&quot;) rgb(149, 114, 55)"/><path d="M 0.63,622.24 L 0.65,0.31" data-line="5.0" stroke-width="45.0" fill="none" stroke="url(&quot;#theme-accent-gradient-linear&quot;) rgb(149, 114, 55)"/><path d="M 599.1264959506796,58.261332526226994 A 267.7593698291344,267.7593698291344 0 0,0 462.9858477878473,180.47137243613633" data-line="17.0" stroke-width="45.0" fill="none" stroke="url(&quot;#theme-accent-gradient-linear&quot;) rgb(149, 114, 55)"/><path d="M 176.24,12.96 L 0.65,0.31" data-line="18.0" stroke-width="45.0" fill="none" stroke="url(&quot;#theme-accent-gradient-linear&quot;) rgb(149, 114, 55)"/><path d="M 203.68,641.88 L 0.63,622.24" data-line="19.0" stroke-width="45.0" fill="none" stroke="url(&quot;#theme-accent-gradient-linear&quot;) rgb(149, 114, 55)"/></g></svg>