<svg xmlns="http://www.w3.org/2000/svg" width="1024" height="1024" viewBox="60.910003662109375 -40.94799995422363 901.763671875 1105.947998046875" class="colorable-icon reset-top-left-margin" data-export-recolorable-svg="true" overflow="visible" xmlns:xlink="http://www.w3.org/1999/xlink" fill="rgb(0, 0, 0)" stroke="none"><g fill="none" stroke="url(&quot;#theme-accent-gradient-linear&quot;) rgb(149, 114, 55)" stroke-width="45" stroke-linecap="round" stroke-linejoin="round"><path d="M 885.379,1015.119 C 906.167,950.205 910.386,933.011 913.44,915.872 C 916.909,885.852 918.088,860.081 917.549,834.326 C 915.338,808.573 911.26,782.77 906.462,761.267 C 898.973,735.659 891.042,714.257 879.357,688.408 C 867.679,666.846 854.439,645.58 839.11,624.076 C 817.541,598.116 788.141,567.207 755.955,543.489 C 735.682,530.119 710.13,515.82 684.434,504.035 C 662.853,495.97 637.022,488.291 615.684,483.462 C 589.86,479.331 547.156,476.096 480.231,477.559" data-line="nan" stroke-width="45.0" fill="none" stroke="url(&quot;#theme-accent-gradient-linear&quot;) rgb(149, 114, 55)"/><path d="M 875.268,1020.0 C 872.199,951.342 870.089,929.29 863.901,894.914 C 854.251,860.54 847.748,842.939 839.084,822.925 C 831.107,806.828 820.165,787.64 810.066,772.319 Q 798.8,757.346 777.096,733.723" data-line="nan" stroke-width="45.0" fill="none" stroke="url(&quot;#theme-accent-gradient-linear&quot;) rgb(149, 114, 55)"/><path d="M 777.096,733.723 C 753.322,710.871 729.508,692.72 701.942,675.478 C 669.695,659.612 642.406,649.43 613.761,641.618 Q 585.519,636.572 557.463,633.695" data-line="nan" stroke-width="45.0" fill="none" stroke="url(&quot;#theme-accent-gradient-linear&quot;) rgb(149, 114, 55)"/><path d="M 491.45,633.008 L 480.398,633.123" data-line="nan" stroke-width="45.0" fill="none" stroke="url(&quot;#theme-accent-gradient-linear&quot;) rgb(149, 114, 55)"/><path d="M 197.314,924.034 C 186.916,923.493 175.95,921.797 164.625,918.654 C 154.81,914.585 145.846,909.566 137.211,903.167 C 129.393,895.601 124.034,889.118 118.486,880.666 C 113.576,870.908 110.656,863.133 108.044,852.751 Q 106.096,835.491 105.91,798.865" data-line="nan" stroke-width="45.0" fill="none" stroke="url(&quot;#theme-accent-gradient-linear&quot;) rgb(149, 114, 55)"/><path d="M 106.249,95.076 C 106.716,82.661 108.143,73.493 111.109,63.008 C 116.621,51.049 122.013,42.22 131.008,31.088 C 139.329,23.452 149.823,16.408 165.106,9.362 C 184.181,4.943 199.562,4.078 259.632,4.052" data-line="nan" stroke-width="45.0" fill="none" stroke="url(&quot;#theme-accent-gradient-linear&quot;) rgb(149, 114, 55)"/><path d="M 688.772,4.057 C 714.429,5.317 727.302,7.864 736.004,10.803 C 744.698,14.913 753.502,20.415 762.15,27.389 C 769.948,35.489 776.482,44.187 781.458,52.844 C 785.185,61.434 789.087,74.588 791.153,91.914 L 791.265,130.543" data-line="nan" stroke-width="45.0" fill="none" stroke="url(&quot;#theme-accent-gradient-linear&quot;) rgb(149, 114, 55)"/><path d="M 480.224,344.419 L 480.231,477.559" data-line="0.0" stroke-width="45.0" fill="none" stroke="url(&quot;#theme-accent-gradient-linear&quot;) rgb(149, 114, 55)"/><path d="M 480.414,758.903 L 480.398,633.123" data-line="3.0" stroke-width="45.0" fill="none" stroke="url(&quot;#theme-accent-gradient-linear&quot;) rgb(149, 114, 55)"/><path d="M 480.414,758.903 L 271.11,556.018" data-line="4.0" stroke-width="45.0" fill="none" stroke="url(&quot;#theme-accent-gradient-linear&quot;) rgb(149, 114, 55)"/><path d="M 480.224,344.419 L 271.11,556.018" data-line="6.0" stroke-width="45.0" fill="none" stroke="url(&quot;#theme-accent-gradient-linear&quot;) rgb(149, 114, 55)"/><path d="M 683.242,924.078 L 197.314,924.034" data-line="7.0" stroke-width="45.0" fill="none" stroke="url(&quot;#theme-accent-gradient-linear&quot;) rgb(149, 114, 55)"/><path d="M 557.463,633.695 L 491.45,633.008" data-line="12.0" stroke-width="45.0" fill="none" stroke="url(&quot;#theme-accent-gradient-linear&quot;) rgb(149, 114, 55)"/><path d="M 256.58,193.855 L 603.136,193.905" data-line="19.0" stroke-width="45.0" fill="none" stroke="url(&quot;#theme-accent-gradient-linear&quot;) rgb(149, 114, 55)"/><path d="M 105.91,798.865 L 106.249,95.076" data-line="22.0" stroke-width="45.0" fill="none" stroke="url(&quot;#theme-accent-gradient-linear&quot;) rgb(149, 114, 55)"/><path d="M 259.632,4.052 L 688.772,4.057" data-line="24.0" stroke-width="45.0" fill="none" stroke="url(&quot;#theme-accent-gradient-linear&quot;) rgb(149, 114, 55)"/><path d="M 791.265,130.543 L 788.141,567.207" data-line="26.0" stroke-width="45.0" fill="none" stroke="url(&quot;#theme-accent-gradient-linear&quot;) rgb(149, 114, 55)"/></g></svg>