<svg xmlns="http://www.w3.org/2000/svg" width="1024" height="1024" viewBox="-40.97499990463257 -7.5970001220703125 1105.9530029296875 1039.2069702148438" class="colorable-icon reset-top-left-margin" data-export-recolorable-svg="true" overflow="visible" xmlns:xlink="http://www.w3.org/1999/xlink" fill="rgb(0, 0, 0)" stroke="none"><g fill="none" stroke="url(&quot;#theme-accent-gradient-linear&quot;) rgb(149, 114, 55)" stroke-width="45" stroke-linecap="round" stroke-linejoin="round"><path d="M 999.059,760.761 C 989.994,768.403 980.654,774.054 971.527,778.007 C 958.005,781.331 944.445,782.276 864.003,782.307" data-line="nan" stroke-width="45.0" fill="none" stroke="url(&quot;#theme-accent-gradient-linear&quot;) rgb(149, 114, 55)"/><path d="M 76.634,782.155 C 63.248,780.774 49.9,776.977 36.349,769.991 L 27.66,763.153" data-line="nan" stroke-width="45.0" fill="none" stroke="url(&quot;#theme-accent-gradient-linear&quot;) rgb(149, 114, 55)"/><path d="M 999.059,760.761 C 1006.692,751.68 1012.282,742.321 1016.019,733.134 C 1019.062,719.63 1019.93,706.213 1019.957,607.807" data-line="nan" stroke-width="45.0" fill="none" stroke="url(&quot;#theme-accent-gradient-linear&quot;) rgb(149, 114, 55)"/><path d="M 27.66,763.153 C 20.188,754.999 11.866,741.728 8.331,732.683 C 5.257,719.332 4.127,701.755 4.061,618.186" data-line="nan" stroke-width="45.0" fill="none" stroke="url(&quot;#theme-accent-gradient-linear&quot;) rgb(149, 114, 55)"/><path d="M 4.246,111.335 C 5.653,98.137 7.739,89.212 12.967,76.052 L 18.187,67.224" data-line="nan" stroke-width="45.0" fill="none" stroke="url(&quot;#theme-accent-gradient-linear&quot;) rgb(149, 114, 55)"/><path d="M 1019.95,120.168 C 1018.802,97.854 1015.315,84.217 1011.328,75.243 C 1005.563,66.181 993.636,53.686 980.085,45.046 C 971.195,41.362 962.301,38.975 948.973,37.515 L 917.688,37.403" data-line="nan" stroke-width="45.0" fill="none" stroke="url(&quot;#theme-accent-gradient-linear&quot;) rgb(149, 114, 55)"/><path d="M 76.637,37.494 C 59.73,39.595 51.681,41.959 42.853,45.779 Q 29.503,54.942 18.187,67.224" data-line="nan" stroke-width="45.0" fill="none" stroke="url(&quot;#theme-accent-gradient-linear&quot;) rgb(149, 114, 55)"/><path d="M 673.362,986.582 L 614.645,782.282" data-line="1.0" stroke-width="45.0" fill="none" stroke="url(&quot;#theme-accent-gradient-linear&quot;) rgb(149, 114, 55)"/><path d="M 370.529,986.61 L 741.92,986.555" data-line="2.0" stroke-width="45.0" fill="none" stroke="url(&quot;#theme-accent-gradient-linear&quot;) rgb(149, 114, 55)"/><path d="M 408.717,782.274 L 350.601,986.594" data-line="3.0" stroke-width="45.0" fill="none" stroke="url(&quot;#theme-accent-gradient-linear&quot;) rgb(149, 114, 55)"/><path d="M 1019.978,640.599 L 4.025,640.607" data-line="4.0" stroke-width="45.0" fill="none" stroke="url(&quot;#theme-accent-gradient-linear&quot;) rgb(149, 114, 55)"/><path d="M 864.003,782.307 L 76.634,782.155" data-line="6.0" stroke-width="45.0" fill="none" stroke="url(&quot;#theme-accent-gradient-linear&quot;) rgb(149, 114, 55)"/><path d="M 279.722,986.588 L 370.529,986.61" data-line="9.0" stroke-width="45.0" fill="none" stroke="url(&quot;#theme-accent-gradient-linear&quot;) rgb(149, 114, 55)"/><path d="M 1019.957,607.807 L 1019.95,120.168" data-line="9.0" stroke-width="45.0" fill="none" stroke="url(&quot;#theme-accent-gradient-linear&quot;) rgb(149, 114, 55)"/><path d="M 4.061,618.186 L 4.246,111.335" data-line="11.0" stroke-width="45.0" fill="none" stroke="url(&quot;#theme-accent-gradient-linear&quot;) rgb(149, 114, 55)"/><path d="M 917.688,37.403 L 76.637,37.494" data-line="14.0" stroke-width="45.0" fill="none" stroke="url(&quot;#theme-accent-gradient-linear&quot;) rgb(149, 114, 55)"/></g></svg>