<svg xmlns="http://www.w3.org/2000/svg" width="1024" height="1024" viewBox="14.824066162109375 -41 993.40087890625 1106" class="colorable-icon reset-top-left-margin" data-export-recolorable-svg="true" overflow="visible" xmlns:xlink="http://www.w3.org/1999/xlink" fill="rgb(0, 0, 0)" stroke="none"><g fill="none" stroke="url(&quot;#theme-accent-gradient-linear&quot;) rgb(149, 114, 55)" stroke-width="45" stroke-linecap="round" stroke-linejoin="round"><path d="M 66.113,607.567 C 60.388,555.718 58.878,525.674 60.354,490.666 C 64.944,445.547 70.275,415.552 79.133,380.549 C 90.766,345.7 103.528,315.479 121.802,280.514 C 140.769,250.005 162.01,220.52 187.533,190.7 C 211.464,167.473 241.406,142.886 271.354,122.572 C 301.439,105.274 331.413,91.709 366.522,79.253 C 401.49,70.063 436.557,63.975 471.664,59.606 C 511.78,58.157 551.874,59.984 587.059,64.293 C 622.074,71.333 657.211,81.06 692.312,93.856 C 722.421,106.633 752.865,122.399 782.923,140.492 L 863.904,195.424" data-line="nan" stroke-width="45.0" fill="none" stroke="url(&quot;#theme-accent-gradient-linear&quot;) rgb(149, 114, 55)"/><path d="M 163.434,837.774 C 215.611,871.944 241.403,889.99 266.3,905.28 C 306.327,926.445 345.332,943.52 364.584,950.476 C 384.819,956.627 424.616,965.794 446.818,969.251 C 466.981,971.425 504.744,972.746 544.878,971.686 C 590.193,965.713 618.335,960.153 638.097,955.252 C 662.947,947.449 681.026,940.591 703.675,930.677 C 723.1,920.976 742.583,909.992 763.802,896.62 C 781.421,884.339 799.457,870.411 817.087,855.09 L 834.647,837.815" data-line="nan" stroke-width="45.0" fill="none" stroke="url(&quot;#theme-accent-gradient-linear&quot;) rgb(149, 114, 55)"/><path d="M 733.507,4.0 L 863.904,195.424" data-line="1.0" stroke-width="45.0" fill="none" stroke="url(&quot;#theme-accent-gradient-linear&quot;) rgb(149, 114, 55)"/><path d="M 665.565,252.571 L 863.904,195.424" data-line="2.0" stroke-width="45.0" fill="none" stroke="url(&quot;#theme-accent-gradient-linear&quot;) rgb(149, 114, 55)"/><path d="M 287.95,1020.0 L 163.434,837.774" data-line="3.0" stroke-width="45.0" fill="none" stroke="url(&quot;#theme-accent-gradient-linear&quot;) rgb(149, 114, 55)"/><path d="M 356.624,778.849 L 163.434,837.774" data-line="5.0" stroke-width="45.0" fill="none" stroke="url(&quot;#theme-accent-gradient-linear&quot;) rgb(149, 114, 55)"/><path d="M 834.647,837.815 C 922.2157513137012,742.9105854417003 953.1628371289389,649.342715476731 963.225,555.45" data-line="6.0" stroke-width="45.0" fill="none" stroke="url(&quot;#theme-accent-gradient-linear&quot;) rgb(149, 114, 55)"/><path d="M 963.225,555.45 L 958.518,428.892" data-line="7.0" stroke-width="45.0" fill="none" stroke="url(&quot;#theme-accent-gradient-linear&quot;) rgb(149, 114, 55)"/></g></svg>