<svg xmlns="http://www.w3.org/2000/svg" width="1024" height="1024" viewBox="144.5800018310547 -40.85263252258301 734.8819580078125 1105.8406372070312" class="colorable-icon reset-top-left-margin" data-export-recolorable-svg="true" overflow="visible" xmlns:xlink="http://www.w3.org/1999/xlink" fill="rgb(0, 0, 0)" stroke="none"><g fill="none" stroke="url(&quot;#theme-accent-gradient-linear&quot;) rgb(149, 114, 55)" stroke-width="45" stroke-linecap="round" stroke-linejoin="round"><path d="M 632.03,628.786 C 622.521,612.646 612.943,601.235 604.376,595.049 C 591.379,589.683 578.928,588.074 566.461,589.354 L 527.549,603.079" data-line="nan" stroke-width="45.0" fill="none" stroke="url(&quot;#theme-accent-gradient-linear&quot;) rgb(149, 114, 55)"/><path d="M 736.736,662.19 C 729.32,643.386 726.476,638.293 721.643,632.157 C 715.509,626.46 709.78,622.415 704.59,619.55 C 695.588,616.313 681.97,614.512 674.229,615.094 C 666.844,616.848 656.555,621.06 635.549,634.759" data-line="nan" stroke-width="45.0" fill="none" stroke="url(&quot;#theme-accent-gradient-linear&quot;) rgb(149, 114, 55)"/><path d="M 736.736,662.19 C 762.728,653.367 773.803,650.666 782.097,650.131 C 790.413,650.925 803.131,654.845 811.901,659.933 C 816.061,663.263 819.987,667.09 826.202,675.405 C 830.352,684.011 832.79,692.572 834.462,709.59" data-line="nan" stroke-width="45.0" fill="none" stroke="url(&quot;#theme-accent-gradient-linear&quot;) rgb(149, 114, 55)"/><path d="M 531.029,386.518 C 555.136,357.894 563.177,346.889 571.892,331.445 C 578.644,314.157 583.302,294.097 584.748,274.734 C 583.117,255.595 578.589,236.663 571.596,219.212 C 561.423,202.218 546.911,185.144 531.081,171.784 C 513.782,161.325 495.402,153.926 476.23,149.536 C 457.321,148.099 438.096,149.613 417.191,154.595 C 397.957,162.78 381.735,172.856 365.193,187.318 C 353.317,201.55 342.964,218.65 335.056,239.016 C 330.887,258.366 329.855,279.554 332.13,299.008 C 337.128,317.668 344.696,334.997 354.249,350.163 Q 360.38,357.683 387.036,385.653" data-line="nan" stroke-width="45.0" fill="none" stroke="url(&quot;#theme-accent-gradient-linear&quot;) rgb(149, 114, 55)"/><path d="M 525.965,388.41 C 525.96,358.82 524.322,349.866 522.254,342.335 C 518.751,333.731 510.545,320.941 498.908,309.561 C 490.203,303.676 481.577,299.535 473.025,296.803 C 464.612,295.323 447.434,295.534 440.132,297.123 C 430.703,300.389 422.13,304.726 415.84,309.059 C 404.255,320.312 394.804,334.902 390.667,345.845 Q 389.276,356.806 389.26,411.593" data-line="nan" stroke-width="45.0" fill="none" stroke="url(&quot;#theme-accent-gradient-linear&quot;) rgb(149, 114, 55)"/><path d="M 227.902,730.682 C 227.791,717.641 230.574,705.849 237.196,693.317 C 244.031,685.413 256.282,676.417 268.885,671.548 C 281.217,670.064 293.938,671.823 302.577,675.104 C 311.073,680.512 323.319,692.7 389.204,780.601" data-line="nan" stroke-width="45.0" fill="none" stroke="url(&quot;#theme-accent-gradient-linear&quot;) rgb(149, 114, 55)"/><path d="M 525.792,649.059 L 525.965,388.41" data-line="0.0" stroke-width="45.0" fill="none" stroke="url(&quot;#theme-accent-gradient-linear&quot;) rgb(149, 114, 55)"/><path d="M 630.171,667.435 L 631.674,637.34" data-line="2.0" stroke-width="45.0" fill="none" stroke="url(&quot;#theme-accent-gradient-linear&quot;) rgb(149, 114, 55)"/><path d="M 735.049,691.217 L 736.736,662.19" data-line="4.0" stroke-width="45.0" fill="none" stroke="url(&quot;#theme-accent-gradient-linear&quot;) rgb(149, 114, 55)"/><path d="M 525.7273775763622,531.6028929598331 A 268.1426087531958,268.1426087531958 0 1,0 204.24495260699717,184.13741390285537" data-line="8.0" stroke-width="45.0" fill="none" stroke="url(&quot;#theme-accent-gradient-linear&quot;) rgb(149, 114, 55)"/><path d="M 389.276,356.806 L 387.036,385.653" data-line="9.0" stroke-width="45.0" fill="none" stroke="url(&quot;#theme-accent-gradient-linear&quot;) rgb(149, 114, 55)"/><path d="M 389.26,411.593 L 389.204,780.601" data-line="11.0" stroke-width="45.0" fill="none" stroke="url(&quot;#theme-accent-gradient-linear&quot;) rgb(149, 114, 55)"/><path d="M 834.462,709.59 L 833.47,870.484" data-line="12.0" stroke-width="45.0" fill="none" stroke="url(&quot;#theme-accent-gradient-linear&quot;) rgb(149, 114, 55)"/><path d="M 832.3563659683371,870.4784499687662 A 150.04248502191672,150.04248502191672 0 0,1 677.7217354623755,1019.7028294577262" data-line="13.0" stroke-width="45.0" fill="none" stroke="url(&quot;#theme-accent-gradient-linear&quot;) rgb(149, 114, 55)"/><path d="M 677.713,1019.988 L 445.086,1014.899" data-line="14.0" stroke-width="45.0" fill="none" stroke="url(&quot;#theme-accent-gradient-linear&quot;) rgb(149, 114, 55)"/><path d="M 445.10683671252895,1014.8071156791834 A 147.3869556645842,147.3869556645842 0 0,1 350.75083479053535,945.9444547780046" data-line="15.0" stroke-width="45.0" fill="none" stroke="url(&quot;#theme-accent-gradient-linear&quot;) rgb(149, 114, 55)"/><path d="M 350.716,945.965 L 227.902,730.682" data-line="16.0" stroke-width="45.0" fill="none" stroke="url(&quot;#theme-accent-gradient-linear&quot;) rgb(149, 114, 55)"/><path d="M 204.103,184.088 L 189.58,283.2" data-line="18.0" stroke-width="45.0" fill="none" stroke="url(&quot;#theme-accent-gradient-linear&quot;) rgb(149, 114, 55)"/><path d="M 189.75242768299603,283.1951296524615 A 263.91403284140904,263.91403284140904 0 0,0 389.57173640935116,531.7826347255925" data-line="19.0" stroke-width="45.0" fill="none" stroke="url(&quot;#theme-accent-gradient-linear&quot;) rgb(149, 114, 55)"/></g></svg>