<svg class="colorable-icon reset-top-left-margin" xmlns="http://www.w3.org/2000/svg" aria-hidden="true" data-prefix="fal" data-icon="circle-arrow-right" viewBox="-1 -1 514 514" data-export-recolorable-svg="true" overflow="visible" xmlns:xlink="http://www.w3.org/1999/xlink" fill="rgb(0, 0, 0)" stroke="none"><path fill="rgb(111, 161, 47)" d="M480 256A224 224 0 1 1 32 256a224 224 0 1 1 448 0zM0 256a256 256 0 1 0 512 0A256 256 0 1 0 0 256zM283.3 363.3l96-96c6.2-6.2 6.2-16.4 0-22.6l-96-96c-6.2-6.2-16.4-6.2-22.6 0s-6.2 16.4 0 22.6L329.4 240 144 240c-8.8 0-16 7.2-16 16s7.2 16 16 16l185.4 0-68.7 68.7c-6.2 6.2-6.2 16.4 0 22.6s16.4 6.2 22.6 0z" stroke="none"/></svg>