<svg xmlns="http://www.w3.org/2000/svg" width="1024" height="1024" viewBox="-45 -45 1113.3252563476562 1114" class="colorable-icon reset-top-left-margin" data-export-recolorable-svg="true" overflow="visible" xmlns:xlink="http://www.w3.org/1999/xlink" fill="rgb(0, 0, 0)" stroke="none"><g fill="none" stroke="url(&quot;#theme-accent-gradient-linear&quot;) rgb(47, 111, 161)" stroke-width="45" stroke-linecap="round" stroke-linejoin="round"><path d="M 615.0,810.91 C 592.26,819.88 567.89,827.76 545.35,833.51 C 521.97,837.99 482.87,842.26 426.94,841.49 C 400.17,838.14 378.62,834.2 356.91,828.91 C 334.3,821.96 311.82,813.47 290.73,803.99 C 271.19,793.83 248.12,779.91 227.87,765.75 C 207.47,749.4 191.2,734.43 173.61,716.55 C 160.44,701.51 146.12,683.12 133.61,664.72 C 120.49,642.44 109.81,621.16 99.98,597.89 C 91.95,574.75 85.96,553.16 81.38,531.9 C 78.12,511.17 74.9,481.21 74.56,460.69" data-line="nan" stroke-width="45.0" fill="none" stroke="url(&quot;#theme-accent-gradient-linear&quot;) rgb(47, 111, 161)"/><path d="M 512.25,84.93 C 481.43,82.36 460.24,81.9 428.9,82.73 C 387.29,88.03 348.78,97.03 328.05,103.62 C 309.22,110.71 273.3,127.51 256.18,137.17 C 239.41,147.83 225.96,157.26 208.65,170.83 C 196.0,181.87 180.2,197.25 166.73,211.91 C 155.01,226.1 142.39,243.18 132.53,258.14 C 121.83,276.37 112.67,294.12 103.96,313.54 C 96.5,333.0 85.48,370.23 81.03,391.35 Q 77.66,414.31 74.5,451.67" data-line="nan" stroke-width="45.0" fill="none" stroke="url(&quot;#theme-accent-gradient-linear&quot;) rgb(47, 111, 161)"/><path d="M 845.6848630636844,448.1498695816348 A 375.0948843839417,375.0948843839417 0 0,0 512.1965577617324,85.41039937709036" data-line="0.0" stroke-width="45.0" fill="none" stroke="url(&quot;#theme-accent-gradient-linear&quot;) rgb(47, 111, 161)"/><path d="M 460.18,66.15 L 460.35,183.46" data-line="1.0" stroke-width="45.0" fill="none" stroke="url(&quot;#theme-accent-gradient-linear&quot;) rgb(47, 111, 161)"/><path d="M 746.41883650634,460.46270462377754 A 78.07020847023075,78.07020847023075 0 0,0 755.7096621678407,460.75785567004795" data-line="2.0" stroke-width="45.0" fill="none" stroke="url(&quot;#theme-accent-gradient-linear&quot;) rgb(47, 111, 161)"/><path d="M 460.24,736.75 L 460.11,921.6" data-line="4.0" stroke-width="45.0" fill="none" stroke="url(&quot;#theme-accent-gradient-linear&quot;) rgb(47, 111, 161)"/><path d="M 89.9,460.67 L 174.21,460.8" data-line="6.0" stroke-width="45.0" fill="none" stroke="url(&quot;#theme-accent-gradient-linear&quot;) rgb(47, 111, 161)"/><path d="M 460.18,66.15 L 460.34,0.0" data-line="7.0" stroke-width="45.0" fill="none" stroke="url(&quot;#theme-accent-gradient-linear&quot;) rgb(47, 111, 161)"/><path d="M 0.0,460.7 L 89.9,460.67" data-line="8.0" stroke-width="45.0" fill="none" stroke="url(&quot;#theme-accent-gradient-linear&quot;) rgb(47, 111, 161)"/><circle cx="461.1876543096277" cy="460.72187583787985" r="104.20022561244498" data-line="13.0" stroke-width="45.0" fill="none" stroke="url(&quot;#theme-accent-gradient-linear&quot;) rgb(47, 111, 161)"/><path d="M 831.72,1017.19 C 770.1669860770045,925.8195718857137 684.2528945396089,827.9447295756759 653.8,734.76" data-line="15.0" stroke-width="45.0" fill="none" stroke="url(&quot;#theme-accent-gradient-linear&quot;) rgb(47, 111, 161)"/><path d="M 831.72,1017.19 L 836.71,1024.0" data-line="16.0" stroke-width="45.0" fill="none" stroke="url(&quot;#theme-accent-gradient-linear&quot;) rgb(47, 111, 161)"/><circle cx="837.0220080912815" cy="696.8888869894168" r="87.59264415164557" data-line="18.0" stroke-width="45.0" fill="none" stroke="url(&quot;#theme-accent-gradient-linear&quot;) rgb(47, 111, 161)"/><path d="M 653.7468640388689,734.7707583940853 A 186.64520748639316,186.64520748639316 0 1,1 994.7097806693644,797.0454191693507" data-line="20.0" stroke-width="45.0" fill="none" stroke="url(&quot;#theme-accent-gradient-linear&quot;) rgb(47, 111, 161)"/><path d="M 993.46,796.26 L 836.71,1024.0" data-line="21.0" stroke-width="45.0" fill="none" stroke="url(&quot;#theme-accent-gradient-linear&quot;) rgb(47, 111, 161)"/></g></svg>